<svg id="Grupo_83604" data-name="Grupo 83604" xmlns="http://www.w3.org/2000/svg" xmlns:xlink="http://www.w3.org/1999/xlink" width="103.883" height="103.883" viewBox="0 0 103.883 103.883">
  <defs>
    <clipPath id="clip-path">
      <rect id="Rect치ngulo_32715" data-name="Rect치ngulo 32715" width="103.581" height="78.324" fill="none"/>
    </clipPath>
  </defs>
  <g id="Grupo_83396" data-name="Grupo 83396" transform="translate(0.004 13.113)">
    <g id="Grupo_83393" data-name="Grupo 83393" clip-path="url(#clip-path)">
      <path id="Trazado_115158" data-name="Trazado 115158" d="M23.009,12H72.374a11.031,11.031,0,0,1,11.01,11.01v9.531L104.042,20.61a4.4,4.4,0,0,1,6.606,3.814V72.962a4.4,4.4,0,0,1-6.606,3.814L83.383,64.848v9.531a11.031,11.031,0,0,1-11.01,11.01H23.009A11.031,11.031,0,0,1,12,74.379V23.007A11.031,11.031,0,0,1,23.009,12" transform="translate(-9.533 -9.531)" fill="#fc5692" fill-rule="evenodd"/>
      <path id="Trazado_115159" data-name="Trazado 115159" d="M82.6,81.458A11.038,11.038,0,0,1,72.374,88.4H23.009A11.031,11.031,0,0,1,12,77.393V26.021a11.038,11.038,0,0,1,6.946-10.23,10.934,10.934,0,0,0-.78,4.064V71.228a11.031,11.031,0,0,0,11.01,11.01H78.539a10.934,10.934,0,0,0,4.065-.78" transform="translate(-9.533 -12.546)" fill="#fb3580" fill-rule="evenodd"/>
      <path id="Trazado_115160" data-name="Trazado 115160" d="M359.336,63.489l20.659-11.928a4.4,4.4,0,0,1,6.606,3.814v48.538a4.4,4.4,0,0,1-6.606,3.814L359.336,95.8Z" transform="translate(-285.486 -40.483)" fill="#8c9ba6" fill-rule="evenodd"/>
      <path id="Trazado_115161" data-name="Trazado 115161" d="M364.641,135.476V97.039l-5.3,3.063v32.311Z" transform="translate(-285.486 -77.096)" fill="#7c8b96" fill-rule="evenodd"/>
      <path id="Trazado_115162" data-name="Trazado 115162" d="M156.471,121.507l-27.778,16.038a2.338,2.338,0,0,1-3.507-2.025V103.445a2.338,2.338,0,0,1,3.506-2.024l27.778,16.038a2.338,2.338,0,0,1,0,4.049" transform="translate(-99.458 -80.321)" fill="#f4f8f8" fill-rule="evenodd"/>
      <path id="Trazado_115163" data-name="Trazado 115163" d="M156.471,178.122,128.693,194.16a2.338,2.338,0,0,1-3.507-2.025V189.7l27.174-15.689a2.274,2.274,0,0,0,1.141-1.653l2.969,1.714a2.338,2.338,0,0,1,0,4.049" transform="translate(-99.458 -136.936)" fill="#e5ecf1" fill-rule="evenodd"/>
      <path id="Trazado_115164" data-name="Trazado 115164" d="M28.2,54.977V23.347L55.587,39.162ZM58.246,35,30.468,18.964a4.8,4.8,0,0,0-7.205,4.161V55.2a4.794,4.794,0,0,0,7.205,4.16L58.246,43.323a4.8,4.8,0,0,0,0-8.321Zm40.4,28.431a1.937,1.937,0,0,1-2.906,1.676L76.318,53.894V24.431L95.742,13.216a1.937,1.937,0,0,1,2.906,1.677ZM71.385,64.848V13.476a8.554,8.554,0,0,0-8.544-8.544H13.476a8.554,8.554,0,0,0-8.544,8.544V64.848a8.553,8.553,0,0,0,8.544,8.543H62.841A8.553,8.553,0,0,0,71.385,64.848Zm28.762-55.9a6.8,6.8,0,0,0-6.87,0L76.318,18.735V13.476A13.492,13.492,0,0,0,62.841,0H13.476A13.492,13.492,0,0,0,0,13.476V64.848A13.491,13.491,0,0,0,13.476,78.324H62.841A13.492,13.492,0,0,0,76.318,64.848v-5.26l16.959,9.793a6.869,6.869,0,0,0,10.3-5.949V14.893a6.8,6.8,0,0,0-3.434-5.949" transform="translate(0)" fill-rule="evenodd"/>
    </g>
  </g>
  <rect id="Rect치ngulo_32884" data-name="Rect치ngulo 32884" width="103.883" height="103.883" transform="translate(0 0)" fill="none"/>
</svg>
