<svg xmlns="http://www.w3.org/2000/svg" width="72.718" height="71.822" viewBox="0 0 72.718 71.822">
  <g id="Grupo_874076" data-name="Grupo 874076" transform="translate(0.43 0.01)">
    <ellipse id="Elipse_4817" data-name="Elipse 4817" cx="36" cy="35.5" rx="36" ry="35.5" transform="translate(-0.43 -0.01)" fill="#fff"/>
    <g id="dominio" transform="translate(0.476 0)">
      <path id="Trazado_636884" data-name="Trazado 636884" d="M71.812,35.906A35.906,35.906,0,1,1,35.906,0,35.906,35.906,0,0,1,71.812,35.906Zm0,0" transform="translate(0 0)" fill="#a1f1fc"/>
      <path id="Trazado_636885" data-name="Trazado 636885" d="M96.071,351.731A35.8,35.8,0,0,0,69.98,362.97a36.042,36.042,0,0,0,2.616,2.5q.318-.336.646-.666a32.286,32.286,0,0,1,45.658,0q.329.329.646.666a36.047,36.047,0,0,0,2.616-2.5A35.8,35.8,0,0,0,96.071,351.731Zm0,0" transform="translate(-60.165 -302.398)" fill="#5fd4e3"/>
      <path id="Trazado_636886" data-name="Trazado 636886" d="M71.8,36.814q.012-.453.012-.908T71.8,35A35.907,35.907,0,0,0,36.814.012Q36.361,0,35.906,0T35,.012A35.907,35.907,0,0,0,.012,35Q0,35.451,0,35.906t.012.908A35.907,35.907,0,0,0,35,71.8q.453.012.908.012t.908-.012A35.907,35.907,0,0,0,71.8,36.814ZM53.083,34.1a67.835,67.835,0,0,0-1.974-14.987,35.949,35.949,0,0,0,8.271-5.368A32.027,32.027,0,0,1,68.14,34.1Zm-49.411,0a32.027,32.027,0,0,1,8.76-20.354,35.957,35.957,0,0,0,8.27,5.368A67.869,67.869,0,0,0,18.729,34.1ZM34.1,18.807A32.221,32.221,0,0,1,25.067,17a39.74,39.74,0,0,1,1.943-4.921C29.084,7.751,31.59,4.91,34.1,3.967ZM44.473,4.764a32,32,0,0,1,12.264,6.475,32.133,32.133,0,0,1-6.649,4.353A33.33,33.33,0,0,0,44.473,4.764ZM46.744,17a32.193,32.193,0,0,1-9.028,1.8V3.967c2.5.943,5.011,3.784,7.086,8.114A39.7,39.7,0,0,1,46.744,17ZM21.724,15.593a32.188,32.188,0,0,1-6.648-4.353A31.985,31.985,0,0,1,27.34,4.764,33.318,33.318,0,0,0,21.724,15.593Zm2.362,4.894A35.769,35.769,0,0,0,34.1,22.433V34.1H22.351A64.451,64.451,0,0,1,24.085,20.486ZM34.1,37.716V67.845c-2.505-.943-5.012-3.784-7.086-8.114-2.817-5.882-4.452-13.642-4.659-22.015Zm3.621,30.129V37.716H49.461c-.207,8.373-1.841,16.133-4.659,22.015C42.728,64.061,40.222,66.9,37.717,67.845Zm0-33.749V22.433a35.77,35.77,0,0,0,10.01-1.947A64.417,64.417,0,0,1,49.46,34.1ZM3.672,37.716H18.729c.3,12.557,3.687,23.416,8.611,29.331A32.324,32.324,0,0,1,3.672,37.716Zm40.8,29.331c4.924-5.916,8.312-16.775,8.611-29.331H68.14A32.324,32.324,0,0,1,44.473,67.048Zm0,0" transform="translate(0 0)" fill="#5fd4e3"/>
      <path id="Trazado_636887" data-name="Trazado 636887" d="M.033,37.415A35.906,35.906,0,0,1,35,3.029q.453-.012.908-.012t.908.012A35.906,35.906,0,0,1,71.779,37.415c.008-.2.017-.4.022-.6q.012-.453.012-.908T71.8,35A35.907,35.907,0,0,0,36.814.012Q36.361,0,35.906,0T35,.012A35.907,35.907,0,0,0,.012,35Q0,35.451,0,35.906t.012.908c0,.2.014.4.022.6Zm0,0" transform="translate(0 0)" fill="#a1f1fc"/>
      <path id="Trazado_636888" data-name="Trazado 636888" d="M71.779,245.242a35.906,35.906,0,0,1-34.964,34.386q-.453.011-.908.011T35,279.628A35.906,35.906,0,0,1,.033,245.242c-.008.2-.017.4-.022.6Q0,246.3,0,246.751t.012.908A35.907,35.907,0,0,0,35,282.646q.453.012.908.012t.908-.012A35.907,35.907,0,0,0,71.8,247.659q.012-.453.012-.908t-.012-.908C71.8,245.642,71.786,245.443,71.779,245.242Zm0,0" transform="translate(0 -210.845)" fill="#53bac7"/>
      <path id="Trazado_636889" data-name="Trazado 636889" d="M77.429,206.367h-46.5a9.676,9.676,0,0,1,0-19.351h46.5a9.676,9.676,0,1,1,0,19.351Zm0,0" transform="translate(-18.273 -160.785)" fill="#ffefe4"/>
      <path id="Trazado_636890" data-name="Trazado 636890" d="M77.429,187.016h-46.5a9.675,9.675,0,0,0-9.675,9.676c0,.254.013.505.032.754a9.674,9.674,0,0,1,9.643-8.921h46.5a9.674,9.674,0,0,1,9.643,8.921c.02-.249.032-.5.032-.754A9.675,9.675,0,0,0,77.429,187.016Zm0,0" transform="translate(-18.273 -160.785)" fill="#fff7f2"/>
      <path id="Trazado_636891" data-name="Trazado 636891" d="M30.929,261.051h46.5a9.676,9.676,0,0,0,9.676-9.676c0-.254-.013-.505-.032-.754a9.674,9.674,0,0,1-9.643,8.921h-46.5a9.674,9.674,0,0,1-9.643-8.921c-.019.249-.032.5-.032.754A9.675,9.675,0,0,0,30.929,261.051Zm0,0" transform="translate(-18.273 -215.469)" fill="#edd4c2"/>
      <g id="Grupo_894593" data-name="Grupo 894593" transform="translate(8.764 30.332)">
        <path id="Trazado_636892" data-name="Trazado 636892" d="M64.024,216.258h.049a1.539,1.539,0,0,1,1.489,1.146l1.541,5.839h.159l1.743-5.519a2.1,2.1,0,0,1,4-.005l1.763,5.524h.159l1.52-5.834a1.539,1.539,0,1,1,2.955.858l-2.461,7.681a2.1,2.1,0,0,1-2,1.458h-.14a2.1,2.1,0,0,1-2-1.465l-1.765-5.566H70.88l-1.766,5.566a2.1,2.1,0,0,1-2,1.465h-.095a2.1,2.1,0,0,1-2-1.458l-2.461-7.681A1.539,1.539,0,0,1,64.024,216.258Zm0,0" transform="translate(-62.484 -216.258)" fill="#6770e6"/>
        <path id="Trazado_636893" data-name="Trazado 636893" d="M196.954,216.258H197a1.539,1.539,0,0,1,1.488,1.146l1.541,5.839h.159l1.744-5.519a2.1,2.1,0,0,1,4-.005l1.764,5.524h.159l1.52-5.834a1.539,1.539,0,1,1,2.955.858l-2.461,7.681a2.1,2.1,0,0,1-2,1.458h-.14a2.1,2.1,0,0,1-2-1.465l-1.765-5.566h-.159l-1.765,5.566a2.1,2.1,0,0,1-2,1.465h-.095a2.1,2.1,0,0,1-2-1.458l-2.461-7.681A1.539,1.539,0,0,1,196.954,216.258Zm0,0" transform="translate(-176.77 -216.258)" fill="#6770e6"/>
        <path id="Trazado_636894" data-name="Trazado 636894" d="M329.884,216.258h.049a1.539,1.539,0,0,1,1.488,1.146l1.541,5.839h.159l1.744-5.519a2.1,2.1,0,0,1,4-.005l1.764,5.524h.159l1.52-5.834a1.539,1.539,0,1,1,2.955.858l-2.461,7.681a2.1,2.1,0,0,1-2,1.458h-.14a2.1,2.1,0,0,1-2-1.465l-1.765-5.566h-.159l-1.765,5.566a2.1,2.1,0,0,1-2,1.465h-.095a2.1,2.1,0,0,1-2-1.458l-2.461-7.681A1.539,1.539,0,0,1,329.884,216.258Zm0,0" transform="translate(-291.055 -216.258)" fill="#6770e6"/>
      </g>
      <path id="Trazado_636895" data-name="Trazado 636895" d="M27.491,329.745A13.745,13.745,0,1,1,13.745,316,13.745,13.745,0,0,1,27.491,329.745Zm0,0" transform="translate(0 -271.679)" fill="#d476e2"/>
      <path id="Trazado_636896" data-name="Trazado 636896" d="M13.77,422.024A13.746,13.746,0,0,1,.018,408.977c-.012.242-.019.484-.018.729a13.745,13.745,0,1,0,27.491-.049c0-.226-.007-.45-.018-.673A13.746,13.746,0,0,1,13.77,422.024Zm0,0" transform="translate(0 -351.614)" fill="#b665c2"/>
      <path id="Trazado_636897" data-name="Trazado 636897" d="M44.427,376.044a2.615,2.615,0,0,1-1.629-.567l-3.8-3a2.63,2.63,0,1,1,3.262-4.126l1.766,1.4,6.136-7.531a2.63,2.63,0,0,1,4.077,3.323l-7.773,9.54A2.627,2.627,0,0,1,44.427,376.044Zm0,0" transform="translate(-32.671 -310.577)" fill="#fff7f2"/>
    </g>
  </g>
</svg>
