<?xml version="1.0" encoding="utf-8"?>
<!-- Generator: Adobe Illustrator 27.5.0, SVG Export Plug-In . SVG Version: 6.00 Build 0)  -->
<svg version="1.1" id="Capa_1" xmlns="http://www.w3.org/2000/svg" xmlns:xlink="http://www.w3.org/1999/xlink" x="0px" y="0px"
	 viewBox="0 0 1070 350.8" style="enable-background:new 0 0 1070 350.8;" xml:space="preserve">
<style type="text/css">
	.st0{fill:#7125C8;}
	.st1{fill:#72A368;}
	.st2{fill:#1A2738;}
	.st3{fill:#557A4C;}
	.st4{fill:#85BF80;}
	.st5{fill:#DA926D;}
	.st6{fill:#E2AE4A;}
	.st7{fill:#C8D1DC;}
	.st8{fill:#E4E8EE;}
	.st9{fill:#FEFEFE;}
	.st10{fill:#596876;}
	.st11{fill:#687682;}
	.st12{fill:#283C48;}
	.st13{fill:#93D2F0;}
	.st14{fill:#616C7B;}
	.st15{fill:#D45340;}
	.st16{fill:#DC8D57;}
	.st17{fill:#B85371;}
	.st18{opacity:0.64;}
	.st19{clip-path:url(#SVGID_00000060713063373638507960000002505982885264398473_);}
	.st20{fill:#E8DEED;}
	.st21{opacity:0.37;}
	.st22{clip-path:url(#SVGID_00000086691393147369393450000017155393253340884097_);}
	.st23{fill:#E4A077;}
	.st24{clip-path:url(#SVGID_00000140002819102243804620000003728601810033543560_);}
	.st25{fill:#E8BEA6;}
	.st26{fill:#92A1D2;}
	.st27{fill:#D9E0F3;}
	.st28{fill:#AFBEE2;}
	.st29{fill:#3D4697;}
	.st30{opacity:0.53;}
	.st31{clip-path:url(#SVGID_00000125564582729166626590000004575471938517863085_);}
	.st32{fill:#FFFFFF;}
	.st33{fill:#3B4395;}
	.st34{fill:#6467AD;}
	.st35{fill:#283374;}
	.st36{fill:#7A97CE;}
	.st37{fill:#4C62AB;}
	.st38{fill:#F0F7FD;}
	.st39{fill:#273C8B;}
	.st40{fill:#BFD1ED;}
	.st41{enable-background:new    ;}
	.st42{fill:#FFC321;}
	.st43{fill:#12263F;}
</style>
<g id="Grupo_973868" transform="translate(-265 -3860.203)">
	<path id="Trazado_704801" class="st0" d="M290,3943.8h1020c13.8,0,25,11.2,25,25V4186c0,13.8-11.2,25-25,25H290
		c-13.8,0-25-11.2-25-25v-217.2C265,3954.9,276.2,3943.8,290,3943.8z"/>
	<g id="COMPU" transform="translate(270.418 3875.052)">
		<path id="Trazado_662499" class="st1" d="M103.3,146.5c1.1,2.8-1.4,8-4.7,9.4c-1.1,0.6-2.5,0.4-3.2-0.6c1.2,0,2.3-0.5,3.1-1.3
			c1.7-1.5,2.9-3.5,3.3-5.7c0.3-1.1,0.1-2.3-0.5-3.3C102.2,145.1,103,145.7,103.3,146.5"/>
		<path id="Trazado_662500" class="st1" d="M91.6,147.1c0.4-0.9,1-1.7,1.6-2.4c0.5-0.7,1.2-1.3,1.9-1.8c0.7-0.5,1.4-0.9,2.2-1.1
			c0.7-0.2,1.5-0.1,2.2,0.3l0,0l3.3,1.9l0,0c-0.9-0.4-2-0.4-2.9,0.1c-3.5,1.9-5.8,5.5-6.1,9.6c-0.1,1.3,0.5,2.7,1.6,3.4l0,0
			c-3.6-2.1-3.4-2-3.4-2c-0.6-0.4-1-0.9-1.2-1.5l0,0C90.2,151.4,90.5,149.1,91.6,147.1"/>
		<path id="Trazado_662501" class="st2" d="M98.3,150.3c-0.1-0.2-0.1-0.4-0.1-0.6c0.1-0.5,0.3-1,0.7-1.3c0.2-0.3,0.6-0.4,0.9-0.4
			c0.1,0,0.3,0.1,0.4,0.3c0.1,0.1,0.1,0.3,0.1,0.4C100.2,149.9,98.8,151.1,98.3,150.3"/>
		<path id="Trazado_662502" class="st2" d="M95.7,152.4c-0.2,0.1-0.4,0.1-0.6,0c-0.1-0.1-0.1-0.1-0.2-0.2c0.1-0.6,0.2-1.2,0.5-1.7
			c0.2-0.4,0.7-0.6,1.1-0.6c0.2,0.1,0.4,0.3,0.4,0.7c0,0.5-0.2,0.9-0.5,1.3C96.3,152.1,96,152.3,95.7,152.4"/>
		<path id="Trazado_662503" class="st3" d="M98.3,150.3c0.5,0.9,1.9-0.3,2-1.6c0-0.2,0-0.3-0.1-0.4c-0.1-0.1-0.2-0.2-0.4-0.3
			c-0.4,0-0.7,0.1-0.9,0.4c-0.4,0.4-0.6,0.8-0.7,1.3C98.2,149.9,98.3,150.1,98.3,150.3 M95.2,152.5c0.2,0.1,0.4,0,0.5,0
			c0.3-0.1,0.5-0.3,0.7-0.6c0.3-0.4,0.4-0.8,0.5-1.3c0-0.5-0.3-0.6-0.3-0.7c-0.4-0.2-0.9,0.2-1.2,0.5c0.8-2.2,2.3-4,4.4-5.1
			c0.5-0.2,1-0.3,1.6-0.3c1.5,2.2-0.1,6.8-2.8,9c-0.8,0.8-1.9,1.2-3.1,1.3c-0.5-0.9-0.7-2-0.5-3L95.2,152.5"/>
		<path id="Trazado_662504" class="st4" d="M104.2,145.6c-0.6-1.6-2.2-2.4-4.3-1.5c-3.5,1.9-5.8,5.5-6,9.6c0,2.9,1.9,4.6,4.6,3.4
			C102.5,155.4,105.6,149.1,104.2,145.6 M98.6,155.9c-2.5,1.1-4.1-0.8-3.7-3.6c0.1-0.6,0.2-1.3,0.5-1.9c1.4-3.7,4.8-6.4,6.9-5.1
			c0.5,0.3,0.8,0.7,1,1.2C104.4,149.4,101.9,154.6,98.6,155.9"/>
		<path id="Trazado_662505" class="st5" d="M115.8,156c0.2,0.7,0.2,1.6,0,2.3c-0.3,1.1-0.9,2.1-1.7,2.9c-1.9,1.9-3.9,1.4-3.9-0.9
			c0.1-1.6,0.8-3.1,1.9-4.2c0.6-0.7,1.5-1.1,2.4-1.2C115.1,155,115.6,155.4,115.8,156"/>
		<path id="Trazado_662506" class="st6" d="M115.8,158.3c0.2-0.7,0.2-1.6,0-2.3c-0.2-0.6-0.7-0.9-1.3-1c-1.8-0.2-4.3,2.7-4.3,5.4
			c0,2.3,2,2.8,3.9,0.9C114.9,160.4,115.5,159.4,115.8,158.3 M114.1,152.2c5.7,3.5-0.4,14-6.3,10.6c-0.7-0.5-1.1-1.2-1.2-2
			c-0.5-4,3.2-8.7,6-8.9C113.2,151.8,113.7,151.9,114.1,152.2"/>
		<path id="Trazado_662507" class="st7" d="M105.1,150.9c-0.7,0.6-1.4,1.4-1.9,2.3c-0.3-0.1-0.6-0.4-0.8-0.7
			c-0.1-0.2-0.2-0.5-0.2-0.7c0-0.8,0.6-1.4,1.4-1.4l0,0c0.3,0,0.5,0.1,0.7,0.2L105.1,150.9L105.1,150.9L105.1,150.9z"/>
		<path id="Trazado_662508" class="st6" d="M107.9,162.8c-0.6-0.4-2.9-1.7-3.2-1.9c-1.5-0.9-2.4-2.5-2.4-4.2c0-2.9,2.3-6.4,5.2-7
			c1.1-0.2,2.3,0,3.3,0.6l3.2,1.8c-2.9-1.6-7.9,4-7.3,8.7C106.8,161.6,107.2,162.3,107.9,162.8"/>
		<path id="Trazado_662509" class="st7" d="M99.6,155c-0.7-0.4-0.9-1.3-0.5-2l0,0c0.4-0.6,1.2-0.9,1.9-0.5l0,0l2,1.1
			c-0.4,0.9-0.7,1.9-0.7,2.9C102.3,156.5,102.3,156.5,99.6,155"/>
		<path id="Trazado_662510" class="st8" d="M87.9,220.2l93.9-54.9c6.9-4.1,15.5-4.1,22.5,0l64,37.5l5.5-1.9v7.2l0,0
			c0,1.2-0.7,2.4-1.7,3L177,266.7c-6.9,4.1-15.5,4.1-22.5,0L86.7,227c-1-0.6-1.6-1.6-1.7-2.7l0,0v-7.4L87.9,220.2L87.9,220.2z"/>
		<path id="Trazado_662511" class="st9" d="M272,203.3l-2.2,1.3l-57.5,33.6l-6.3,3.7l-29,17c-6.9,4.1-15.5,4.1-22.5,0l-67.8-39.7
			c-1.7-1-2.2-3.1-1.3-4.8c0.3-0.5,0.7-1,1.3-1.3l78.5-45.9l4.7-2.7l11.9-7c6.9-4.1,15.5-4.1,22.5,0l3.7,2.2l4.9,2.9l11.8,6.9
			l4.1,2.4l26.9,15.8l0,0l13.5,7.9l2.8,1.7c1.7,1,2.2,3.1,1.3,4.8C272.9,202.6,272.5,203,272,203.3"/>
		<path id="Trazado_662513" class="st10" d="M137.8,230c0.2,0.5,0.9,0.7,1.3,0.8l50.8,7.9c1.6,0.3,3.2,0,4.6-0.8
			c0.5-0.3,0.9-0.7,1.1-1.1l7-15.1v0.9l5.6-12.1v-0.9l7-15.1c0.1-0.2,0.2-0.5,0.2-0.7v3.2c0,0.2-0.1,0.5-0.2,0.7L195.6,240
			c-0.2,0.5-0.6,0.9-1.1,1.1c-1.4,0.8-3.1,1-4.6,0.8l-50.8-7.9c-0.5,0-0.9-0.3-1.2-0.6c-0.1-0.1-0.2-0.3-0.2-0.4v-3.2l0,0
			C137.7,229.8,137.7,229.9,137.8,230"/>
		<path id="Trazado_662514" class="st11" d="M159.1,183.7l0.1-0.1c0.6-0.3,1.2-0.4,1.9-0.3l50.8,7.9c0.9,0.1,1.8,0.4,2.5,1
			c0.6,0.4,0.9,1,1,1.7c0,0.2-0.1,0.5-0.2,0.7l-7,15.1l-1.4-0.2l-5.6,12.1l0.9,0.1l0.5,0.1l-7,15.1c-0.2,0.5-0.6,0.9-1.1,1.1
			c-1.4,0.8-3.1,1-4.6,0.8l-50.8-7.9c-0.5-0.1-1.2-0.3-1.3-0.8c0-0.1,0-0.2,0-0.3s0-0.2,0.1-0.3L159,184
			C159,183.9,159,183.8,159.1,183.7 M204.8,208c0.1-0.4-0.1-0.8-0.4-1c-0.4-0.2-0.9-0.4-1.4-0.4c0,0-11.8-1.8-11.9-1.8
			c-0.7-0.1-1.4,0-2,0.4c-0.1,0.1-0.2,0.2-0.3,0.3s-6.4,13.9-6.4,13.9c0,0.1-0.1,0.1-0.1,0.2c-0.1,0.4,0.1,0.8,0.4,1
			c0.4,0.2,0.9,0.4,1.4,0.4l11.7,1.8c0.4,0.1,0.9,0.1,1.3,0c0.5-0.1,0.9-0.3,1.2-0.6c0.1-0.1,6.4-13.9,6.4-13.9
			C204.7,208.2,204.8,208.1,204.8,208"/>
		<path id="Trazado_662515" class="st2" d="M208.3,209.6v0.9l-1,0.1l-0.4-1.2L208.3,209.6L208.3,209.6z"/>
		<path id="Trazado_662516" class="st2" d="M206.9,209.3l0.4,1.2l-5.1,11l-0.9-0.1L206.9,209.3L206.9,209.3z"/>
		<path id="Trazado_662517" class="st10" d="M204.3,207c0.4,0.2,0.5,0.6,0.4,1c0,0.1-0.1,0.2-0.1,0.2s-6.4,13.7-6.4,13.9
			c-0.3,0.4-0.7,0.6-1.2,0.6c-0.4,0.1-0.9,0.1-1.3,0l-11.7-1.8c-0.5,0-1-0.2-1.4-0.4s-0.5-0.6-0.4-1c0-0.1,0.1-0.2,0.1-0.2
			s6.4-13.7,6.4-13.9c0.1-0.1,0.2-0.2,0.3-0.3c0.6-0.4,1.3-0.5,2-0.4l11.9,1.8C203.4,206.6,203.9,206.8,204.3,207"/>
		<path id="Trazado_662518" class="st12" d="M208.3,210.5l-5.6,12.1v-0.9l-0.5-0.1l5.1-11L208.3,210.5L208.3,210.5z"/>
		<path id="Trazado_662519" class="st2" d="M191.5,191.3l-1.3,2.9c-0.1,0.3-0.5,0.5-0.8,0.4l-3.4-0.5c-0.4-0.1-0.7-0.4-0.6-0.9
			c0-0.1,0-0.1,0.1-0.2l1.3-2.9c0.1-0.3,0.5-0.5,0.8-0.4l3.4,0.5c0.4,0.1,0.7,0.4,0.6,0.8l0,0C191.5,191.2,191.5,191.3,191.5,191.3"
			/>
		<path id="Trazado_662520" class="st2" d="M189.2,196.2l-1.3,2.9c-0.1,0.3-0.5,0.5-0.8,0.4l-3.4-0.5c-0.4-0.1-0.7-0.4-0.6-0.8l0,0
			c0-0.1,0-0.1,0.1-0.2l1.3-2.9c0.1-0.3,0.5-0.5,0.8-0.4l3.4,0.5c0.4,0.1,0.7,0.4,0.6,0.8l0,0C189.3,196.1,189.2,196.2,189.2,196.2"
			/>
		<path id="Trazado_662521" class="st2" d="M186.9,201.1l-1.3,2.9c-0.1,0.3-0.5,0.5-0.8,0.4l-3.4-0.5c-0.4-0.1-0.7-0.4-0.6-0.9
			c0-0.1,0-0.1,0.1-0.2l1.3-2.9c0.1-0.3,0.5-0.5,0.8-0.4l3.4,0.5c0.4,0.1,0.7,0.4,0.6,0.8l0,0C187,201,187,201.1,186.9,201.1"/>
		<path id="Trazado_662522" class="st2" d="M185.3,190.4l-1.3,2.9c-0.1,0.3-0.5,0.5-0.8,0.4l-3.4-0.5c-0.4-0.1-0.7-0.4-0.6-0.8l0,0
			c0-0.1,0-0.1,0.1-0.2l1.3-2.9c0.1-0.3,0.5-0.5,0.8-0.4l3.4,0.5c0.4,0.1,0.7,0.4,0.6,0.8l0,0C185.3,190.3,185.3,190.3,185.3,190.4"
			/>
		<path id="Trazado_662523" class="st2" d="M184.7,206l-1.3,2.9c-0.1,0.3-0.5,0.5-0.8,0.4l-3.4-0.5c-0.4-0.1-0.7-0.4-0.6-0.9
			c0-0.1,0-0.1,0.1-0.2l1.3-2.9c0.1-0.3,0.5-0.5,0.8-0.4l3.4,0.5c0.4,0.1,0.7,0.4,0.6,0.8l0,0C184.7,205.9,184.7,205.9,184.7,206"/>
		<path id="Trazado_662524" class="st2" d="M183,195.3l-1.3,2.9c-0.1,0.3-0.5,0.5-0.8,0.4l-3.4-0.5c-0.4-0.1-0.7-0.4-0.6-0.9
			c0-0.1,0-0.1,0.1-0.2l1.3-2.9c0.1-0.3,0.5-0.5,0.8-0.4l3.4,0.5c0.4,0.1,0.7,0.4,0.6,0.8l0,0C183.1,195.2,183.1,195.2,183,195.3"/>
		<path id="Trazado_662525" class="st2" d="M182.4,210.9l-1.3,2.9c-0.1,0.3-0.5,0.5-0.8,0.4l-3.4-0.5c-0.4-0.1-0.7-0.4-0.6-0.9
			c0-0.1,0-0.1,0.1-0.2l1.3-2.9c0.1-0.3,0.5-0.5,0.8-0.4l3.4,0.5c0.4,0.1,0.7,0.4,0.6,0.8l0,0C182.5,210.7,182.4,210.8,182.4,210.9"
			/>
		<path id="Trazado_662526" class="st2" d="M180.8,200.2l-1.3,2.9c-0.1,0.3-0.5,0.5-0.8,0.4l-3.4-0.5c-0.4-0.1-0.7-0.4-0.6-0.9
			c0-0.1,0-0.1,0.1-0.2l1.3-2.9c0.1-0.3,0.5-0.5,0.8-0.4l3.4,0.5c0.4,0.1,0.7,0.4,0.6,0.8l0,0C180.8,200,180.8,200.1,180.8,200.2"/>
		<path id="Trazado_662527" class="st2" d="M180.1,215.7l-1.3,2.9c-0.1,0.3-0.5,0.5-0.8,0.4l-3.4-0.5c-0.4-0.1-0.7-0.4-0.6-0.9
			c0-0.1,0-0.1,0.1-0.2l1.3-2.9c0.1-0.3,0.5-0.5,0.8-0.4l3.4,0.5c0.4,0.1,0.7,0.4,0.6,0.8l0,0C180.2,215.6,180.2,215.7,180.1,215.7"
			/>
		<path id="Trazado_662528" class="st2" d="M179.1,189.4l-1.3,2.9c-0.1,0.3-0.5,0.5-0.8,0.4l-3.4-0.5c-0.4-0.1-0.7-0.4-0.6-0.9
			c0-0.1,0-0.1,0.1-0.2l1.3-2.9c0.1-0.3,0.5-0.5,0.8-0.4l3.4,0.5c0.4,0.1,0.7,0.4,0.6,0.8l0,0C179.2,189.3,179.2,189.4,179.1,189.4"
			/>
		<path id="Trazado_662529" class="st2" d="M178.5,205l-1.3,2.9c-0.1,0.3-0.5,0.5-0.8,0.4l-3.4-0.5c-0.4-0.1-0.7-0.4-0.6-0.9
			c0-0.1,0-0.1,0.1-0.2l1.3-2.9c0.1-0.3,0.5-0.5,0.8-0.4l3.4,0.5c0.4,0.1,0.7,0.4,0.6,0.8l0,0C178.6,204.9,178.5,205,178.5,205"/>
		<path id="Trazado_662530" class="st2" d="M177.9,220.6l-1.3,2.9c-0.1,0.3-0.5,0.5-0.8,0.4l-3.4-0.5c-0.4-0.1-0.7-0.4-0.6-0.8l0,0
			c0-0.1,0-0.1,0.1-0.2l1.3-2.9c0.1-0.3,0.5-0.5,0.8-0.4l3.4,0.5c0.4,0.1,0.7,0.4,0.6,0.8l0,0C177.9,220.5,177.9,220.6,177.9,220.6"
			/>
		<path id="Trazado_662531" class="st2" d="M176.9,194.3l-1.3,2.9c-0.1,0.3-0.5,0.5-0.8,0.4l-3.4-0.5c-0.4-0.1-0.7-0.4-0.6-0.9
			c0-0.1,0-0.1,0.1-0.2l1.3-2.9c0.1-0.3,0.5-0.5,0.8-0.4l3.4,0.5c0.4,0.1,0.7,0.4,0.6,0.8l0,0C176.9,194.2,176.9,194.3,176.9,194.3"
			/>
		<path id="Trazado_662532" class="st2" d="M176.2,209.9l-1.3,2.9c-0.1,0.3-0.5,0.5-0.8,0.4l-3.4-0.5c-0.4-0.1-0.7-0.4-0.6-0.9
			c0-0.1,0-0.1,0.1-0.2l1.3-2.9c0.1-0.3,0.5-0.5,0.8-0.4l3.4,0.5c0.4,0.1,0.7,0.4,0.6,0.8l0,0C176.3,209.8,176.3,209.8,176.2,209.9"
			/>
		<path id="Trazado_662533" class="st2" d="M175.6,225.5l-1.3,2.9c-0.1,0.3-0.5,0.5-0.8,0.4l-3.4-0.5c-0.4-0.1-0.7-0.4-0.6-0.9
			c0-0.1,0-0.1,0.1-0.2l1.3-2.9c0.1-0.3,0.5-0.5,0.8-0.4l3.4,0.5c0.4,0.1,0.7,0.4,0.6,0.8l0,0C175.7,225.4,175.6,225.4,175.6,225.5"
			/>
		<path id="Trazado_662534" class="st2" d="M174.6,199.2l-1.3,2.9c-0.1,0.3-0.5,0.5-0.8,0.4l-3.4-0.5c-0.4-0.1-0.7-0.4-0.6-0.8l0,0
			c0-0.1,0-0.1,0.1-0.2l1.3-2.9c0.1-0.3,0.5-0.5,0.8-0.4l3.4,0.5c0.4,0.1,0.7,0.4,0.6,0.8l0,0C174.6,199.1,174.6,199.1,174.6,199.2"
			/>
		<path id="Trazado_662535" class="st2" d="M174,214.8l-1.3,2.9c-0.1,0.3-0.5,0.5-0.8,0.4l-3.4-0.5c-0.4-0.1-0.7-0.4-0.6-0.8l0,0
			c0-0.1,0-0.1,0.1-0.2l1.3-2.9c0.1-0.3,0.5-0.5,0.8-0.4l3.4,0.5c0.4,0.1,0.7,0.4,0.6,0.8l0,0C174,214.6,174,214.7,174,214.8"/>
		<path id="Trazado_662536" class="st2" d="M173.4,230.4l-1.3,2.9c-0.1,0.3-0.5,0.5-0.8,0.4l-3.4-0.5c-0.4-0.1-0.7-0.4-0.6-0.9
			c0-0.1,0-0.1,0.1-0.2l1.3-2.9c0.1-0.3,0.5-0.5,0.8-0.4l3.4,0.5c0.4,0.1,0.7,0.4,0.6,0.8l0,0C173.4,230.2,173.4,230.3,173.4,230.4"
			/>
		<path id="Trazado_662537" class="st2" d="M173,188.5l-1.3,2.9c-0.1,0.3-0.5,0.5-0.8,0.4l-3.4-0.5c-0.4-0.1-0.7-0.4-0.6-0.9
			c0-0.1,0-0.1,0.1-0.2l1.3-2.9c0.1-0.3,0.5-0.5,0.8-0.4l3.4,0.5c0.4,0.1,0.7,0.4,0.6,0.8l0,0C173,188.3,173,188.4,173,188.5"/>
		<path id="Trazado_662538" class="st2" d="M172.4,204.1l-1.3,2.9c-0.1,0.3-0.5,0.5-0.8,0.4l-3.4-0.5c-0.4-0.1-0.7-0.4-0.6-0.9
			c0-0.1,0-0.1,0.1-0.2l1.3-2.9c0.1-0.3,0.5-0.5,0.8-0.4l3.4,0.5c0.4,0.1,0.7,0.4,0.6,0.8l0,0C172.4,203.9,172.4,204,172.4,204.1"/>
		<path id="Trazado_662539" class="st2" d="M171.7,219.7l-1.3,2.9c-0.1,0.3-0.5,0.5-0.8,0.4l-3.4-0.5c-0.4-0.1-0.7-0.4-0.6-0.9
			c0-0.1,0-0.1,0.1-0.2l1.3-2.9c0.1-0.3,0.5-0.5,0.8-0.4l3.4,0.5c0.4,0.1,0.7,0.4,0.6,0.8l0,0C171.8,219.5,171.8,219.6,171.7,219.7"
			/>
		<path id="Trazado_662540" class="st2" d="M170.7,193.4l-1.3,2.9c-0.1,0.3-0.5,0.5-0.8,0.4l-3.4-0.5c-0.4-0.1-0.7-0.4-0.6-0.9
			c0-0.1,0-0.1,0.1-0.2l1.3-2.9c0.1-0.3,0.5-0.5,0.8-0.4l3.4,0.5c0.4,0.1,0.7,0.4,0.6,0.8l0,0C170.8,193.2,170.8,193.3,170.7,193.4"
			/>
		<path id="Trazado_662541" class="st2" d="M170.1,209l-1.3,2.9c-0.1,0.3-0.5,0.5-0.8,0.4l-3.4-0.5c-0.4-0.1-0.7-0.4-0.6-0.8l0,0
			c0-0.1,0-0.1,0.1-0.2l1.3-2.9c0.1-0.3,0.5-0.5,0.8-0.4l3.4,0.5c0.4,0.1,0.7,0.4,0.6,0.8l0,0C170.1,208.8,170.1,208.9,170.1,209"/>
		<path id="Trazado_662542" class="st2" d="M169.4,224.5l-1.3,2.9c-0.1,0.3-0.5,0.5-0.8,0.4l-3.4-0.5c-0.4-0.1-0.7-0.4-0.6-0.9
			c0-0.1,0-0.1,0.1-0.2l1.3-2.9c0.1-0.3,0.5-0.5,0.8-0.4l3.4,0.5c0.4,0.1,0.7,0.4,0.6,0.8l0,0C169.5,224.4,169.5,224.5,169.4,224.5"
			/>
		<path id="Trazado_662543" class="st2" d="M168.5,198.2l-1.3,2.9c-0.1,0.3-0.5,0.5-0.8,0.4L163,201c-0.4-0.1-0.7-0.4-0.6-0.9
			c0-0.1,0-0.1,0.1-0.2l1.3-2.9c0.1-0.3,0.5-0.5,0.8-0.4l3.4,0.5c0.4,0.1,0.7,0.4,0.6,0.8l0,0C168.5,198.1,168.5,198.2,168.5,198.2"
			/>
		<path id="Trazado_662544" class="st2" d="M167.8,213.8l-1.3,2.9c-0.1,0.3-0.5,0.5-0.8,0.4l-3.4-0.5c-0.4-0.1-0.7-0.4-0.6-0.9
			c0-0.1,0-0.1,0.1-0.2l1.3-2.9c0.1-0.3,0.5-0.5,0.8-0.4l3.4,0.5c0.4,0.1,0.7,0.4,0.6,0.8l0,0C167.9,213.7,167.8,213.8,167.8,213.8"
			/>
		<path id="Trazado_662545" class="st2" d="M167.2,229.4l-1.3,2.9c-0.1,0.3-0.5,0.5-0.8,0.4l-3.4-0.5c-0.4-0.1-0.7-0.4-0.6-0.9
			c0-0.1,0-0.1,0.1-0.2l1.3-2.9c0.1-0.3,0.5-0.5,0.8-0.4l3.4,0.5c0.4,0.1,0.7,0.4,0.6,0.8l0,0C167.2,229.3,167.2,229.4,167.2,229.4"
			/>
		<path id="Trazado_662546" class="st2" d="M166.8,187.5l-1.3,2.9c-0.1,0.3-0.5,0.5-0.8,0.4l-3.4-0.5c-0.4-0.1-0.7-0.4-0.6-0.9
			c0-0.1,0-0.1,0.1-0.2l1.3-2.9c0.1-0.3,0.5-0.5,0.8-0.4l3.4,0.5c0.4,0.1,0.7,0.4,0.6,0.9C166.9,187.4,166.9,187.5,166.8,187.5"/>
		<path id="Trazado_662547" class="st2" d="M166.2,203.1l-1.3,2.9c-0.1,0.3-0.5,0.5-0.8,0.4l-3.4-0.5c-0.4-0.1-0.7-0.4-0.6-0.8l0,0
			c0-0.1,0-0.1,0.1-0.2l1.3-2.9c0.1-0.3,0.5-0.5,0.8-0.4l3.4,0.5c0.4,0.1,0.7,0.4,0.6,0.8l0,0C166.2,203,166.2,203.1,166.2,203.1"/>
		<path id="Trazado_662548" class="st2" d="M165.6,218.7l-1.3,2.9c-0.1,0.3-0.5,0.5-0.8,0.4l-3.4-0.5c-0.4-0.1-0.7-0.4-0.6-0.9
			c0-0.1,0-0.1,0.1-0.2l1.3-2.9c0.1-0.3,0.5-0.5,0.8-0.4l3.4,0.5c0.4,0.1,0.7,0.4,0.6,0.8l0,0C165.6,218.6,165.6,218.7,165.6,218.7"
			/>
		<path id="Trazado_662549" class="st2" d="M164.6,192.4l-1.3,2.9c-0.1,0.3-0.5,0.5-0.8,0.4l-3.4-0.5c-0.4-0.1-0.7-0.4-0.6-0.9
			c0-0.1,0-0.1,0.1-0.2l1.3-2.9c0.1-0.3,0.5-0.5,0.8-0.4l3.4,0.5c0.4,0.1,0.7,0.4,0.6,0.8l0,0C164.6,192.3,164.6,192.3,164.6,192.4"
			/>
		<path id="Trazado_662550" class="st2" d="M163.9,208l-1.3,2.9c-0.1,0.3-0.5,0.5-0.8,0.4l-3.4-0.5c-0.4-0.1-0.7-0.4-0.6-0.8l0,0
			c0-0.1,0-0.1,0.1-0.2l1.3-2.9c0.1-0.3,0.5-0.5,0.8-0.4l3.4,0.5c0.4,0.1,0.7,0.4,0.6,0.8l0,0C164,207.9,164,208,163.9,208"/>
		<path id="Trazado_662551" class="st2" d="M163.3,223.6l-1.3,2.9c-0.1,0.3-0.5,0.5-0.8,0.4l-3.4-0.5c-0.4-0.1-0.7-0.4-0.6-0.9
			c0-0.1,0-0.1,0.1-0.2l1.3-2.9c0.1-0.3,0.5-0.5,0.8-0.4l3.4,0.5c0.4,0.1,0.7,0.4,0.6,0.8l0,0C163.4,223.4,163.3,223.5,163.3,223.6"
			/>
		<path id="Trazado_662552" class="st2" d="M162.3,197.3l-1.3,2.9c-0.1,0.3-0.5,0.5-0.8,0.4l-3.4-0.5c-0.4-0.1-0.7-0.4-0.6-0.9
			c0-0.1,0-0.1,0.1-0.2l1.3-2.9c0.1-0.3,0.5-0.5,0.8-0.4l3.4,0.5c0.4,0.1,0.7,0.4,0.6,0.8l0,0C162.4,197.1,162.3,197.2,162.3,197.3"
			/>
		<path id="Trazado_662553" class="st2" d="M161.7,212.9l-1.3,2.9c-0.1,0.3-0.5,0.5-0.8,0.4l-3.4-0.5c-0.4-0.1-0.7-0.4-0.6-0.9
			c0-0.1,0-0.1,0.1-0.2l1.3-2.9c0.1-0.3,0.5-0.5,0.8-0.4l3.4,0.5c0.4,0.1,0.7,0.4,0.6,0.8l0,0C161.7,212.7,161.7,212.8,161.7,212.9"
			/>
		<path id="Trazado_662554" class="st2" d="M161,228.5l-1.3,2.9c-0.1,0.3-0.5,0.5-0.8,0.4l-3.4-0.5c-0.4-0.1-0.7-0.4-0.6-0.9
			c0-0.1,0-0.1,0.1-0.2l1.3-2.9c0.1-0.3,0.5-0.5,0.8-0.4l3.4,0.5c0.4,0.1,0.7,0.4,0.6,0.8l0,0C161.1,228.3,161.1,228.4,161,228.5"/>
		<path id="Trazado_662555" class="st2" d="M160,202.2l-1.3,2.9c-0.1,0.3-0.5,0.5-0.8,0.4l-3.4-0.5c-0.4-0.1-0.7-0.4-0.6-0.9
			c0-0.1,0-0.1,0.1-0.2l1.3-2.9c0.1-0.3,0.5-0.5,0.8-0.4l3.4,0.5c0.4,0.1,0.7,0.4,0.6,0.8l0,0C160.1,202.1,160,202.1,160,202.2"/>
		<path id="Trazado_662556" class="st2" d="M159.4,217.8l-1.3,2.9c-0.1,0.3-0.5,0.5-0.8,0.4l-3.4-0.5c-0.4-0.1-0.7-0.4-0.6-0.9
			c0-0.1,0-0.1,0.1-0.2l1.3-2.9c0.1-0.3,0.5-0.5,0.8-0.4l3.4,0.5c0.4,0.1,0.7,0.4,0.6,0.8l0,0C159.4,217.6,159.4,217.7,159.4,217.8"
			/>
		<path id="Trazado_662557" class="st2" d="M157.8,207l-1.3,2.9c-0.1,0.3-0.5,0.5-0.8,0.4l-3.4-0.5c-0.4-0.1-0.7-0.4-0.6-0.9
			c0-0.1,0-0.1,0.1-0.2l1.3-2.9c0.1-0.3,0.5-0.5,0.8-0.4l3.4,0.5c0.4,0.1,0.7,0.4,0.6,0.8l0,0C157.8,206.9,157.8,207,157.8,207"/>
		<path id="Trazado_662558" class="st13" d="M132.4,197L132.4,197 M132,194.4L132,194.4 M132,194.5L132,194.5 M132,194.5
			c0,0.1,0,0.3,0.1,0.5v0.1l-0.2-0.9c-0.9-5.1-0.9-5.1-1.1-6.2c-0.4-2.3-0.3-2-0.4-2.5c-0.1-0.3-0.1-0.6-0.1-0.8c0-0.5,0-1,0.1-1.4
			c0.1-0.2,19.4-41.9,19.5-42.1c0.1-0.2,0.2-0.4,0.3-0.6l0.1-0.1c0.2,0,0.3,0.4,0.3,0.6l7.3,42.6l-20.4,44
			c-3.1-18.2-4.6-26.9-5.2-30.7l0,0l0,0c-0.1-0.4-0.2-1.3-0.3-1.9C132,194.8,132,194.6,132,194.5"/>
		<path id="Trazado_662559" class="st2" d="M157.1,222.6l-1.3,2.9c-0.1,0.3-0.5,0.5-0.8,0.4l-3.4-0.5c-0.4-0.1-0.7-0.4-0.6-0.9
			c0-0.1,0-0.1,0.1-0.2l1.3-2.9c0.1-0.3,0.5-0.5,0.8-0.4l3.4,0.5c0.4,0.1,0.7,0.4,0.6,0.8l0,0C157.2,222.5,157.2,222.5,157.1,222.6"
			/>
		<path id="Trazado_662560" class="st2" d="M155.5,211.9l-1.3,2.9c-0.1,0.3-0.5,0.5-0.8,0.4l-3.4-0.5c-0.4-0.1-0.7-0.4-0.6-0.9
			c0-0.1,0-0.1,0.1-0.2l1.3-2.9c0.1-0.3,0.5-0.5,0.8-0.4l3.4,0.5c0.4,0.1,0.7,0.4,0.6,0.8l0,0C155.6,211.8,155.5,211.9,155.5,211.9"
			/>
		<path id="Trazado_662561" class="st2" d="M154.9,227.5l-1.3,2.9c-0.1,0.3-0.5,0.5-0.8,0.4l-3.4-0.5c-0.4-0.1-0.7-0.4-0.6-0.8l0,0
			c0-0.1,0-0.1,0.1-0.2l1.3-2.9c0.1-0.3,0.5-0.5,0.8-0.4l3.4,0.5c0.4,0.1,0.7,0.4,0.6,0.8l0,0C154.9,227.4,154.9,227.5,154.9,227.5"
			/>
		<path id="Trazado_662562" class="st2" d="M153.2,216.8l-1.3,2.9c-0.1,0.3-0.5,0.5-0.8,0.4l-3.4-0.5c-0.4-0.1-0.7-0.4-0.6-0.8l0,0
			c0-0.1,0-0.1,0.1-0.2l1.3-2.9c0.1-0.3,0.5-0.5,0.8-0.4l3.4,0.5c0.4,0.1,0.7,0.4,0.6,0.8l0,0C153.3,216.7,153.3,216.7,153.2,216.8"
			/>
		<path id="Trazado_662563" class="st2" d="M151,221.7l-1.3,2.9c-0.1,0.3-0.5,0.5-0.8,0.4l-3.4-0.5c-0.4-0.1-0.7-0.4-0.6-0.8l0,0
			c0-0.1,0-0.1,0.1-0.2l1.3-2.9c0.1-0.3,0.5-0.5,0.8-0.4l3.4,0.5c0.4,0.1,0.7,0.4,0.6,0.8l0,0C151,221.5,151,221.6,151,221.7"/>
		<path id="Trazado_662564" class="st2" d="M148.7,226.6l-1.3,2.9c-0.1,0.3-0.5,0.5-0.8,0.4l-3.4-0.5c-0.4-0.1-0.7-0.4-0.6-0.9
			c0-0.1,0-0.1,0.1-0.2l1.3-2.9c0.1-0.3,0.5-0.5,0.8-0.4l3.4,0.5c0.4,0.1,0.7,0.4,0.6,0.8l0,0C148.8,226.4,148.7,226.5,148.7,226.6"
			/>
		<path id="Trazado_662565" class="st10" d="M146.8,137.2l3.7,0.1c-0.3,0-0.5,0.3-0.8,0.8L130,180.4c-0.2,0.5-0.4,1-0.5,1.6
			c-0.3,1.6-0.3,3.3-0.1,4.9l7.5,43.7c0,0.2,0.1,0.4,0.2,0.6c0.1,0.1,0.2,0.3,0.3,0.3c-1.2,0-2.5-0.1-3.7-0.1l0,0
			c-0.3,0-0.4-0.5-0.4-0.8l-7.5-43.7c-0.1-0.9-0.2-1.8-0.2-2.7c0-1.3,0.2-2.6,0.7-3.8L146,138C146.1,137.6,146.4,137.2,146.8,137.2"
			/>
		<path id="Trazado_662566" class="st12" d="M137.8,229.5c0,0.1-0.1,0.2-0.1,0.3l0,0v1.4c-0.1,0.1-0.2,0.2-0.3,0.2s-0.2-0.1-0.3-0.3
			s-0.1-0.4-0.2-0.6l-7.5-43.7c-0.3-1.6-0.2-3.3,0.1-4.9c0.1-0.5,0.3-1.1,0.5-1.6l19.7-42.3c0.2-0.5,0.5-0.8,0.8-0.8l0,0
			c0.3,0,0.6,0.4,0.9,1.2c0.1,0.3,0.1,0.6,0.2,0.9l7.5,43.7c0,0.2,0.1,0.4,0.1,0.7c-0.1,0.1-0.2,0.2-0.3,0.4L137.8,229.5
			L137.8,229.5z M158.1,183.7l-7.3-42.6c0-0.2-0.1-0.6-0.3-0.6c-0.1,0-0.1,0-0.1,0.1c-0.1,0.2-0.2,0.4-0.3,0.6
			c-0.1,0.2-19.5,41.9-19.5,42.1c-0.1,0.5-0.2,1-0.1,1.4c0,0.3,0.1,0.6,0.1,0.8c0.1,0.5,0,0.2,0.4,2.5c0.2,1.1,0.2,1.1,1.1,6.2
			c0.1,0.4,0.1,0.7,0.2,0.9v0.1v0.1v0.1l0,0v0.1c0,0.1,0,0.1,0,0.2v0.2v0.1c0,0.2,0,0.3,0.1,0.4v0.1c0,0.1,0,0.1,0,0.1v0.1l0,0
			c0.6,3.8,2.2,12.6,5.2,30.7L158.1,183.7L158.1,183.7z"/>
		<path id="Trazado_662584" class="st5" d="M118,239.2c3.6,1.9,5.8,5.6,6,9.6c0,2.9-1.8,4.6-4.6,3.4c-4-1.7-7.1-8-5.7-11.5
			C114.4,239.1,115.9,238.4,118,239.2"/>
		<path id="Trazado_662585" class="st6" d="M115,239.2l3.4-2c0.6-0.3,1.2-0.4,1.8-0.3c3.5,0.4,7.9,6.1,7.2,10.9
			c-0.1,1-0.7,1.9-1.5,2.5c-1.4,0.8-2.2,1.3-3.3,1.9c1-0.8,1.6-2.1,1.5-3.4c-0.2-4-2.5-7.7-6-9.6C117.1,238.7,115.9,238.7,115,239.2
			L115,239.2L115,239.2z"/>
		<path id="Trazado_696835" class="st14" d="M120.2,245.5c-0.5-0.8-1.6-1.1-2.4-0.6l0,0l-4.7,2.7c-7.4,4.2-16.5,4.2-23.9,0
			l-38.9-22.5c-3.3-1.9-5.4-5.4-5.4-9.3c0-3.9,2.1-7.5,5.4-9.4l5.9-3.4l58.5-33.7c1-0.6,1.8-1.4,2.4-2.4c1.8-3.2,0.8-7.2-2.4-9l0,0
			c-0.9-0.5-1.9-0.2-2.4,0.6c-0.5,0.9-0.2,1.9,0.6,2.4l0,0c0.5,0.3,0.8,0.7,1.1,1.1c0.8,1.4,0.3,3.3-1.1,4.1l-56.4,32.6l0,0
			l-2.4,1.4l-12.6,7.8c-0.5,1.5-0.2,6.4-0.2,8c0,5.1,2.8,9.9,7.2,12.4l38.9,22.5c4.2,2.4,8.9,3.7,13.7,3.7l0,0
			c4.8,0,9.5-1.3,13.7-3.7l4.7-2.7c0,0,0,0,0.1,0C120.4,247.4,120.6,246.3,120.2,245.5C120.1,245.5,120.1,245.4,120.2,245.5
			L120.2,245.5z"/>
		<g id="Grupo_972552" transform="translate(64.039 -14.849)">
			<path id="Trazado_662483" class="st15" d="M46.7,129.9V128c-8.6,4.9-20.3,6.3-30.2,5.1v3.4C26.3,137.3,38.3,135.5,46.7,129.9"/>
			<path id="Trazado_662484" class="st15" d="M46.7,115v-1.9c-8.7,4.8-20.4,6.3-30.2,5.1v3.5C26.4,122.4,38.3,120.6,46.7,115"/>
			<path id="Trazado_662485" class="st16" d="M46.6,145.9c-6.6,4.4-17.2,7.6-30.2,6.6v3.4c13.3,1.5,25.3-1.7,32.4-6.4L46.6,145.9z"
				/>
			<path id="Trazado_662486" class="st17" d="M45.6,94.6v5.6l2.2,3.6V93.3C47,93.8,46.3,94.2,45.6,94.6"/>
			<path id="Trazado_662487" class="st17" d="M45.6,129.9l2.2,3.6v-6.8c-0.7,0.5-1.4,0.9-2.2,1.3V129.9z"/>
			<path id="Trazado_662488" class="st17" d="M45.6,113.1v1.9l2.2,3.6v-6.8C47,112.3,46.3,112.7,45.6,113.1"/>
			<path id="Trazado_662489" class="st17" d="M45.6,142.8v3.1l2.2,3.6v-8C47,142,46.3,142.4,45.6,142.8"/>
			<g id="Grupo_971571" transform="translate(38.634 96.033)" class="st18">
				<g id="Grupo_971570">
					<g>
						<g>
							<defs>
								<rect id="SVGID_1_" x="0" y="0" width="4.5" height="57.9"/>
							</defs>
							<clipPath id="SVGID_00000014623889919208724210000015173958068345520035_">
								<use xlink:href="#SVGID_1_"  style="overflow:visible;"/>
							</clipPath>
							<g id="Grupo_972546" style="clip-path:url(#SVGID_00000014623889919208724210000015173958068345520035_);">
								<g id="Grupo_971569" transform="translate(0 0)">
									<path id="Trazado_662490" class="st20" d="M0,1.7v56.2c1.5-0.5,3-1,4.5-1.7V0C3,0.6,1.5,1.2,0,1.7"/>
								</g>
							</g>
						</g>
					</g>
				</g>
			</g>
			<g id="Grupo_971574" transform="translate(27.787 98.374)" class="st21">
				<g id="Grupo_971573" transform="translate(0)">
					<g>
						<g>
							<defs>
								<rect id="SVGID_00000020377082110295554650000014022881419782491059_" x="0" y="0" width="9" height="57.7"/>
							</defs>
							<clipPath id="SVGID_00000021083358026741843860000012516248212852902302_">
								<use xlink:href="#SVGID_00000020377082110295554650000014022881419782491059_"  style="overflow:visible;"/>
							</clipPath>
							<g id="Grupo_972547" style="clip-path:url(#SVGID_00000021083358026741843860000012516248212852902302_);">
								<g id="Grupo_971572" transform="translate(0 0)">
									<path id="Trazado_662491" class="st20" d="M0,1.5v56.2c3-0.2,6.1-0.8,9-1.5V0C6.1,0.8,3,1.3,0,1.5"/>
								</g>
							</g>
						</g>
					</g>
				</g>
			</g>
			<path id="Trazado_662492" class="st23" d="M48.7,93.3c-6.6,4.6-19,8-32.4,6.4v56.2c13.3,1.5,25.3-1.7,32.4-6.4V93.3z M48.7,92
				c0.7,0,1.3,0.6,1.3,1.3l0,0v56.2c0,0.4-0.2,0.8-0.6,1.1c-7.4,5-19.6,8.2-33.3,6.6c-0.7-0.1-1.2-0.6-1.2-1.3V99.7
				c0-0.7,0.6-1.3,1.3-1.3l0,0c2.2,0.2,4.5,0.4,6.7,0.4c9.6,0,19.1-2.5,24.9-6.6C48.2,92.1,48.5,92,48.7,92"/>
			<g id="Grupo_971580" transform="translate(0 77.887)" class="st18">
				<g id="Grupo_971579">
					<g>
						<g>
							<defs>
								<rect id="SVGID_00000102528789647075675560000013348223192913665967_" x="0" y="0" width="4.1" height="90.3"/>
							</defs>
							<clipPath id="SVGID_00000016765044436244091830000008834987524730442412_">
								<use xlink:href="#SVGID_00000102528789647075675560000013348223192913665967_"  style="overflow:visible;"/>
							</clipPath>
							<g id="Grupo_972549" style="clip-path:url(#SVGID_00000016765044436244091830000008834987524730442412_);">
								<g id="Grupo_971578" transform="translate(-0.021)">
									<path id="Trazado_662494" class="st25" d="M0,88.2c1.3,0.8,2.7,1.5,4.1,2.1V2.1C2.7,1.5,1.3,0.8,0,0V88.2L0,88.2z"/>
								</g>
							</g>
						</g>
					</g>
				</g>
			</g>
			<path id="Trazado_662589" class="st26" d="M3.3,35.6L61,0.2c0.3-0.2,0.7-0.3,1.1-0.1l0.1,0.1l5.4,3.3L63,9.7l-0.2-0.1v124.9
				c0,2.4-1.2,4.7-3.1,6.2L6.9,173.2l3.4,2.6l-3.8,3.9l-5.7-3.4c-0.5-0.4-0.7-1-0.7-1.6V41.8C0.2,39.4,1.4,37.1,3.3,35.6"/>
			<path id="Trazado_662590" class="st27" d="M7.9,179.5l57.5-35.4c1.9-1.5,3-3.8,3.1-6.2V5c0-1.4-0.8-2-1.8-1.4L9.1,38.9
				c-1.9,1.5-3,3.8-3.1,6.2V178C6.1,179.5,6.9,180.1,7.9,179.5"/>
			<path id="Trazado_662591" class="st28" d="M7.9,178.8l57.5-35.4c1.9-1.5,3-3.8,3.1-6.2v0.7c0,2.4-1.1,4.7-3.1,6.2L7.9,179.5
				c-1,0.6-1.8,0-1.8-1.4v-0.7C6.1,178.8,6.9,179.4,7.9,178.8"/>
			<path id="Trazado_662592" class="st29" d="M28.7,28.9c0,0.8,0.6,1.1,1.3,0.8c0.8-0.5,1.2-1.3,1.3-2.2c0-0.8-0.6-1.1-1.3-0.8
				C29.2,27.2,28.7,28,28.7,28.9"/>
			<path id="Trazado_662593" class="st29" d="M33.8,26.1l12.8-7.4c0.3-0.2,0.5-0.5,0.5-0.9c0-0.3-0.2-0.5-0.5-0.3l-12.8,7.4
				c-0.3,0.2-0.5,0.5-0.5,0.9C33.3,26.1,33.6,26.3,33.8,26.1"/>
			<path id="Trazado_662594" class="st29" d="M7.8,175l58.3-35.9c1.4-1.1,2.3-2.9,2.3-4.7V9.5c0-1.4-0.8-2-1.7-1.4L8.4,44
				c-1.4,1.1-2.3,2.9-2.3,4.7v124.9C6.1,175,6.8,175.6,7.8,175"/>
			<g id="Grupo_971594" transform="translate(6.083 3.319)" class="st30">
				<g id="Grupo_971593">
					<g>
						<g>
							<defs>
								<rect id="SVGID_00000029756157951129590610000007883640698388757936_" x="0" y="0" width="62.3" height="44"/>
							</defs>
							<clipPath id="SVGID_00000133491899365868078530000013281711882772800664_">
								<use xlink:href="#SVGID_00000029756157951129590610000007883640698388757936_"  style="overflow:visible;"/>
							</clipPath>
							<g id="Grupo_972551" style="clip-path:url(#SVGID_00000133491899365868078530000013281711882772800664_);">
								<g id="Grupo_971592" transform="translate(0 0.003)">
									<path id="Trazado_662595" class="st32" d="M3.1,35.6L60.5,0.2c1-0.6,1.8,0,1.8,1.4v2.2c0-1.4-0.8-2-1.8-1.4L3.1,37.8
										C1.1,39.3,0,41.6,0,44v-2.2C0,39.4,1.1,37.1,3.1,35.6"/>
								</g>
							</g>
						</g>
					</g>
				</g>
			</g>
			<path id="Trazado_662596" class="st33" d="M3.2,80.8l0.2,0.1c0.6,0.4,1.2,0,1.2-0.9V63.5c0-0.9-0.4-1.7-1.2-2.2l-0.2-0.1
				c-0.6-0.4-1.2,0-1.2,0.9v16.6C2,79.5,2.4,80.3,3.2,80.8"/>
			<path id="Trazado_662597" class="st33" d="M3.2,94.8l0.2,0.1c0.6,0.4,1.2,0,1.2-0.9v-7.8c0-0.9-0.4-1.7-1.2-2.2l-0.2-0.1
				C2.5,83.6,2,84,2,84.8v7.8C2,93.5,2.4,94.3,3.2,94.8"/>
			<path id="Trazado_662598" class="st34" d="M2.6,80.8l0.2,0.1C3.4,81.3,4,80.9,4,80V63.5c0-0.9-0.4-1.7-1.2-2.2l-0.2-0.1
				c-0.6-0.4-1.2,0-1.2,0.9v16.6C1.5,79.5,1.9,80.3,2.6,80.8"/>
			<path id="Trazado_662599" class="st34" d="M2.6,94.8l0.2,0.1C3.4,95.3,4,94.9,4,94v-7.8c0-0.9-0.4-1.7-1.2-2.2l-0.2-0.1
				c-0.6-0.4-1.2,0-1.2,0.9v7.8C1.5,93.5,1.9,94.3,2.6,94.8"/>
			<path id="Trazado_662600" class="st29" d="M12.8,31c-0.5,0.2-0.8,0.8-0.6,1.3c0.1,0.3,0.3,0.5,0.6,0.6c1,0.5,2.3,0.5,3.3,0
				c0.5-0.2,0.8-0.8,0.6-1.3c-0.1-0.3-0.3-0.5-0.6-0.6C15.1,30.4,13.8,30.4,12.8,31"/>
			<path id="Trazado_662601" class="st35" d="M13.3,31.3c-0.4,0.1-0.5,0.5-0.4,0.8l0,0c0.1,0.2,0.2,0.4,0.4,0.4
				c0.7,0.4,1.5,0.4,2.2,0c0.4-0.1,0.5-0.5,0.4-0.8l0,0c-0.1-0.2-0.2-0.4-0.4-0.4C14.8,31,14,31,13.3,31.3"/>
			<path id="Trazado_662602" class="st35" d="M16.1,31.4c-1-0.5-2.3-0.5-3.3,0c-0.3,0.1-0.5,0.4-0.6,0.7c-0.1-0.4,0.1-0.9,0.6-1.2
				c1-0.5,2.3-0.5,3.3,0c0.5,0.2,0.8,0.7,0.6,1.2C16.6,31.8,16.4,31.6,16.1,31.4"/>
			<path id="Trazado_662603" class="st36" d="M8,159.6l59-36.4V30.6L8,67V159.6z"/>
			<path id="Trazado_662604" class="st37" d="M8,159.6l59-36.4v-2L8,157.5V159.6z"/>
			<path id="Trazado_662605" class="st38" d="M10.8,154.5l53.4-33.2v-86L10.8,68.5V154.5z"/>
			<path id="Trazado_662606" class="st39" d="M37.2,36.9c2.7-1.6,4.9-0.3,4.9,2.8c-0.2,3.5-2,6.6-4.9,8.5c-2.7,1.6-4.9,0.3-4.9-2.8
				C32.5,42,34.3,38.8,37.2,36.9 M37.2,43.5c1.3-0.9,2.2-2.3,2.3-3.9c0-1.4-1-2-2.3-1.3c-1.3,0.9-2.2,2.3-2.3,3.9
				C35,43.6,36,44.2,37.2,43.5"/>
			<path id="Trazado_662609" class="st36" d="M10.7,92.2L60,63.7v-1.4L10.7,90.8V92.2z"/>
			<path id="Trazado_662610" class="st36" d="M13.1,95.7l37-21.3V73l-37,21.3C13.1,94.3,13.1,95.7,13.1,95.7z"/>
			<path id="Trazado_662611" class="st36" d="M10.7,99.3L60,70.8v-1.4L10.7,97.9V99.3z"/>
			<path id="Trazado_662612" class="st36" d="M10.7,102.8L60,74.3v-1.4l-49.3,28.5C10.7,101.4,10.7,102.8,10.7,102.8z"/>
			<path id="Trazado_662613" class="st36" d="M10.7,106.3L60,77.8v-1.4l-49.3,28.5C10.7,104.9,10.7,106.3,10.7,106.3z"/>
			<path id="Trazado_662614" class="st36" d="M10.7,109.8L60,81.3v-1.4l-49.3,28.5C10.7,108.4,10.7,109.8,10.7,109.8z"/>
			<path id="Trazado_662615" class="st36" d="M13.1,113.3l37-21.3v-1.4l-37,21.3C13.1,111.9,13.1,113.3,13.1,113.3z"/>
			<path id="Trazado_662616" class="st36" d="M10.7,116.8L60,88.3v-1.4l-49.3,28.5C10.7,115.4,10.7,116.8,10.7,116.8z"/>
			<path id="Trazado_662617" class="st36" d="M10.7,120.3L60,91.9v-1.4L10.7,119C10.7,119,10.7,120.3,10.7,120.3z"/>
			<path id="Trazado_662618" class="st36" d="M13.9,147.6l9.6-5.5v-1.4l-9.6,5.5V147.6z"/>
			<path id="Trazado_662619" class="st36" d="M13.9,144.9l9.6-5.5V138l-9.6,5.5V144.9z"/>
			<path id="Trazado_662620" class="st36" d="M13.9,142.2l9.6-5.5v-1.4l-9.6,5.5V142.2z"/>
			<path id="Trazado_662621" class="st36" d="M50.4,119.3l9.6-5.5v-1.4l-9.6,5.5V119.3z"/>
			<path id="Trazado_662622" class="st40" d="M10.7,135.4L59.8,107V96.7L10.7,125C10.7,125,10.7,135.4,10.7,135.4z"/>
		</g>
	</g>
	<g class="st41">
		<path class="st32" d="M602.8,3992h5.4v1.2h-6.9v-11.4h1.5V3992z"/>
		<path class="st32" d="M609.3,3988.9c0-0.8,0.2-1.6,0.5-2.2c0.3-0.7,0.8-1.2,1.4-1.5c0.6-0.4,1.2-0.5,2-0.5c1.2,0,2.1,0.4,2.8,1.2
			s1.1,1.9,1.1,3.2v0.1c0,0.8-0.2,1.6-0.5,2.2c-0.3,0.7-0.8,1.2-1.4,1.5s-1.3,0.5-2,0.5c-1.1,0-2.1-0.4-2.8-1.2s-1.1-1.9-1.1-3.2
			V3988.9z M610.8,3989.1c0,0.9,0.2,1.7,0.7,2.3c0.4,0.6,1,0.9,1.7,0.9c0.7,0,1.3-0.3,1.8-0.9c0.4-0.6,0.6-1.4,0.6-2.4
			c0-0.9-0.2-1.7-0.7-2.3c-0.4-0.6-1-0.9-1.8-0.9c-0.7,0-1.3,0.3-1.7,0.9S610.8,3988.1,610.8,3989.1z"/>
		<path class="st32" d="M623.8,3991c0-0.4-0.1-0.7-0.4-0.9c-0.3-0.2-0.8-0.4-1.5-0.6c-0.7-0.2-1.3-0.3-1.7-0.6s-0.7-0.5-1-0.8
			c-0.2-0.3-0.3-0.7-0.3-1.1c0-0.7,0.3-1.3,0.9-1.8s1.3-0.7,2.2-0.7c1,0,1.7,0.2,2.3,0.7c0.6,0.5,0.9,1.1,0.9,1.9h-1.5
			c0-0.4-0.2-0.7-0.5-1s-0.8-0.4-1.3-0.4c-0.5,0-0.9,0.1-1.2,0.3s-0.4,0.5-0.4,0.9c0,0.3,0.1,0.6,0.4,0.8c0.3,0.2,0.8,0.3,1.5,0.5
			c0.7,0.2,1.3,0.4,1.8,0.6c0.4,0.2,0.8,0.5,1,0.8c0.2,0.3,0.3,0.7,0.3,1.2c0,0.8-0.3,1.4-0.9,1.8c-0.6,0.5-1.4,0.7-2.4,0.7
			c-0.7,0-1.3-0.1-1.8-0.4c-0.5-0.2-0.9-0.6-1.2-1c-0.3-0.4-0.4-0.9-0.4-1.4h1.4c0,0.5,0.2,0.9,0.6,1.2c0.4,0.3,0.8,0.4,1.4,0.4
			c0.5,0,1-0.1,1.3-0.3C623.6,3991.7,623.8,3991.4,623.8,3991z"/>
		<path class="st32" d="M630.7,3988.9c0-0.8,0.2-1.6,0.5-2.2c0.3-0.7,0.8-1.2,1.4-1.5c0.6-0.4,1.2-0.5,2-0.5c1.2,0,2.1,0.4,2.8,1.2
			s1.1,1.9,1.1,3.2v0.1c0,0.8-0.2,1.6-0.5,2.2c-0.3,0.7-0.8,1.2-1.4,1.5s-1.3,0.5-2,0.5c-1.1,0-2.1-0.4-2.8-1.2s-1.1-1.9-1.1-3.2
			V3988.9z M632.1,3989.1c0,0.9,0.2,1.7,0.7,2.3c0.4,0.6,1,0.9,1.7,0.9c0.7,0,1.3-0.3,1.8-0.9c0.4-0.6,0.6-1.4,0.6-2.4
			c0-0.9-0.2-1.7-0.7-2.3c-0.4-0.6-1-0.9-1.8-0.9c-0.7,0-1.3,0.3-1.7,0.9S632.1,3988.1,632.1,3989.1z"/>
		<path class="st32" d="M647.3,3989.1c0,1.3-0.3,2.3-0.9,3.1s-1.4,1.2-2.4,1.2c-1.1,0-1.9-0.4-2.5-1.1l-0.1,1h-1.3v-12h1.4v4.5
			c0.6-0.7,1.4-1.1,2.4-1.1c1,0,1.8,0.4,2.4,1.2s0.9,1.8,0.9,3.2V3989.1z M645.9,3989c0-1-0.2-1.7-0.6-2.3c-0.4-0.5-0.9-0.8-1.6-0.8
			c-1,0-1.6,0.4-2.1,1.3v3.7c0.4,0.9,1.1,1.3,2.1,1.3c0.7,0,1.2-0.3,1.6-0.8C645.7,3990.8,645.9,3990,645.9,3989z"/>
		<path class="st32" d="M650.6,3984.8v9.4c0,1.6-0.7,2.4-2.2,2.4c-0.3,0-0.6,0-0.9-0.1v-1.1c0.2,0,0.4,0.1,0.7,0.1
			c0.3,0,0.6-0.1,0.7-0.3c0.2-0.2,0.3-0.5,0.3-0.9v-9.5H650.6z M649,3982.6c0-0.2,0.1-0.4,0.2-0.6c0.1-0.2,0.4-0.2,0.6-0.2
			c0.3,0,0.5,0.1,0.6,0.2c0.1,0.2,0.2,0.4,0.2,0.6s-0.1,0.4-0.2,0.6c-0.1,0.2-0.4,0.2-0.6,0.2s-0.5-0.1-0.6-0.2
			S649,3982.8,649,3982.6z"/>
		<path class="st32" d="M656.5,3993.4c-1.1,0-2.1-0.4-2.8-1.1s-1.1-1.8-1.1-3v-0.3c0-0.8,0.2-1.6,0.5-2.2s0.8-1.2,1.3-1.5
			c0.6-0.4,1.2-0.6,1.9-0.6c1.1,0,2,0.4,2.6,1.1s0.9,1.8,0.9,3.1v0.6H654c0,0.8,0.3,1.5,0.7,2c0.5,0.5,1.1,0.8,1.8,0.8
			c0.5,0,0.9-0.1,1.3-0.3c0.4-0.2,0.7-0.5,0.9-0.8l0.9,0.7C658.9,3992.9,657.9,3993.4,656.5,3993.4z M656.3,3985.8
			c-0.6,0-1.1,0.2-1.5,0.6c-0.4,0.4-0.6,1-0.7,1.8h4.2v-0.1c0-0.7-0.2-1.3-0.6-1.7C657.4,3986,656.9,3985.8,656.3,3985.8z"/>
		<path class="st32" d="M663.4,3982.8v2h1.6v1.1h-1.6v5.2c0,0.3,0.1,0.6,0.2,0.8c0.1,0.2,0.4,0.3,0.7,0.3c0.2,0,0.4,0,0.7-0.1v1.2
			c-0.4,0.1-0.8,0.2-1.1,0.2c-0.6,0-1.1-0.2-1.5-0.6s-0.5-0.9-0.5-1.7v-5.2h-1.5v-1.1h1.5v-2H663.4z"/>
		<path class="st32" d="M666.1,3988.9c0-0.8,0.2-1.6,0.5-2.2c0.3-0.7,0.8-1.2,1.4-1.5c0.6-0.4,1.2-0.5,2-0.5c1.2,0,2.1,0.4,2.8,1.2
			s1.1,1.9,1.1,3.2v0.1c0,0.8-0.2,1.6-0.5,2.2c-0.3,0.7-0.8,1.2-1.4,1.5s-1.3,0.5-2,0.5c-1.1,0-2.1-0.4-2.8-1.2s-1.1-1.9-1.1-3.2
			V3988.9z M667.6,3989.1c0,0.9,0.2,1.7,0.7,2.3c0.4,0.6,1,0.9,1.7,0.9c0.7,0,1.3-0.3,1.8-0.9c0.4-0.6,0.6-1.4,0.6-2.4
			c0-0.9-0.2-1.7-0.7-2.3c-0.4-0.6-1-0.9-1.8-0.9c-0.7,0-1.3,0.3-1.7,0.9S667.6,3988.1,667.6,3989.1z"/>
		<path class="st32" d="M680.6,3991c0-0.4-0.1-0.7-0.4-0.9c-0.3-0.2-0.8-0.4-1.5-0.6c-0.7-0.2-1.3-0.3-1.7-0.6s-0.7-0.5-1-0.8
			c-0.2-0.3-0.3-0.7-0.3-1.1c0-0.7,0.3-1.3,0.9-1.8s1.3-0.7,2.2-0.7c1,0,1.7,0.2,2.3,0.7c0.6,0.5,0.9,1.1,0.9,1.9h-1.5
			c0-0.4-0.2-0.7-0.5-1s-0.8-0.4-1.3-0.4c-0.5,0-0.9,0.1-1.2,0.3s-0.4,0.5-0.4,0.9c0,0.3,0.1,0.6,0.4,0.8c0.3,0.2,0.8,0.3,1.5,0.5
			c0.7,0.2,1.3,0.4,1.8,0.6c0.4,0.2,0.8,0.5,1,0.8c0.2,0.3,0.3,0.7,0.3,1.2c0,0.8-0.3,1.4-0.9,1.8c-0.6,0.5-1.4,0.7-2.4,0.7
			c-0.7,0-1.3-0.1-1.8-0.4c-0.5-0.2-0.9-0.6-1.2-1c-0.3-0.4-0.4-0.9-0.4-1.4h1.4c0,0.5,0.2,0.9,0.6,1.2c0.4,0.3,0.8,0.4,1.4,0.4
			c0.5,0,1-0.1,1.3-0.3C680.4,3991.7,680.6,3991.4,680.6,3991z"/>
		<path class="st32" d="M687.5,3989c0-1.3,0.3-2.3,0.9-3.1c0.6-0.8,1.4-1.2,2.4-1.2c1,0,1.8,0.3,2.4,1v-4.4h1.4v12h-1.3l-0.1-0.9
			c-0.6,0.7-1.4,1.1-2.4,1.1c-1,0-1.8-0.4-2.4-1.2s-0.9-1.8-0.9-3.1V3989z M688.9,3989.1c0,1,0.2,1.7,0.6,2.2
			c0.4,0.5,0.9,0.8,1.6,0.8c0.9,0,1.6-0.4,2-1.2v-3.9c-0.4-0.8-1.1-1.2-2-1.2c-0.7,0-1.3,0.3-1.7,0.8
			C689.1,3987.2,688.9,3988,688.9,3989.1z"/>
		<path class="st32" d="M696.9,3982.6c0-0.2,0.1-0.4,0.2-0.6c0.1-0.2,0.4-0.2,0.6-0.2s0.5,0.1,0.6,0.2c0.1,0.2,0.2,0.4,0.2,0.6
			s-0.1,0.4-0.2,0.6c-0.1,0.2-0.4,0.2-0.6,0.2s-0.5-0.1-0.6-0.2C696.9,3983,696.9,3982.8,696.9,3982.6z M698.4,3993.3H697v-8.5h1.4
			V3993.3z"/>
		<path class="st32" d="M705.7,3991c0-0.4-0.1-0.7-0.4-0.9c-0.3-0.2-0.8-0.4-1.5-0.6c-0.7-0.2-1.3-0.3-1.7-0.6s-0.7-0.5-1-0.8
			c-0.2-0.3-0.3-0.7-0.3-1.1c0-0.7,0.3-1.3,0.9-1.8s1.3-0.7,2.2-0.7c1,0,1.7,0.2,2.3,0.7c0.6,0.5,0.9,1.1,0.9,1.9h-1.5
			c0-0.4-0.2-0.7-0.5-1s-0.8-0.4-1.3-0.4c-0.5,0-0.9,0.1-1.2,0.3s-0.4,0.5-0.4,0.9c0,0.3,0.1,0.6,0.4,0.8c0.3,0.2,0.8,0.3,1.5,0.5
			c0.7,0.2,1.3,0.4,1.8,0.6c0.4,0.2,0.8,0.5,1,0.8c0.2,0.3,0.3,0.7,0.3,1.2c0,0.8-0.3,1.4-0.9,1.8c-0.6,0.5-1.4,0.7-2.4,0.7
			c-0.7,0-1.3-0.1-1.8-0.4c-0.5-0.2-0.9-0.6-1.2-1c-0.3-0.4-0.4-0.9-0.4-1.4h1.4c0,0.5,0.2,0.9,0.6,1.2c0.4,0.3,0.8,0.4,1.4,0.4
			c0.5,0,1-0.1,1.3-0.3C705.5,3991.7,705.7,3991.4,705.7,3991z"/>
		<path class="st32" d="M716.1,3989.1c0,1.3-0.3,2.3-0.9,3.1c-0.6,0.8-1.4,1.2-2.4,1.2c-1,0-1.8-0.3-2.4-1v4.1H709v-11.7h1.3
			l0.1,0.9c0.6-0.7,1.4-1.1,2.5-1.1c1,0,1.8,0.4,2.4,1.1c0.6,0.8,0.9,1.8,0.9,3.2V3989.1z M714.7,3989c0-1-0.2-1.7-0.6-2.3
			s-1-0.8-1.7-0.8c-0.9,0-1.5,0.4-2,1.2v4c0.4,0.8,1.1,1.2,2,1.2c0.7,0,1.2-0.3,1.7-0.8C714.5,3990.9,714.7,3990,714.7,3989z"/>
		<path class="st32" d="M717.6,3988.9c0-0.8,0.2-1.6,0.5-2.2c0.3-0.7,0.8-1.2,1.4-1.5c0.6-0.4,1.2-0.5,2-0.5c1.2,0,2.1,0.4,2.8,1.2
			s1.1,1.9,1.1,3.2v0.1c0,0.8-0.2,1.6-0.5,2.2c-0.3,0.7-0.8,1.2-1.4,1.5s-1.3,0.5-2,0.5c-1.1,0-2.1-0.4-2.8-1.2s-1.1-1.9-1.1-3.2
			V3988.9z M719,3989.1c0,0.9,0.2,1.7,0.7,2.3c0.4,0.6,1,0.9,1.7,0.9c0.7,0,1.3-0.3,1.8-0.9c0.4-0.6,0.6-1.4,0.6-2.4
			c0-0.9-0.2-1.7-0.7-2.3c-0.4-0.6-1-0.9-1.8-0.9c-0.7,0-1.3,0.3-1.7,0.9S719,3988.1,719,3989.1z"/>
		<path class="st32" d="M728.5,3984.8l0,1.1c0.6-0.8,1.5-1.2,2.5-1.2c1.8,0,2.7,1,2.7,3v5.6h-1.4v-5.6c0-0.6-0.1-1.1-0.4-1.4
			s-0.7-0.4-1.3-0.4c-0.5,0-0.9,0.1-1.2,0.4c-0.4,0.2-0.6,0.6-0.8,1v6h-1.4v-8.5H728.5z"/>
		<path class="st32" d="M735.9,3982.6c0-0.2,0.1-0.4,0.2-0.6c0.1-0.2,0.4-0.2,0.6-0.2s0.5,0.1,0.6,0.2c0.1,0.2,0.2,0.4,0.2,0.6
			s-0.1,0.4-0.2,0.6c-0.1,0.2-0.4,0.2-0.6,0.2s-0.5-0.1-0.6-0.2C736,3983,735.9,3982.8,735.9,3982.6z M737.5,3993.3h-1.4v-8.5h1.4
			V3993.3z"/>
		<path class="st32" d="M747,3989.1c0,1.3-0.3,2.3-0.9,3.1s-1.4,1.2-2.4,1.2c-1.1,0-1.9-0.4-2.5-1.1l-0.1,1h-1.3v-12h1.4v4.5
			c0.6-0.7,1.4-1.1,2.4-1.1c1,0,1.8,0.4,2.4,1.2s0.9,1.8,0.9,3.2V3989.1z M745.5,3989c0-1-0.2-1.7-0.6-2.3c-0.4-0.5-0.9-0.8-1.6-0.8
			c-1,0-1.6,0.4-2.1,1.3v3.7c0.4,0.9,1.1,1.3,2.1,1.3c0.7,0,1.2-0.3,1.6-0.8C745.3,3990.8,745.5,3990,745.5,3989z"/>
		<path class="st32" d="M750.4,3993.3h-1.4v-12h1.4V3993.3z"/>
		<path class="st32" d="M756.2,3993.4c-1.1,0-2.1-0.4-2.8-1.1s-1.1-1.8-1.1-3v-0.3c0-0.8,0.2-1.6,0.5-2.2s0.8-1.2,1.3-1.5
			c0.6-0.4,1.2-0.6,1.9-0.6c1.1,0,2,0.4,2.6,1.1s0.9,1.8,0.9,3.1v0.6h-5.7c0,0.8,0.3,1.5,0.7,2c0.5,0.5,1.1,0.8,1.8,0.8
			c0.5,0,0.9-0.1,1.3-0.3c0.4-0.2,0.7-0.5,0.9-0.8l0.9,0.7C758.7,3992.9,757.6,3993.4,756.2,3993.4z M756,3985.8
			c-0.6,0-1.1,0.2-1.5,0.6c-0.4,0.4-0.6,1-0.7,1.8h4.2v-0.1c0-0.7-0.2-1.3-0.6-1.7C757.1,3986,756.6,3985.8,756,3985.8z"/>
		<path class="st32" d="M766.1,3991c0-0.4-0.1-0.7-0.4-0.9c-0.3-0.2-0.8-0.4-1.5-0.6c-0.7-0.2-1.3-0.3-1.7-0.6s-0.7-0.5-1-0.8
			c-0.2-0.3-0.3-0.7-0.3-1.1c0-0.7,0.3-1.3,0.9-1.8s1.3-0.7,2.2-0.7c1,0,1.7,0.2,2.3,0.7c0.6,0.5,0.9,1.1,0.9,1.9H766
			c0-0.4-0.2-0.7-0.5-1s-0.8-0.4-1.3-0.4c-0.5,0-0.9,0.1-1.2,0.3s-0.4,0.5-0.4,0.9c0,0.3,0.1,0.6,0.4,0.8c0.3,0.2,0.8,0.3,1.5,0.5
			c0.7,0.2,1.3,0.4,1.8,0.6c0.4,0.2,0.8,0.5,1,0.8c0.2,0.3,0.3,0.7,0.3,1.2c0,0.8-0.3,1.4-0.9,1.8c-0.6,0.5-1.4,0.7-2.4,0.7
			c-0.7,0-1.3-0.1-1.8-0.4c-0.5-0.2-0.9-0.6-1.2-1c-0.3-0.4-0.4-0.9-0.4-1.4h1.4c0,0.5,0.2,0.9,0.6,1.2c0.4,0.3,0.8,0.4,1.4,0.4
			c0.5,0,1-0.1,1.3-0.3C765.9,3991.7,766.1,3991.4,766.1,3991z"/>
		<path class="st32" d="M776.9,3993.4c-1.1,0-2.1-0.4-2.8-1.1s-1.1-1.8-1.1-3v-0.3c0-0.8,0.2-1.6,0.5-2.2s0.8-1.2,1.3-1.5
			c0.6-0.4,1.2-0.6,1.9-0.6c1.1,0,2,0.4,2.6,1.1s0.9,1.8,0.9,3.1v0.6h-5.7c0,0.8,0.3,1.5,0.7,2c0.5,0.5,1.1,0.8,1.8,0.8
			c0.5,0,0.9-0.1,1.3-0.3c0.4-0.2,0.7-0.5,0.9-0.8l0.9,0.7C779.3,3992.9,778.3,3993.4,776.9,3993.4z M776.7,3985.8
			c-0.6,0-1.1,0.2-1.5,0.6c-0.4,0.4-0.6,1-0.7,1.8h4.2v-0.1c0-0.7-0.2-1.3-0.6-1.7C777.8,3986,777.3,3985.8,776.7,3985.8z"/>
		<path class="st32" d="M783.2,3984.8l0,1.1c0.6-0.8,1.5-1.2,2.5-1.2c1.8,0,2.7,1,2.7,3v5.6H787v-5.6c0-0.6-0.1-1.1-0.4-1.4
			s-0.7-0.4-1.3-0.4c-0.5,0-0.9,0.1-1.2,0.4c-0.4,0.2-0.6,0.6-0.8,1v6h-1.4v-8.5H783.2z"/>
	</g>
	<g class="st41">
		<path class="st32" d="M796.4,3988.8l-0.8,4.5h-1.5l2-11.4l3.8,0c1.2,0,2.1,0.3,2.7,0.9c0.6,0.6,0.9,1.4,0.8,2.5
			c-0.1,1.1-0.5,1.9-1.3,2.6s-1.8,0.9-3.1,0.9L796.4,3988.8z M796.6,3987.6l2.5,0c0.8,0,1.5-0.2,2-0.6c0.5-0.4,0.8-1,0.9-1.7
			c0.1-0.6,0-1.2-0.4-1.6c-0.3-0.4-0.9-0.6-1.5-0.6l-2.7,0L796.6,3987.6z"/>
		<path class="st32" d="M808.4,3984.6c0.7,0,1.3,0.2,1.8,0.6c0.5,0.4,0.9,0.9,1.1,1.6s0.3,1.4,0.2,2.2l0,0.2
			c-0.1,0.8-0.3,1.6-0.7,2.2s-0.9,1.2-1.5,1.6c-0.6,0.4-1.3,0.5-2,0.5c-0.7,0-1.3-0.2-1.8-0.6s-0.9-0.9-1.1-1.5s-0.3-1.4-0.2-2.1
			c0.1-0.9,0.3-1.7,0.7-2.4c0.4-0.7,0.9-1.2,1.5-1.6C807,3984.8,807.7,3984.6,808.4,3984.6z M805.5,3989.2c0,0.3,0,0.7,0,1
			c0.1,0.6,0.2,1.1,0.6,1.5c0.3,0.4,0.7,0.6,1.3,0.6c0.5,0,0.9-0.1,1.3-0.3c0.4-0.2,0.7-0.6,1-1.1c0.3-0.5,0.4-1.1,0.5-1.7
			c0-0.5,0-0.9,0-1.2c-0.1-0.6-0.3-1.1-0.6-1.5c-0.3-0.4-0.7-0.6-1.3-0.6c-0.7,0-1.3,0.3-1.9,0.9c-0.5,0.6-0.8,1.4-0.9,2.3
			L805.5,3989.2z"/>
		<path class="st32" d="M820.2,3991.3l2.7-6.5h1.5l-3.9,8.5h-1.1l-0.9-6.4l-3,6.4h-1.1l-0.9-8.5h1.4l0.5,6.3l3-6.3h1.1L820.2,3991.3
			z"/>
		<path class="st32" d="M828,3993.4c-1.1,0-1.9-0.4-2.5-1.2s-0.8-1.7-0.8-2.9l0-0.3c0.1-0.8,0.3-1.6,0.7-2.3
			c0.4-0.7,0.9-1.2,1.5-1.6c0.6-0.4,1.2-0.5,1.9-0.5c0.9,0,1.6,0.3,2,0.9c0.5,0.6,0.8,1.3,0.8,2.3c0,0.3,0,0.7,0,1l-0.1,0.6h-5.5
			c-0.1,0.8,0,1.4,0.4,2c0.3,0.5,0.9,0.8,1.6,0.8c0.8,0,1.6-0.4,2.3-1.1l0.8,0.7c-0.4,0.5-0.8,0.9-1.4,1.2
			C829.3,3993.3,828.7,3993.4,828,3993.4z M828.9,3985.8c-0.6,0-1.1,0.2-1.5,0.6c-0.4,0.4-0.8,1-1,1.8l4.1,0l0-0.1
			c0.1-0.7,0-1.2-0.3-1.6C829.9,3986.1,829.5,3985.8,828.9,3985.8z"/>
		<path class="st32" d="M837.9,3986.1l-0.7-0.1c-0.9,0-1.6,0.4-2.1,1.2l-1,6h-1.4l1.5-8.5l1.4,0l-0.2,1c0.6-0.8,1.3-1.2,2.1-1.1
			c0.2,0,0.4,0,0.7,0.1L837.9,3986.1z"/>
		<path class="st32" d="M840.5,3988.8l-0.8,4.5h-1.5l2-11.4l3.8,0c1.2,0,2.1,0.3,2.7,0.9c0.6,0.6,0.9,1.4,0.8,2.5
			c-0.1,1.1-0.5,1.9-1.3,2.6s-1.8,0.9-3.1,0.9L840.5,3988.8z M840.7,3987.6l2.5,0c0.8,0,1.5-0.2,2-0.6c0.5-0.4,0.8-1,0.9-1.7
			c0.1-0.6,0-1.2-0.4-1.6c-0.3-0.4-0.9-0.6-1.5-0.6l-2.7,0L840.7,3987.6z"/>
		<path class="st32" d="M852.5,3984.6c0.7,0,1.3,0.2,1.8,0.6c0.5,0.4,0.9,0.9,1.1,1.6s0.3,1.4,0.2,2.2l0,0.2
			c-0.1,0.8-0.3,1.6-0.7,2.2s-0.9,1.2-1.5,1.6c-0.6,0.4-1.3,0.5-2,0.5c-0.7,0-1.3-0.2-1.8-0.6s-0.9-0.9-1.1-1.5s-0.3-1.4-0.2-2.1
			c0.1-0.9,0.3-1.7,0.7-2.4c0.4-0.7,0.9-1.2,1.5-1.6C851,3984.8,851.7,3984.6,852.5,3984.6z M849.6,3989.2c0,0.3,0,0.7,0,1
			c0.1,0.6,0.2,1.1,0.6,1.5c0.3,0.4,0.7,0.6,1.3,0.6c0.5,0,0.9-0.1,1.3-0.3c0.4-0.2,0.7-0.6,1-1.1c0.3-0.5,0.4-1.1,0.5-1.7
			c0-0.5,0-0.9,0-1.2c-0.1-0.6-0.3-1.1-0.6-1.5c-0.3-0.4-0.7-0.6-1.3-0.6c-0.7,0-1.3,0.3-1.9,0.9c-0.5,0.6-0.8,1.4-0.9,2.3
			L849.6,3989.2z"/>
		<path class="st32" d="M858.2,3993.3h-1.4l1.5-8.5h1.4L858.2,3993.3z M859.4,3981.7c0.2,0,0.4,0.1,0.6,0.2c0.2,0.2,0.2,0.4,0.2,0.6
			c0,0.2-0.1,0.4-0.2,0.6c-0.2,0.2-0.4,0.2-0.6,0.2c-0.2,0-0.4-0.1-0.6-0.2s-0.2-0.3-0.2-0.6c0-0.2,0.1-0.4,0.2-0.6
			C859,3981.8,859.2,3981.7,859.4,3981.7z"/>
		<path class="st32" d="M863.3,3984.8l-0.2,1.1c0.8-0.8,1.6-1.2,2.6-1.2c0.8,0,1.4,0.3,1.8,0.8c0.4,0.5,0.5,1.3,0.4,2.2l-0.9,5.5
			h-1.4l0.9-5.6c0-0.3,0-0.5,0-0.7c-0.1-0.7-0.5-1.1-1.3-1.1c-0.8,0-1.6,0.4-2.2,1.4l-1,6h-1.4l1.5-8.5L863.3,3984.8z"/>
		<path class="st32" d="M872.9,3982.8l-0.4,2h1.5l-0.2,1.1h-1.5l-0.9,5.3c0,0.1,0,0.3,0,0.4c0,0.4,0.3,0.6,0.7,0.6
			c0.2,0,0.4,0,0.7-0.1l-0.1,1.2c-0.3,0.1-0.7,0.1-1,0.1c-0.6,0-1-0.2-1.3-0.6s-0.4-0.9-0.3-1.6l0.9-5.2h-1.5l0.2-1.1h1.5l0.4-2
			H872.9z"/>
	</g>
	<g class="st41">
		<path class="st32" d="M884.3,3991c0-0.4-0.1-0.7-0.4-0.9s-0.8-0.4-1.5-0.6s-1.3-0.3-1.7-0.6s-0.7-0.5-1-0.8s-0.3-0.7-0.3-1.1
			c0-0.7,0.3-1.3,0.9-1.8s1.3-0.7,2.2-0.7c1,0,1.7,0.2,2.3,0.7s0.9,1.1,0.9,1.9h-1.5c0-0.4-0.2-0.7-0.5-1s-0.8-0.4-1.3-0.4
			c-0.5,0-0.9,0.1-1.2,0.3s-0.4,0.5-0.4,0.9c0,0.3,0.1,0.6,0.4,0.8s0.8,0.3,1.5,0.5s1.3,0.4,1.8,0.6s0.8,0.5,1,0.8s0.3,0.7,0.3,1.2
			c0,0.8-0.3,1.4-0.9,1.8s-1.4,0.7-2.4,0.7c-0.7,0-1.3-0.1-1.8-0.4s-0.9-0.6-1.2-1s-0.4-0.9-0.4-1.4h1.4c0,0.5,0.2,0.9,0.6,1.2
			s0.8,0.4,1.4,0.4c0.5,0,1-0.1,1.3-0.3S884.3,3991.4,884.3,3991z"/>
		<path class="st32" d="M891.1,3993.4c-1.1,0-2.1-0.4-2.8-1.1s-1.1-1.8-1.1-3v-0.3c0-0.8,0.2-1.6,0.5-2.2s0.8-1.2,1.3-1.5
			s1.2-0.6,1.9-0.6c1.1,0,2,0.4,2.6,1.1s0.9,1.8,0.9,3.1v0.6h-5.7c0,0.8,0.3,1.5,0.7,2s1.1,0.8,1.8,0.8c0.5,0,0.9-0.1,1.3-0.3
			s0.7-0.5,0.9-0.8l0.9,0.7C893.6,3992.9,892.5,3993.4,891.1,3993.4z M890.9,3985.8c-0.6,0-1.1,0.2-1.5,0.6s-0.6,1-0.7,1.8h4.2v-0.1
			c0-0.7-0.2-1.3-0.6-1.7S891.5,3985.8,890.9,3985.8z"/>
		<path class="st32" d="M907.2,3989.1c0,1.3-0.3,2.3-0.9,3.1s-1.4,1.2-2.4,1.2c-1,0-1.8-0.3-2.4-1v4.1H900v-11.7h1.3l0.1,0.9
			c0.6-0.7,1.4-1.1,2.5-1.1c1,0,1.8,0.4,2.4,1.1s0.9,1.8,0.9,3.2V3989.1z M905.7,3989c0-1-0.2-1.7-0.6-2.3s-1-0.8-1.7-0.8
			c-0.9,0-1.5,0.4-2,1.2v4c0.4,0.8,1.1,1.2,2,1.2c0.7,0,1.2-0.3,1.7-0.8S905.7,3990,905.7,3989z"/>
		<path class="st32" d="M914.2,3992.4c-0.6,0.7-1.4,1-2.5,1c-0.9,0-1.6-0.3-2.1-0.8s-0.7-1.3-0.7-2.3v-5.5h1.4v5.5
			c0,1.3,0.5,1.9,1.6,1.9c1.1,0,1.8-0.4,2.2-1.2v-6.1h1.4v8.5h-1.4L914.2,3992.4z"/>
		<path class="st32" d="M921.3,3993.4c-1.1,0-2.1-0.4-2.8-1.1s-1.1-1.8-1.1-3v-0.3c0-0.8,0.2-1.6,0.5-2.2s0.8-1.2,1.3-1.5
			s1.2-0.6,1.9-0.6c1.1,0,2,0.4,2.6,1.1s0.9,1.8,0.9,3.1v0.6h-5.7c0,0.8,0.3,1.5,0.7,2s1.1,0.8,1.8,0.8c0.5,0,0.9-0.1,1.3-0.3
			s0.7-0.5,0.9-0.8l0.9,0.7C923.8,3992.9,922.8,3993.4,921.3,3993.4z M921.2,3985.8c-0.6,0-1.1,0.2-1.5,0.6s-0.6,1-0.7,1.8h4.2v-0.1
			c0-0.7-0.2-1.3-0.6-1.7S921.8,3985.8,921.2,3985.8z"/>
		<path class="st32" d="M926,3989c0-1.3,0.3-2.3,0.9-3.1s1.4-1.2,2.4-1.2c1,0,1.8,0.3,2.4,1v-4.4h1.4v12h-1.3l-0.1-0.9
			c-0.6,0.7-1.4,1.1-2.4,1.1c-1,0-1.8-0.4-2.4-1.2s-0.9-1.8-0.9-3.1V3989z M927.4,3989.1c0,1,0.2,1.7,0.6,2.2s0.9,0.8,1.6,0.8
			c0.9,0,1.6-0.4,2-1.2v-3.9c-0.4-0.8-1.1-1.2-2-1.2c-0.7,0-1.3,0.3-1.7,0.8S927.4,3988,927.4,3989.1z"/>
		<path class="st32" d="M938.8,3993.4c-1.1,0-2.1-0.4-2.8-1.1s-1.1-1.8-1.1-3v-0.3c0-0.8,0.2-1.6,0.5-2.2s0.8-1.2,1.3-1.5
			s1.2-0.6,1.9-0.6c1.1,0,2,0.4,2.6,1.1s0.9,1.8,0.9,3.1v0.6h-5.7c0,0.8,0.3,1.5,0.7,2s1.1,0.8,1.8,0.8c0.5,0,0.9-0.1,1.3-0.3
			s0.7-0.5,0.9-0.8l0.9,0.7C941.3,3992.9,940.3,3993.4,938.8,3993.4z M938.7,3985.8c-0.6,0-1.1,0.2-1.5,0.6s-0.6,1-0.7,1.8h4.2v-0.1
			c0-0.7-0.2-1.3-0.6-1.7S939.3,3985.8,938.7,3985.8z"/>
		<path class="st32" d="M945.2,3984.8l0,1.1c0.6-0.8,1.5-1.2,2.5-1.2c1.8,0,2.7,1,2.7,3v5.6H949v-5.6c0-0.6-0.1-1.1-0.4-1.4
			s-0.7-0.4-1.3-0.4c-0.5,0-0.9,0.1-1.2,0.4s-0.6,0.6-0.8,1v6h-1.4v-8.5H945.2z"/>
		<path class="st32" d="M960,3992.2c0.5,0,1-0.2,1.4-0.5s0.6-0.7,0.6-1.2h1.4c0,0.5-0.2,0.9-0.5,1.4s-0.7,0.8-1.2,1
			s-1.1,0.4-1.6,0.4c-1.2,0-2.1-0.4-2.7-1.2s-1-1.8-1-3.2v-0.2c0-0.8,0.2-1.6,0.5-2.2s0.7-1.1,1.3-1.5s1.2-0.5,2-0.5
			c0.9,0,1.7,0.3,2.4,0.9s1,1.3,1,2.2H962c0-0.5-0.2-1-0.6-1.3s-0.8-0.5-1.4-0.5c-0.7,0-1.3,0.3-1.7,0.8s-0.6,1.3-0.6,2.3v0.3
			c0,1,0.2,1.7,0.6,2.2S959.2,3992.2,960,3992.2z"/>
		<path class="st32" d="M966.5,3993.3h-1.4v-12h1.4V3993.3z"/>
		<path class="st32" d="M974.1,3993.3c-0.1-0.2-0.2-0.5-0.2-0.9c-0.7,0.7-1.5,1-2.4,1c-0.8,0-1.5-0.2-2.1-0.7s-0.8-1.1-0.8-1.8
			c0-0.9,0.3-1.6,1-2.1s1.6-0.7,2.8-0.7h1.4v-0.7c0-0.5-0.2-0.9-0.5-1.2s-0.7-0.4-1.3-0.4c-0.5,0-0.9,0.1-1.3,0.4s-0.5,0.6-0.5,0.9
			h-1.5c0-0.4,0.1-0.8,0.4-1.2s0.7-0.7,1.2-0.9s1.1-0.3,1.7-0.3c1,0,1.7,0.2,2.3,0.7s0.8,1.2,0.9,2v3.9c0,0.8,0.1,1.4,0.3,1.9v0.1
			H974.1z M971.7,3992.1c0.5,0,0.9-0.1,1.3-0.4s0.7-0.5,0.9-0.9v-1.7h-1.1c-1.8,0-2.7,0.5-2.7,1.6c0,0.5,0.2,0.8,0.5,1.1
			S971.2,3992.1,971.7,3992.1z"/>
		<path class="st32" d="M982.5,3991c0-0.4-0.1-0.7-0.4-0.9s-0.8-0.4-1.5-0.6s-1.3-0.3-1.7-0.6s-0.7-0.5-1-0.8s-0.3-0.7-0.3-1.1
			c0-0.7,0.3-1.3,0.9-1.8s1.3-0.7,2.2-0.7c1,0,1.7,0.2,2.3,0.7s0.9,1.1,0.9,1.9h-1.5c0-0.4-0.2-0.7-0.5-1s-0.8-0.4-1.3-0.4
			c-0.5,0-0.9,0.1-1.2,0.3s-0.4,0.5-0.4,0.9c0,0.3,0.1,0.6,0.4,0.8s0.8,0.3,1.5,0.5s1.3,0.4,1.8,0.6s0.8,0.5,1,0.8s0.3,0.7,0.3,1.2
			c0,0.8-0.3,1.4-0.9,1.8s-1.4,0.7-2.4,0.7c-0.7,0-1.3-0.1-1.8-0.4s-0.9-0.6-1.2-1s-0.4-0.9-0.4-1.4h1.4c0,0.5,0.2,0.9,0.6,1.2
			s0.8,0.4,1.4,0.4c0.5,0,1-0.1,1.3-0.3S982.5,3991.4,982.5,3991z"/>
		<path class="st32" d="M985.8,3982.6c0-0.2,0.1-0.4,0.2-0.6s0.4-0.2,0.6-0.2s0.5,0.1,0.6,0.2s0.2,0.4,0.2,0.6s-0.1,0.4-0.2,0.6
			s-0.4,0.2-0.6,0.2s-0.5-0.1-0.6-0.2S985.8,3982.8,985.8,3982.6z M987.4,3993.3h-1.4v-8.5h1.4V3993.3z"/>
		<path class="st32" d="M990.4,3993.3v-7.3h-1.3v-1.1h1.3v-0.9c0-0.9,0.2-1.6,0.7-2.1s1.2-0.7,2.1-0.7c0.3,0,0.7,0,1,0.1l-0.1,1.2
			c-0.2,0-0.5-0.1-0.8-0.1c-0.5,0-0.8,0.1-1.1,0.4s-0.4,0.7-0.4,1.2v0.9h1.8v1.1h-1.8v7.3H990.4z"/>
		<path class="st32" d="M995.3,3982.6c0-0.2,0.1-0.4,0.2-0.6s0.4-0.2,0.6-0.2s0.5,0.1,0.6,0.2s0.2,0.4,0.2,0.6s-0.1,0.4-0.2,0.6
			s-0.4,0.2-0.6,0.2s-0.5-0.1-0.6-0.2S995.3,3982.8,995.3,3982.6z M996.8,3993.3h-1.4v-8.5h1.4V3993.3z"/>
		<path class="st32" d="M1002.5,3992.2c0.5,0,1-0.2,1.4-0.5s0.6-0.7,0.6-1.2h1.4c0,0.5-0.2,0.9-0.5,1.4s-0.7,0.8-1.2,1
			s-1.1,0.4-1.6,0.4c-1.2,0-2.1-0.4-2.7-1.2s-1-1.8-1-3.2v-0.2c0-0.8,0.2-1.6,0.5-2.2s0.7-1.1,1.3-1.5s1.2-0.5,2-0.5
			c0.9,0,1.7,0.3,2.4,0.9s1,1.3,1,2.2h-1.4c0-0.5-0.2-1-0.6-1.3s-0.8-0.5-1.4-0.5c-0.7,0-1.3,0.3-1.7,0.8s-0.6,1.3-0.6,2.3v0.3
			c0,1,0.2,1.7,0.6,2.2S1001.8,3992.2,1002.5,3992.2z"/>
		<path class="st32" d="M1012.7,3993.3c-0.1-0.2-0.2-0.5-0.2-0.9c-0.7,0.7-1.5,1-2.4,1c-0.8,0-1.5-0.2-2.1-0.7s-0.8-1.1-0.8-1.8
			c0-0.9,0.3-1.6,1-2.1s1.6-0.7,2.8-0.7h1.4v-0.7c0-0.5-0.2-0.9-0.5-1.2s-0.7-0.4-1.3-0.4c-0.5,0-0.9,0.1-1.3,0.4s-0.5,0.6-0.5,0.9
			h-1.5c0-0.4,0.1-0.8,0.4-1.2s0.7-0.7,1.2-0.9s1.1-0.3,1.7-0.3c1,0,1.7,0.2,2.3,0.7s0.8,1.2,0.9,2v3.9c0,0.8,0.1,1.4,0.3,1.9v0.1
			H1012.7z M1010.3,3992.1c0.5,0,0.9-0.1,1.3-0.4s0.7-0.5,0.9-0.9v-1.7h-1.1c-1.8,0-2.7,0.5-2.7,1.6c0,0.5,0.2,0.8,0.5,1.1
			S1009.9,3992.1,1010.3,3992.1z"/>
		<path class="st32" d="M1020.3,3986.1c-0.2,0-0.5-0.1-0.7-0.1c-0.9,0-1.6,0.4-1.9,1.2v6h-1.4v-8.5h1.4l0,1c0.5-0.8,1.1-1.1,2-1.1
			c0.3,0,0.5,0,0.6,0.1V3986.1z"/>
		<path class="st32" d="M1029.1,3993.4c-1.1,0-2.1-0.4-2.8-1.1s-1.1-1.8-1.1-3v-0.3c0-0.8,0.2-1.6,0.5-2.2s0.8-1.2,1.3-1.5
			s1.2-0.6,1.9-0.6c1.1,0,2,0.4,2.6,1.1s0.9,1.8,0.9,3.1v0.6h-5.7c0,0.8,0.3,1.5,0.7,2s1.1,0.8,1.8,0.8c0.5,0,0.9-0.1,1.3-0.3
			s0.7-0.5,0.9-0.8l0.9,0.7C1031.6,3992.9,1030.5,3993.4,1029.1,3993.4z M1028.9,3985.8c-0.6,0-1.1,0.2-1.5,0.6s-0.6,1-0.7,1.8h4.2
			v-0.1c0-0.7-0.2-1.3-0.6-1.7S1029.5,3985.8,1028.9,3985.8z"/>
		<path class="st32" d="M1035.4,3984.8l0,1.1c0.6-0.8,1.5-1.2,2.5-1.2c1.8,0,2.7,1,2.7,3v5.6h-1.4v-5.6c0-0.6-0.1-1.1-0.4-1.4
			s-0.7-0.4-1.3-0.4c-0.5,0-0.9,0.1-1.2,0.4s-0.6,0.6-0.8,1v6h-1.4v-8.5H1035.4z"/>
		<path class="st32" d="M1048.4,3993.3h-1.4v-12h1.4V3993.3z"/>
		<path class="st32" d="M1056,3993.3c-0.1-0.2-0.2-0.5-0.2-0.9c-0.7,0.7-1.5,1-2.4,1c-0.8,0-1.5-0.2-2.1-0.7s-0.8-1.1-0.8-1.8
			c0-0.9,0.3-1.6,1-2.1s1.6-0.7,2.8-0.7h1.4v-0.7c0-0.5-0.2-0.9-0.5-1.2s-0.7-0.4-1.3-0.4c-0.5,0-0.9,0.1-1.3,0.4s-0.5,0.6-0.5,0.9
			h-1.5c0-0.4,0.1-0.8,0.4-1.2s0.7-0.7,1.2-0.9s1.1-0.3,1.7-0.3c1,0,1.7,0.2,2.3,0.7s0.8,1.2,0.9,2v3.9c0,0.8,0.1,1.4,0.3,1.9v0.1
			H1056z M1053.6,3992.1c0.5,0,0.9-0.1,1.3-0.4s0.7-0.5,0.9-0.9v-1.7h-1.1c-1.8,0-2.7,0.5-2.7,1.6c0,0.5,0.2,0.8,0.5,1.1
			S1053.1,3992.1,1053.6,3992.1z"/>
		<path class="st32" d="M1064.4,3991c0-0.4-0.1-0.7-0.4-0.9s-0.8-0.4-1.5-0.6s-1.3-0.3-1.7-0.6s-0.7-0.5-1-0.8s-0.3-0.7-0.3-1.1
			c0-0.7,0.3-1.3,0.9-1.8s1.3-0.7,2.2-0.7c1,0,1.7,0.2,2.3,0.7s0.9,1.1,0.9,1.9h-1.5c0-0.4-0.2-0.7-0.5-1s-0.8-0.4-1.3-0.4
			c-0.5,0-0.9,0.1-1.2,0.3s-0.4,0.5-0.4,0.9c0,0.3,0.1,0.6,0.4,0.8s0.8,0.3,1.5,0.5s1.3,0.4,1.8,0.6s0.8,0.5,1,0.8s0.3,0.7,0.3,1.2
			c0,0.8-0.3,1.4-0.9,1.8s-1.4,0.7-2.4,0.7c-0.7,0-1.3-0.1-1.8-0.4s-0.9-0.6-1.2-1s-0.4-0.9-0.4-1.4h1.4c0,0.5,0.2,0.9,0.6,1.2
			s0.8,0.4,1.4,0.4c0.5,0,1-0.1,1.3-0.3S1064.4,3991.4,1064.4,3991z"/>
		<path class="st32" d="M1076.6,3991c0-0.4-0.1-0.7-0.4-0.9s-0.8-0.4-1.5-0.6s-1.3-0.3-1.7-0.6s-0.7-0.5-1-0.8s-0.3-0.7-0.3-1.1
			c0-0.7,0.3-1.3,0.9-1.8s1.3-0.7,2.2-0.7c1,0,1.7,0.2,2.3,0.7s0.9,1.1,0.9,1.9h-1.5c0-0.4-0.2-0.7-0.5-1s-0.8-0.4-1.3-0.4
			c-0.5,0-0.9,0.1-1.2,0.3s-0.4,0.5-0.4,0.9c0,0.3,0.1,0.6,0.4,0.8s0.8,0.3,1.5,0.5s1.3,0.4,1.8,0.6s0.8,0.5,1,0.8s0.3,0.7,0.3,1.2
			c0,0.8-0.3,1.4-0.9,1.8s-1.4,0.7-2.4,0.7c-0.7,0-1.3-0.1-1.8-0.4s-0.9-0.6-1.2-1s-0.4-0.9-0.4-1.4h1.4c0,0.5,0.2,0.9,0.6,1.2
			s0.8,0.4,1.4,0.4c0.5,0,1-0.1,1.3-0.3S1076.6,3991.4,1076.6,3991z"/>
		<path class="st32" d="M1079.9,3982.6c0-0.2,0.1-0.4,0.2-0.6s0.4-0.2,0.6-0.2s0.5,0.1,0.6,0.2s0.2,0.4,0.2,0.6s-0.1,0.4-0.2,0.6
			s-0.4,0.2-0.6,0.2s-0.5-0.1-0.6-0.2S1079.9,3982.8,1079.9,3982.6z M1081.5,3993.3h-1.4v-8.5h1.4V3993.3z"/>
		<path class="st32" d="M1083.4,3989c0-1.3,0.3-2.4,0.9-3.1s1.4-1.2,2.4-1.2c1,0,1.8,0.4,2.4,1.1l0.1-0.9h1.3v8.2c0,1.1-0.3,2-1,2.6
			s-1.5,0.9-2.6,0.9c-0.6,0-1.2-0.1-1.8-0.4s-1-0.6-1.3-1.1l0.8-0.9c0.6,0.8,1.4,1.1,2.3,1.1c0.7,0,1.3-0.2,1.6-0.6s0.6-1,0.6-1.7
			v-0.7c-0.6,0.7-1.4,1-2.4,1c-1,0-1.8-0.4-2.4-1.2S1083.4,3990.3,1083.4,3989z M1084.9,3989.1c0,1,0.2,1.7,0.6,2.2s0.9,0.8,1.6,0.8
			c0.9,0,1.6-0.4,2-1.2v-3.9c-0.4-0.8-1.1-1.2-2-1.2c-0.7,0-1.3,0.3-1.6,0.8S1084.9,3988,1084.9,3989.1z"/>
		<path class="st32" d="M1098,3992.4c-0.6,0.7-1.4,1-2.5,1c-0.9,0-1.6-0.3-2.1-0.8s-0.7-1.3-0.7-2.3v-5.5h1.4v5.5
			c0,1.3,0.5,1.9,1.6,1.9c1.1,0,1.8-0.4,2.2-1.2v-6.1h1.4v8.5h-1.4L1098,3992.4z"/>
		<path class="st32" d="M1101.6,3982.6c0-0.2,0.1-0.4,0.2-0.6s0.4-0.2,0.6-0.2s0.5,0.1,0.6,0.2s0.2,0.4,0.2,0.6s-0.1,0.4-0.2,0.6
			s-0.4,0.2-0.6,0.2s-0.5-0.1-0.6-0.2S1101.6,3982.8,1101.6,3982.6z M1103.2,3993.3h-1.4v-8.5h1.4V3993.3z"/>
		<path class="st32" d="M1109,3993.4c-1.1,0-2.1-0.4-2.8-1.1s-1.1-1.8-1.1-3v-0.3c0-0.8,0.2-1.6,0.5-2.2s0.8-1.2,1.3-1.5
			s1.2-0.6,1.9-0.6c1.1,0,2,0.4,2.6,1.1s0.9,1.8,0.9,3.1v0.6h-5.7c0,0.8,0.3,1.5,0.7,2s1.1,0.8,1.8,0.8c0.5,0,0.9-0.1,1.3-0.3
			s0.7-0.5,0.9-0.8l0.9,0.7C1111.5,3992.9,1110.4,3993.4,1109,3993.4z M1108.8,3985.8c-0.6,0-1.1,0.2-1.5,0.6s-0.6,1-0.7,1.8h4.2
			v-0.1c0-0.7-0.2-1.3-0.6-1.7S1109.4,3985.8,1108.8,3985.8z"/>
		<path class="st32" d="M1115.3,3984.8l0,1.1c0.6-0.8,1.5-1.2,2.5-1.2c1.8,0,2.7,1,2.7,3v5.6h-1.4v-5.6c0-0.6-0.1-1.1-0.4-1.4
			s-0.7-0.4-1.3-0.4c-0.5,0-0.9,0.1-1.2,0.4s-0.6,0.6-0.8,1v6h-1.4v-8.5H1115.3z"/>
		<path class="st32" d="M1124.7,3982.8v2h1.6v1.1h-1.6v5.2c0,0.3,0.1,0.6,0.2,0.8c0.1,0.2,0.4,0.3,0.7,0.3c0.2,0,0.4,0,0.7-0.1v1.2
			c-0.4,0.1-0.8,0.2-1.1,0.2c-0.6,0-1.1-0.2-1.5-0.6s-0.5-0.9-0.5-1.7v-5.2h-1.5v-1.1h1.5v-2H1124.7z"/>
		<path class="st32" d="M1131.5,3993.4c-1.1,0-2.1-0.4-2.8-1.1s-1.1-1.8-1.1-3v-0.3c0-0.8,0.2-1.6,0.5-2.2s0.8-1.2,1.3-1.5
			s1.2-0.6,1.9-0.6c1.1,0,2,0.4,2.6,1.1s0.9,1.8,0.9,3.1v0.6h-5.7c0,0.8,0.3,1.5,0.7,2s1.1,0.8,1.8,0.8c0.5,0,0.9-0.1,1.3-0.3
			s0.7-0.5,0.9-0.8l0.9,0.7C1134,3992.9,1132.9,3993.4,1131.5,3993.4z M1131.3,3985.8c-0.6,0-1.1,0.2-1.5,0.6s-0.6,1-0.7,1.8h4.2
			v-0.1c0-0.7-0.2-1.3-0.6-1.7S1131.9,3985.8,1131.3,3985.8z"/>
		<path class="st32" d="M1141.4,3991c0-0.4-0.1-0.7-0.4-0.9s-0.8-0.4-1.5-0.6s-1.3-0.3-1.7-0.6s-0.7-0.5-1-0.8s-0.3-0.7-0.3-1.1
			c0-0.7,0.3-1.3,0.9-1.8s1.3-0.7,2.2-0.7c1,0,1.7,0.2,2.3,0.7s0.9,1.1,0.9,1.9h-1.5c0-0.4-0.2-0.7-0.5-1s-0.8-0.4-1.3-0.4
			c-0.5,0-0.9,0.1-1.2,0.3s-0.4,0.5-0.4,0.9c0,0.3,0.1,0.6,0.4,0.8s0.8,0.3,1.5,0.5s1.3,0.4,1.8,0.6s0.8,0.5,1,0.8s0.3,0.7,0.3,1.2
			c0,0.8-0.3,1.4-0.9,1.8s-1.4,0.7-2.4,0.7c-0.7,0-1.3-0.1-1.8-0.4s-0.9-0.6-1.2-1s-0.4-0.9-0.4-1.4h1.4c0,0.5,0.2,0.9,0.6,1.2
			s0.8,0.4,1.4,0.4c0.5,0,1-0.1,1.3-0.3S1141.4,3991.4,1141.4,3991z"/>
		<path class="st32" d="M1152.1,3992.2c0.5,0,1-0.2,1.4-0.5s0.6-0.7,0.6-1.2h1.4c0,0.5-0.2,0.9-0.5,1.4s-0.7,0.8-1.2,1
			s-1.1,0.4-1.6,0.4c-1.2,0-2.1-0.4-2.7-1.2s-1-1.8-1-3.2v-0.2c0-0.8,0.2-1.6,0.5-2.2s0.7-1.1,1.3-1.5s1.2-0.5,2-0.5
			c0.9,0,1.7,0.3,2.4,0.9s1,1.3,1,2.2h-1.4c0-0.5-0.2-1-0.6-1.3s-0.8-0.5-1.4-0.5c-0.7,0-1.3,0.3-1.7,0.8s-0.6,1.3-0.6,2.3v0.3
			c0,1,0.2,1.7,0.6,2.2S1151.3,3992.2,1152.1,3992.2z"/>
		<path class="st32" d="M1162.3,3993.3c-0.1-0.2-0.2-0.5-0.2-0.9c-0.7,0.7-1.5,1-2.4,1c-0.8,0-1.5-0.2-2.1-0.7s-0.8-1.1-0.8-1.8
			c0-0.9,0.3-1.6,1-2.1s1.6-0.7,2.8-0.7h1.4v-0.7c0-0.5-0.2-0.9-0.5-1.2s-0.7-0.4-1.3-0.4c-0.5,0-0.9,0.1-1.3,0.4s-0.5,0.6-0.5,0.9
			h-1.5c0-0.4,0.1-0.8,0.4-1.2s0.7-0.7,1.2-0.9s1.1-0.3,1.7-0.3c1,0,1.7,0.2,2.3,0.7s0.8,1.2,0.9,2v3.9c0,0.8,0.1,1.4,0.3,1.9v0.1
			H1162.3z M1159.9,3992.1c0.5,0,0.9-0.1,1.3-0.4s0.7-0.5,0.9-0.9v-1.7h-1.1c-1.8,0-2.7,0.5-2.7,1.6c0,0.5,0.2,0.8,0.5,1.1
			S1159.4,3992.1,1159.9,3992.1z"/>
		<path class="st32" d="M1167.7,3982.8v2h1.6v1.1h-1.6v5.2c0,0.3,0.1,0.6,0.2,0.8c0.1,0.2,0.4,0.3,0.7,0.3c0.2,0,0.4,0,0.7-0.1v1.2
			c-0.4,0.1-0.8,0.2-1.1,0.2c-0.6,0-1.1-0.2-1.5-0.6s-0.5-0.9-0.5-1.7v-5.2h-1.5v-1.1h1.5v-2H1167.7z"/>
		<path class="st32" d="M1174.5,3993.4c-1.1,0-2.1-0.4-2.8-1.1s-1.1-1.8-1.1-3v-0.3c0-0.8,0.2-1.6,0.5-2.2s0.8-1.2,1.3-1.5
			s1.2-0.6,1.9-0.6c1.1,0,2,0.4,2.6,1.1s0.9,1.8,0.9,3.1v0.6h-5.7c0,0.8,0.3,1.5,0.7,2c0.5,0.5,1.1,0.8,1.8,0.8
			c0.5,0,0.9-0.1,1.3-0.3s0.7-0.5,0.9-0.8l0.9,0.7C1177,3992.9,1175.9,3993.4,1174.5,3993.4z M1174.3,3985.8c-0.6,0-1.1,0.2-1.5,0.6
			c-0.4,0.4-0.6,1-0.7,1.8h4.2v-0.1c0-0.7-0.2-1.3-0.6-1.7S1174.9,3985.8,1174.3,3985.8z"/>
		<path class="st32" d="M1179.1,3989c0-1.3,0.3-2.4,0.9-3.1s1.4-1.2,2.4-1.2c1,0,1.8,0.4,2.4,1.1l0.1-0.9h1.3v8.2c0,1.1-0.3,2-1,2.6
			s-1.5,0.9-2.6,0.9c-0.6,0-1.2-0.1-1.8-0.4s-1-0.6-1.3-1.1l0.8-0.9c0.6,0.8,1.4,1.1,2.3,1.1c0.7,0,1.3-0.2,1.6-0.6s0.6-1,0.6-1.7
			v-0.7c-0.6,0.7-1.4,1-2.4,1c-1,0-1.8-0.4-2.4-1.2S1179.1,3990.3,1179.1,3989z M1180.6,3989.1c0,1,0.2,1.7,0.6,2.2s0.9,0.8,1.6,0.8
			c0.9,0,1.6-0.4,2-1.2v-3.9c-0.4-0.8-1.1-1.2-2-1.2c-0.7,0-1.3,0.3-1.6,0.8S1180.6,3988,1180.6,3989.1z"/>
		<path class="st32" d="M1188.1,3988.9c0-0.8,0.2-1.6,0.5-2.2s0.8-1.2,1.4-1.5s1.2-0.5,2-0.5c1.2,0,2.1,0.4,2.8,1.2s1.1,1.9,1.1,3.2
			v0.1c0,0.8-0.2,1.6-0.5,2.2s-0.8,1.2-1.4,1.5s-1.3,0.5-2,0.5c-1.1,0-2.1-0.4-2.8-1.2s-1.1-1.9-1.1-3.2V3988.9z M1189.5,3989.1
			c0,0.9,0.2,1.7,0.7,2.3s1,0.9,1.7,0.9c0.7,0,1.3-0.3,1.8-0.9s0.6-1.4,0.6-2.4c0-0.9-0.2-1.7-0.7-2.3s-1-0.9-1.8-0.9
			c-0.7,0-1.3,0.3-1.7,0.9S1189.5,3988.1,1189.5,3989.1z"/>
		<path class="st32" d="M1201.7,3986.1c-0.2,0-0.5-0.1-0.7-0.1c-0.9,0-1.6,0.4-1.9,1.2v6h-1.4v-8.5h1.4l0,1c0.5-0.8,1.1-1.1,2-1.1
			c0.3,0,0.5,0,0.6,0.1V3986.1z"/>
		<path class="st32" d="M1204.6,3981.3h1.8l-2.1,2.3l-1.2,0L1204.6,3981.3z M1204.5,3993.3h-1.5v-8.5h1.5V3993.3z"/>
		<path class="st32" d="M1212.2,3993.3c-0.1-0.2-0.2-0.5-0.2-0.9c-0.7,0.7-1.5,1-2.4,1c-0.8,0-1.5-0.2-2.1-0.7s-0.8-1.1-0.8-1.8
			c0-0.9,0.3-1.6,1-2.1s1.6-0.7,2.8-0.7h1.4v-0.7c0-0.5-0.2-0.9-0.5-1.2s-0.7-0.4-1.3-0.4c-0.5,0-0.9,0.1-1.3,0.4s-0.5,0.6-0.5,0.9
			h-1.5c0-0.4,0.1-0.8,0.4-1.2s0.7-0.7,1.2-0.9s1.1-0.3,1.7-0.3c1,0,1.7,0.2,2.3,0.7s0.8,1.2,0.9,2v3.9c0,0.8,0.1,1.4,0.3,1.9v0.1
			H1212.2z M1209.8,3992.1c0.5,0,0.9-0.1,1.3-0.4s0.7-0.5,0.9-0.9v-1.7h-1.1c-1.8,0-2.7,0.5-2.7,1.6c0,0.5,0.2,0.8,0.5,1.1
			S1209.3,3992.1,1209.8,3992.1z"/>
		<path class="st32" d="M1220.6,3991c0-0.4-0.1-0.7-0.4-0.9s-0.8-0.4-1.5-0.6s-1.3-0.3-1.7-0.6s-0.7-0.5-1-0.8s-0.3-0.7-0.3-1.1
			c0-0.7,0.3-1.3,0.9-1.8s1.3-0.7,2.2-0.7c1,0,1.7,0.2,2.3,0.7s0.9,1.1,0.9,1.9h-1.5c0-0.4-0.2-0.7-0.5-1s-0.8-0.4-1.3-0.4
			c-0.5,0-0.9,0.1-1.2,0.3s-0.4,0.5-0.4,0.9c0,0.3,0.1,0.6,0.4,0.8s0.8,0.3,1.5,0.5s1.3,0.4,1.8,0.6s0.8,0.5,1,0.8s0.3,0.7,0.3,1.2
			c0,0.8-0.3,1.4-0.9,1.8s-1.4,0.7-2.4,0.7c-0.7,0-1.3-0.1-1.8-0.4s-0.9-0.6-1.2-1s-0.4-0.9-0.4-1.4h1.4c0,0.5,0.2,0.9,0.6,1.2
			s0.8,0.4,1.4,0.4c0.5,0,1-0.1,1.3-0.3S1220.6,3991.4,1220.6,3991z"/>
		<path class="st32" d="M1223.8,3992.5c0-0.2,0.1-0.5,0.2-0.6s0.4-0.2,0.7-0.2s0.5,0.1,0.7,0.2s0.2,0.4,0.2,0.6
			c0,0.2-0.1,0.4-0.2,0.6s-0.4,0.2-0.7,0.2s-0.5-0.1-0.7-0.2S1223.8,3992.7,1223.8,3992.5z M1223.8,3985.6c0-0.2,0.1-0.5,0.2-0.6
			s0.4-0.2,0.7-0.2s0.5,0.1,0.7,0.2s0.2,0.4,0.2,0.6c0,0.2-0.1,0.4-0.2,0.6s-0.4,0.2-0.7,0.2s-0.5-0.1-0.7-0.2
			S1223.8,3985.8,1223.8,3985.6z"/>
	</g>
	<g class="st41">
		<path class="st32" d="M608.3,4036.7c0,1-0.3,1.8-1,2.4c-0.7,0.7-1.5,1-2.4,1c-1,0-1.8-0.3-2.4-1s-1-1.5-1-2.4c0-1,0.3-1.8,1-2.4
			c0.7-0.7,1.5-1,2.4-1c1,0,1.8,0.3,2.4,1S608.3,4035.8,608.3,4036.7z"/>
	</g>
	<g class="st41">
		<path class="st32" d="M623.3,4037.6c-0.1,1.2-0.6,2.1-1.3,2.8c-0.7,0.7-1.7,1-3,1c-1.3,0-2.4-0.5-3.2-1.4c-0.8-1-1.2-2.3-1.2-3.9
			v-1.1c0-1.1,0.2-2,0.6-2.8c0.4-0.8,0.9-1.4,1.6-1.8c0.7-0.4,1.5-0.6,2.4-0.6c1.2,0,2.2,0.3,2.9,1c0.7,0.7,1.2,1.6,1.3,2.8h-1.5
			c-0.1-0.9-0.4-1.6-0.8-2c-0.4-0.4-1-0.6-1.8-0.6c-1,0-1.7,0.4-2.3,1.1c-0.5,0.7-0.8,1.7-0.8,3v1.1c0,1.2,0.3,2.2,0.8,2.9
			s1.2,1.1,2.2,1.1c0.8,0,1.5-0.2,1.9-0.6s0.7-1,0.9-2H623.3z"/>
		<path class="st32" d="M630.4,4040.4c-0.6,0.7-1.4,1-2.5,1c-0.9,0-1.6-0.3-2.1-0.8c-0.5-0.5-0.7-1.3-0.7-2.3v-5.5h1.4v5.5
			c0,1.3,0.5,1.9,1.6,1.9c1.1,0,1.8-0.4,2.2-1.2v-6.1h1.4v8.5h-1.4L630.4,4040.4z"/>
		<path class="st32" d="M639.2,4041.3c-0.1-0.2-0.2-0.5-0.2-0.9c-0.7,0.7-1.5,1-2.4,1c-0.8,0-1.5-0.2-2.1-0.7
			c-0.5-0.5-0.8-1.1-0.8-1.8c0-0.9,0.3-1.6,1-2.1c0.7-0.5,1.6-0.7,2.8-0.7h1.4v-0.7c0-0.5-0.2-0.9-0.5-1.2c-0.3-0.3-0.7-0.4-1.3-0.4
			c-0.5,0-0.9,0.1-1.3,0.4c-0.3,0.3-0.5,0.6-0.5,0.9h-1.5c0-0.4,0.1-0.8,0.4-1.2c0.3-0.4,0.7-0.7,1.2-0.9c0.5-0.2,1.1-0.3,1.7-0.3
			c1,0,1.7,0.2,2.3,0.7c0.6,0.5,0.8,1.2,0.9,2v3.9c0,0.8,0.1,1.4,0.3,1.9v0.1H639.2z M636.8,4040.1c0.5,0,0.9-0.1,1.3-0.4
			s0.7-0.5,0.9-0.9v-1.7h-1.1c-1.8,0-2.7,0.5-2.7,1.6c0,0.5,0.2,0.8,0.5,1.1C635.9,4040,636.3,4040.1,636.8,4040.1z"/>
		<path class="st32" d="M642.3,4037c0-1.3,0.3-2.3,0.9-3.1c0.6-0.8,1.4-1.2,2.4-1.2c1,0,1.8,0.3,2.4,1v-4.4h1.4v12h-1.3l-0.1-0.9
			c-0.6,0.7-1.4,1.1-2.4,1.1c-1,0-1.8-0.4-2.4-1.2s-0.9-1.8-0.9-3.1V4037z M643.8,4037.1c0,1,0.2,1.7,0.6,2.2
			c0.4,0.5,0.9,0.8,1.6,0.8c0.9,0,1.6-0.4,2-1.2v-3.9c-0.4-0.8-1.1-1.2-2-1.2c-0.7,0-1.3,0.3-1.7,0.8
			C643.9,4035.2,643.8,4036,643.8,4037.1z"/>
		<path class="st32" d="M655.8,4034.1c-0.2,0-0.5-0.1-0.7-0.1c-0.9,0-1.6,0.4-1.9,1.2v6h-1.4v-8.5h1.4l0,1c0.5-0.8,1.1-1.1,2-1.1
			c0.3,0,0.5,0,0.6,0.1V4034.1z"/>
		<path class="st32" d="M656.6,4036.9c0-0.8,0.2-1.6,0.5-2.2c0.3-0.7,0.8-1.2,1.4-1.5c0.6-0.4,1.2-0.5,2-0.5c1.2,0,2.1,0.4,2.8,1.2
			s1.1,1.9,1.1,3.2v0.1c0,0.8-0.2,1.6-0.5,2.2c-0.3,0.7-0.8,1.2-1.4,1.5s-1.3,0.5-2,0.5c-1.1,0-2.1-0.4-2.8-1.2s-1.1-1.9-1.1-3.2
			V4036.9z M658,4037.1c0,0.9,0.2,1.7,0.7,2.3c0.4,0.6,1,0.9,1.7,0.9c0.7,0,1.3-0.3,1.8-0.9c0.4-0.6,0.6-1.4,0.6-2.4
			c0-0.9-0.2-1.7-0.7-2.3c-0.4-0.6-1-0.9-1.8-0.9c-0.7,0-1.3,0.3-1.7,0.9S658,4036.1,658,4037.1z"/>
		<path class="st32" d="M671,4039c0-0.4-0.1-0.7-0.4-0.9c-0.3-0.2-0.8-0.4-1.5-0.6c-0.7-0.2-1.3-0.3-1.7-0.6s-0.7-0.5-1-0.8
			c-0.2-0.3-0.3-0.7-0.3-1.1c0-0.7,0.3-1.3,0.9-1.8s1.3-0.7,2.2-0.7c1,0,1.7,0.2,2.3,0.7c0.6,0.5,0.9,1.1,0.9,1.9h-1.5
			c0-0.4-0.2-0.7-0.5-1s-0.8-0.4-1.3-0.4c-0.5,0-0.9,0.1-1.2,0.3s-0.4,0.5-0.4,0.9c0,0.3,0.1,0.6,0.4,0.8c0.3,0.2,0.8,0.3,1.5,0.5
			c0.7,0.2,1.3,0.4,1.8,0.6c0.4,0.2,0.8,0.5,1,0.8c0.2,0.3,0.3,0.7,0.3,1.2c0,0.8-0.3,1.4-0.9,1.8c-0.6,0.5-1.4,0.7-2.4,0.7
			c-0.7,0-1.3-0.1-1.8-0.4c-0.5-0.2-0.9-0.6-1.2-1c-0.3-0.4-0.4-0.9-0.4-1.4h1.4c0,0.5,0.2,0.9,0.6,1.2c0.4,0.3,0.8,0.4,1.4,0.4
			c0.5,0,1-0.1,1.3-0.3C670.8,4039.7,671,4039.4,671,4039z"/>
		<path class="st32" d="M677.9,4037c0-1.3,0.3-2.3,0.9-3.1c0.6-0.8,1.4-1.2,2.4-1.2c1,0,1.8,0.3,2.4,1v-4.4h1.4v12h-1.3l-0.1-0.9
			c-0.6,0.7-1.4,1.1-2.4,1.1c-1,0-1.8-0.4-2.4-1.2s-0.9-1.8-0.9-3.1V4037z M679.4,4037.1c0,1,0.2,1.7,0.6,2.2
			c0.4,0.5,0.9,0.8,1.6,0.8c0.9,0,1.6-0.4,2-1.2v-3.9c-0.4-0.8-1.1-1.2-2-1.2c-0.7,0-1.3,0.3-1.7,0.8
			C679.6,4035.2,679.4,4036,679.4,4037.1z"/>
		<path class="st32" d="M690.8,4041.4c-1.1,0-2.1-0.4-2.8-1.1s-1.1-1.8-1.1-3v-0.3c0-0.8,0.2-1.6,0.5-2.2s0.8-1.2,1.3-1.5
			c0.6-0.4,1.2-0.6,1.9-0.6c1.1,0,2,0.4,2.6,1.1s0.9,1.8,0.9,3.1v0.6h-5.7c0,0.8,0.3,1.5,0.7,2c0.5,0.5,1.1,0.8,1.8,0.8
			c0.5,0,0.9-0.1,1.3-0.3c0.4-0.2,0.7-0.5,0.9-0.8l0.9,0.7C693.3,4040.9,692.2,4041.4,690.8,4041.4z M690.6,4033.8
			c-0.6,0-1.1,0.2-1.5,0.6c-0.4,0.4-0.6,1-0.7,1.8h4.2v-0.1c0-0.7-0.2-1.3-0.6-1.7C691.7,4034,691.2,4033.8,690.6,4033.8z"/>
		<path class="st32" d="M701.7,4030.8v2h1.6v1.1h-1.6v5.2c0,0.3,0.1,0.6,0.2,0.8c0.1,0.2,0.4,0.3,0.7,0.3c0.2,0,0.4,0,0.7-0.1v1.2
			c-0.4,0.1-0.8,0.2-1.1,0.2c-0.6,0-1.1-0.2-1.5-0.6s-0.5-0.9-0.5-1.7v-5.2h-1.5v-1.1h1.5v-2H701.7z"/>
		<path class="st32" d="M708.5,4041.4c-1.1,0-2.1-0.4-2.8-1.1s-1.1-1.8-1.1-3v-0.3c0-0.8,0.2-1.6,0.5-2.2s0.8-1.2,1.3-1.5
			c0.6-0.4,1.2-0.6,1.9-0.6c1.1,0,2,0.4,2.6,1.1s0.9,1.8,0.9,3.1v0.6H706c0,0.8,0.3,1.5,0.7,2c0.5,0.5,1.1,0.8,1.8,0.8
			c0.5,0,0.9-0.1,1.3-0.3c0.4-0.2,0.7-0.5,0.9-0.8l0.9,0.7C710.9,4040.9,709.9,4041.4,708.5,4041.4z M708.3,4033.8
			c-0.6,0-1.1,0.2-1.5,0.6c-0.4,0.4-0.6,1-0.7,1.8h4.2v-0.1c0-0.7-0.2-1.3-0.6-1.7C709.4,4034,708.9,4033.8,708.3,4033.8z"/>
		<path class="st32" d="M716.3,4035.9l1.9-3.1h1.7l-2.8,4.2l2.9,4.3h-1.7l-2-3.2l-2,3.2h-1.7l2.9-4.3l-2.8-4.2h1.7L716.3,4035.9z"/>
		<path class="st32" d="M723.3,4030.8v2h1.6v1.1h-1.6v5.2c0,0.3,0.1,0.6,0.2,0.8c0.1,0.2,0.4,0.3,0.7,0.3c0.2,0,0.4,0,0.7-0.1v1.2
			c-0.4,0.1-0.8,0.2-1.1,0.2c-0.6,0-1.1-0.2-1.5-0.6s-0.5-0.9-0.5-1.7v-5.2h-1.5v-1.1h1.5v-2H723.3z"/>
		<path class="st32" d="M726.1,4036.9c0-0.8,0.2-1.6,0.5-2.2c0.3-0.7,0.8-1.2,1.4-1.5c0.6-0.4,1.2-0.5,2-0.5c1.2,0,2.1,0.4,2.8,1.2
			s1.1,1.9,1.1,3.2v0.1c0,0.8-0.2,1.6-0.5,2.2c-0.3,0.7-0.8,1.2-1.4,1.5s-1.3,0.5-2,0.5c-1.1,0-2.1-0.4-2.8-1.2s-1.1-1.9-1.1-3.2
			V4036.9z M727.5,4037.1c0,0.9,0.2,1.7,0.7,2.3c0.4,0.6,1,0.9,1.7,0.9c0.7,0,1.3-0.3,1.8-0.9c0.4-0.6,0.6-1.4,0.6-2.4
			c0-0.9-0.2-1.7-0.7-2.3c-0.4-0.6-1-0.9-1.8-0.9c-0.7,0-1.3,0.3-1.7,0.9S727.5,4036.1,727.5,4037.1z"/>
		<path class="st32" d="M735.6,4040.5c0-0.2,0.1-0.5,0.2-0.6s0.4-0.2,0.7-0.2s0.5,0.1,0.7,0.2c0.2,0.2,0.2,0.4,0.2,0.6
			c0,0.2-0.1,0.4-0.2,0.6c-0.2,0.2-0.4,0.2-0.7,0.2s-0.5-0.1-0.7-0.2S735.6,4040.7,735.6,4040.5z"/>
	</g>
	<g class="st41">
		<path class="st32" d="M608.3,4060.7c0,1-0.3,1.8-1,2.4c-0.7,0.7-1.5,1-2.4,1c-1,0-1.8-0.3-2.4-1s-1-1.5-1-2.4c0-1,0.3-1.8,1-2.4
			c0.7-0.7,1.5-1,2.4-1c1,0,1.8,0.3,2.4,1S608.3,4059.8,608.3,4060.7z"/>
	</g>
	<g class="st41">
		<path class="st32" d="M622.5,4055.1h-3.7v10.1h-1.5v-10.1h-3.6v-1.2h8.8V4055.1z"/>
		<path class="st32" d="M628.3,4065.3c-0.1-0.2-0.2-0.5-0.2-0.9c-0.7,0.7-1.5,1-2.4,1c-0.8,0-1.5-0.2-2.1-0.7
			c-0.5-0.5-0.8-1.1-0.8-1.8c0-0.9,0.3-1.6,1-2.1c0.7-0.5,1.6-0.7,2.8-0.7h1.4v-0.7c0-0.5-0.2-0.9-0.5-1.2c-0.3-0.3-0.7-0.4-1.3-0.4
			c-0.5,0-0.9,0.1-1.3,0.4c-0.3,0.3-0.5,0.6-0.5,0.9H623c0-0.4,0.1-0.8,0.4-1.2c0.3-0.4,0.7-0.7,1.2-0.9c0.5-0.2,1.1-0.3,1.7-0.3
			c1,0,1.7,0.2,2.3,0.7c0.6,0.5,0.8,1.2,0.9,2v3.9c0,0.8,0.1,1.4,0.3,1.9v0.1H628.3z M625.9,4064.1c0.5,0,0.9-0.1,1.3-0.4
			s0.7-0.5,0.9-0.9v-1.7h-1.1c-1.8,0-2.7,0.5-2.7,1.6c0,0.5,0.2,0.8,0.5,1.1C625,4064,625.4,4064.1,625.9,4064.1z"/>
		<path class="st32" d="M638.9,4061.1c0,1.3-0.3,2.3-0.9,3.1s-1.4,1.2-2.4,1.2c-1.1,0-1.9-0.4-2.5-1.1l-0.1,1h-1.3v-12h1.4v4.5
			c0.6-0.7,1.4-1.1,2.4-1.1c1,0,1.8,0.4,2.4,1.2s0.9,1.8,0.9,3.2V4061.1z M637.5,4061c0-1-0.2-1.7-0.6-2.3c-0.4-0.5-0.9-0.8-1.6-0.8
			c-1,0-1.6,0.4-2.1,1.3v3.7c0.4,0.9,1.1,1.3,2.1,1.3c0.7,0,1.2-0.3,1.6-0.8C637.3,4062.8,637.5,4062,637.5,4061z"/>
		<path class="st32" d="M642.3,4065.3h-1.4v-12h1.4V4065.3z"/>
		<path class="st32" d="M649.9,4065.3c-0.1-0.2-0.2-0.5-0.2-0.9c-0.7,0.7-1.5,1-2.4,1c-0.8,0-1.5-0.2-2.1-0.7
			c-0.5-0.5-0.8-1.1-0.8-1.8c0-0.9,0.3-1.6,1-2.1c0.7-0.5,1.6-0.7,2.8-0.7h1.4v-0.7c0-0.5-0.2-0.9-0.5-1.2c-0.3-0.3-0.7-0.4-1.3-0.4
			c-0.5,0-0.9,0.1-1.3,0.4c-0.3,0.3-0.5,0.6-0.5,0.9h-1.5c0-0.4,0.1-0.8,0.4-1.2c0.3-0.4,0.7-0.7,1.2-0.9c0.5-0.2,1.1-0.3,1.7-0.3
			c1,0,1.7,0.2,2.3,0.7c0.6,0.5,0.8,1.2,0.9,2v3.9c0,0.8,0.1,1.4,0.3,1.9v0.1H649.9z M647.5,4064.1c0.5,0,0.9-0.1,1.3-0.4
			s0.7-0.5,0.9-0.9v-1.7h-1.1c-1.8,0-2.7,0.5-2.7,1.6c0,0.5,0.2,0.8,0.5,1.1C646.6,4064,647,4064.1,647.5,4064.1z"/>
		<path class="st32" d="M658.3,4063c0-0.4-0.1-0.7-0.4-0.9c-0.3-0.2-0.8-0.4-1.5-0.6c-0.7-0.2-1.3-0.3-1.7-0.6s-0.7-0.5-1-0.8
			c-0.2-0.3-0.3-0.7-0.3-1.1c0-0.7,0.3-1.3,0.9-1.8s1.3-0.7,2.2-0.7c1,0,1.7,0.2,2.3,0.7c0.6,0.5,0.9,1.1,0.9,1.9h-1.5
			c0-0.4-0.2-0.7-0.5-1s-0.8-0.4-1.3-0.4c-0.5,0-0.9,0.1-1.2,0.3s-0.4,0.5-0.4,0.9c0,0.3,0.1,0.6,0.4,0.8c0.3,0.2,0.8,0.3,1.5,0.5
			c0.7,0.2,1.3,0.4,1.8,0.6c0.4,0.2,0.8,0.5,1,0.8c0.2,0.3,0.3,0.7,0.3,1.2c0,0.8-0.3,1.4-0.9,1.8c-0.6,0.5-1.4,0.7-2.4,0.7
			c-0.7,0-1.3-0.1-1.8-0.4c-0.5-0.2-0.9-0.6-1.2-1c-0.3-0.4-0.4-0.9-0.4-1.4h1.4c0,0.5,0.2,0.9,0.6,1.2c0.4,0.3,0.8,0.4,1.4,0.4
			c0.5,0,1-0.1,1.3-0.3C658.1,4063.7,658.3,4063.4,658.3,4063z"/>
		<path class="st32" d="M661.6,4064.5c0-0.2,0.1-0.5,0.2-0.6s0.4-0.2,0.7-0.2s0.5,0.1,0.7,0.2c0.2,0.2,0.2,0.4,0.2,0.6
			c0,0.2-0.1,0.4-0.2,0.6c-0.2,0.2-0.4,0.2-0.7,0.2s-0.5-0.1-0.7-0.2S661.6,4064.7,661.6,4064.5z"/>
	</g>
	<g class="st41">
		<path class="st32" d="M608.3,4084.7c0,1-0.3,1.8-1,2.4c-0.7,0.7-1.5,1-2.4,1c-1,0-1.8-0.3-2.4-1s-1-1.5-1-2.4c0-1,0.3-1.8,1-2.4
			c0.7-0.7,1.5-1,2.4-1c1,0,1.8,0.3,2.4,1S608.3,4083.8,608.3,4084.7z"/>
	</g>
	<g class="st41">
		<path class="st32" d="M616.6,4089.3h-1.5v-11.4h1.5V4089.3z"/>
		<path class="st32" d="M620.4,4080.8l0,0.9c0.6-0.7,1.5-1.1,2.5-1.1c1.2,0,2,0.5,2.4,1.4c0.3-0.4,0.6-0.7,1.1-1
			c0.5-0.2,1-0.4,1.6-0.4c1.9,0,2.8,1,2.8,2.9v5.7h-1.4v-5.6c0-0.6-0.1-1.1-0.4-1.4c-0.3-0.3-0.7-0.4-1.4-0.4c-0.5,0-1,0.2-1.3,0.5
			c-0.4,0.3-0.6,0.8-0.6,1.3v5.6h-1.5v-5.5c0-1.2-0.6-1.8-1.8-1.8c-0.9,0-1.6,0.4-1.9,1.2v6.2h-1.4v-8.5H620.4z"/>
		<path class="st32" d="M638.3,4089.3c-0.1-0.2-0.2-0.5-0.2-0.9c-0.7,0.7-1.5,1-2.4,1c-0.8,0-1.5-0.2-2.1-0.7
			c-0.5-0.5-0.8-1.1-0.8-1.8c0-0.9,0.3-1.6,1-2.1c0.7-0.5,1.6-0.7,2.8-0.7h1.4v-0.7c0-0.5-0.2-0.9-0.5-1.2c-0.3-0.3-0.7-0.4-1.3-0.4
			c-0.5,0-0.9,0.1-1.3,0.4c-0.3,0.3-0.5,0.6-0.5,0.9H633c0-0.4,0.1-0.8,0.4-1.2c0.3-0.4,0.7-0.7,1.2-0.9c0.5-0.2,1.1-0.3,1.7-0.3
			c1,0,1.7,0.2,2.3,0.7c0.6,0.5,0.8,1.2,0.9,2v3.9c0,0.8,0.1,1.4,0.3,1.9v0.1H638.3z M635.9,4088.1c0.5,0,0.9-0.1,1.3-0.4
			s0.7-0.5,0.9-0.9v-1.7H637c-1.8,0-2.7,0.5-2.7,1.6c0,0.5,0.2,0.8,0.5,1.1C635.1,4088,635.4,4088.1,635.9,4088.1z M637.2,4077.3
			h1.8l-2.1,2.3l-1.2,0L637.2,4077.3z"/>
		<path class="st32" d="M641.5,4085c0-1.3,0.3-2.4,0.9-3.1s1.4-1.2,2.4-1.2c1,0,1.8,0.4,2.4,1.1l0.1-0.9h1.3v8.2c0,1.1-0.3,2-1,2.6
			s-1.5,0.9-2.6,0.9c-0.6,0-1.2-0.1-1.8-0.4c-0.6-0.3-1-0.6-1.3-1.1l0.8-0.9c0.6,0.8,1.4,1.1,2.3,1.1c0.7,0,1.3-0.2,1.6-0.6
			c0.4-0.4,0.6-1,0.6-1.7v-0.7c-0.6,0.7-1.4,1-2.4,1c-1,0-1.8-0.4-2.4-1.2C641.8,4087.4,641.5,4086.3,641.5,4085z M642.9,4085.1
			c0,1,0.2,1.7,0.6,2.2s0.9,0.8,1.6,0.8c0.9,0,1.6-0.4,2-1.2v-3.9c-0.4-0.8-1.1-1.2-2-1.2c-0.7,0-1.3,0.3-1.6,0.8
			C643.1,4083.2,642.9,4084,642.9,4085.1z"/>
		<path class="st32" d="M654.3,4089.4c-1.1,0-2.1-0.4-2.8-1.1s-1.1-1.8-1.1-3v-0.3c0-0.8,0.2-1.6,0.5-2.2s0.8-1.2,1.3-1.5
			c0.6-0.4,1.2-0.6,1.9-0.6c1.1,0,2,0.4,2.6,1.1s0.9,1.8,0.9,3.1v0.6h-5.7c0,0.8,0.3,1.5,0.7,2c0.5,0.5,1.1,0.8,1.8,0.8
			c0.5,0,0.9-0.1,1.3-0.3c0.4-0.2,0.7-0.5,0.9-0.8l0.9,0.7C656.8,4088.9,655.7,4089.4,654.3,4089.4z M654.1,4081.8
			c-0.6,0-1.1,0.2-1.5,0.6c-0.4,0.4-0.6,1-0.7,1.8h4.2v-0.1c0-0.7-0.2-1.3-0.6-1.7C655.2,4082,654.7,4081.8,654.1,4081.8z"/>
		<path class="st32" d="M660.6,4080.8l0,1.1c0.6-0.8,1.5-1.2,2.5-1.2c1.8,0,2.7,1,2.7,3v5.6h-1.4v-5.6c0-0.6-0.1-1.1-0.4-1.4
			s-0.7-0.4-1.3-0.4c-0.5,0-0.9,0.1-1.2,0.4c-0.4,0.2-0.6,0.6-0.8,1v6h-1.4v-8.5H660.6z"/>
		<path class="st32" d="M671.6,4089.4c-1.1,0-2.1-0.4-2.8-1.1s-1.1-1.8-1.1-3v-0.3c0-0.8,0.2-1.6,0.5-2.2s0.8-1.2,1.3-1.5
			c0.6-0.4,1.2-0.6,1.9-0.6c1.1,0,2,0.4,2.6,1.1s0.9,1.8,0.9,3.1v0.6h-5.7c0,0.8,0.3,1.5,0.7,2c0.5,0.5,1.1,0.8,1.8,0.8
			c0.5,0,0.9-0.1,1.3-0.3c0.4-0.2,0.7-0.5,0.9-0.8l0.9,0.7C674.1,4088.9,673,4089.4,671.6,4089.4z M671.4,4081.8
			c-0.6,0-1.1,0.2-1.5,0.6c-0.4,0.4-0.6,1-0.7,1.8h4.2v-0.1c0-0.7-0.2-1.3-0.6-1.7C672.5,4082,672,4081.8,671.4,4081.8z"/>
		<path class="st32" d="M681.5,4087c0-0.4-0.1-0.7-0.4-0.9c-0.3-0.2-0.8-0.4-1.5-0.6c-0.7-0.2-1.3-0.3-1.7-0.6s-0.7-0.5-1-0.8
			c-0.2-0.3-0.3-0.7-0.3-1.1c0-0.7,0.3-1.3,0.9-1.8s1.3-0.7,2.2-0.7c1,0,1.7,0.2,2.3,0.7c0.6,0.5,0.9,1.1,0.9,1.9h-1.5
			c0-0.4-0.2-0.7-0.5-1s-0.8-0.4-1.3-0.4c-0.5,0-0.9,0.1-1.2,0.3s-0.4,0.5-0.4,0.9c0,0.3,0.1,0.6,0.4,0.8c0.3,0.2,0.8,0.3,1.5,0.5
			c0.7,0.2,1.3,0.4,1.8,0.6c0.4,0.2,0.8,0.5,1,0.8c0.2,0.3,0.3,0.7,0.3,1.2c0,0.8-0.3,1.4-0.9,1.8c-0.6,0.5-1.4,0.7-2.4,0.7
			c-0.7,0-1.3-0.1-1.8-0.4c-0.5-0.2-0.9-0.6-1.2-1c-0.3-0.4-0.4-0.9-0.4-1.4h1.4c0,0.5,0.2,0.9,0.6,1.2c0.4,0.3,0.8,0.4,1.4,0.4
			c0.5,0,1-0.1,1.3-0.3C681.3,4087.7,681.5,4087.4,681.5,4087z"/>
		<path class="st32" d="M684.8,4088.5c0-0.2,0.1-0.5,0.2-0.6s0.4-0.2,0.7-0.2s0.5,0.1,0.7,0.2c0.2,0.2,0.2,0.4,0.2,0.6
			c0,0.2-0.1,0.4-0.2,0.6c-0.2,0.2-0.4,0.2-0.7,0.2s-0.5-0.1-0.7-0.2S684.8,4088.7,684.8,4088.5z"/>
	</g>
	<g class="st41">
		<path class="st32" d="M608.3,4108.7c0,1-0.3,1.8-1,2.4c-0.7,0.7-1.5,1-2.4,1c-1,0-1.8-0.3-2.4-1s-1-1.5-1-2.4c0-1,0.3-1.8,1-2.4
			c0.7-0.7,1.5-1,2.4-1c1,0,1.8,0.3,2.4,1S608.3,4107.8,608.3,4108.7z"/>
	</g>
	<g class="st41">
		<path class="st32" d="M616.6,4113.3h-1.5v-11.4h1.5V4113.3z"/>
		<path class="st32" d="M620.6,4113.3h-1.4v-12h1.4V4113.3z"/>
		<path class="st32" d="M628.2,4112.4c-0.6,0.7-1.4,1-2.5,1c-0.9,0-1.6-0.3-2.1-0.8c-0.5-0.5-0.7-1.3-0.7-2.3v-5.5h1.4v5.5
			c0,1.3,0.5,1.9,1.6,1.9c1.1,0,1.8-0.4,2.2-1.2v-6.1h1.4v8.5h-1.4L628.2,4112.4z"/>
		<path class="st32" d="M636.7,4111c0-0.4-0.1-0.7-0.4-0.9c-0.3-0.2-0.8-0.4-1.5-0.6c-0.7-0.2-1.3-0.3-1.7-0.6s-0.7-0.5-1-0.8
			c-0.2-0.3-0.3-0.7-0.3-1.1c0-0.7,0.3-1.3,0.9-1.8s1.3-0.7,2.2-0.7c1,0,1.7,0.2,2.3,0.7c0.6,0.5,0.9,1.1,0.9,1.9h-1.5
			c0-0.4-0.2-0.7-0.5-1s-0.8-0.4-1.3-0.4c-0.5,0-0.9,0.1-1.2,0.3s-0.4,0.5-0.4,0.9c0,0.3,0.1,0.6,0.4,0.8c0.3,0.2,0.8,0.3,1.5,0.5
			c0.7,0.2,1.3,0.4,1.8,0.6c0.4,0.2,0.8,0.5,1,0.8c0.2,0.3,0.3,0.7,0.3,1.2c0,0.8-0.3,1.4-0.9,1.8c-0.6,0.5-1.4,0.7-2.4,0.7
			c-0.7,0-1.3-0.1-1.8-0.4c-0.5-0.2-0.9-0.6-1.2-1c-0.3-0.4-0.4-0.9-0.4-1.4h1.4c0,0.5,0.2,0.9,0.6,1.2c0.4,0.3,0.8,0.4,1.4,0.4
			c0.5,0,1-0.1,1.3-0.3C636.5,4111.7,636.7,4111.4,636.7,4111z"/>
		<path class="st32" d="M642,4102.8v2h1.6v1.1H642v5.2c0,0.3,0.1,0.6,0.2,0.8c0.1,0.2,0.4,0.3,0.7,0.3c0.2,0,0.4,0,0.7-0.1v1.2
			c-0.4,0.1-0.8,0.2-1.1,0.2c-0.6,0-1.1-0.2-1.5-0.6s-0.5-0.9-0.5-1.7v-5.2H639v-1.1h1.5v-2H642z"/>
		<path class="st32" d="M649.3,4106.1c-0.2,0-0.5-0.1-0.7-0.1c-0.9,0-1.6,0.4-1.9,1.2v6h-1.4v-8.5h1.4l0,1c0.5-0.8,1.1-1.1,2-1.1
			c0.3,0,0.5,0,0.6,0.1V4106.1z"/>
		<path class="st32" d="M655.6,4113.3c-0.1-0.2-0.2-0.5-0.2-0.9c-0.7,0.7-1.5,1-2.4,1c-0.8,0-1.5-0.2-2.1-0.7
			c-0.5-0.5-0.8-1.1-0.8-1.8c0-0.9,0.3-1.6,1-2.1c0.7-0.5,1.6-0.7,2.8-0.7h1.4v-0.7c0-0.5-0.2-0.9-0.5-1.2c-0.3-0.3-0.7-0.4-1.3-0.4
			c-0.5,0-0.9,0.1-1.3,0.4c-0.3,0.3-0.5,0.6-0.5,0.9h-1.5c0-0.4,0.1-0.8,0.4-1.2c0.3-0.4,0.7-0.7,1.2-0.9c0.5-0.2,1.1-0.3,1.7-0.3
			c1,0,1.7,0.2,2.3,0.7c0.6,0.5,0.8,1.2,0.9,2v3.9c0,0.8,0.1,1.4,0.3,1.9v0.1H655.6z M653.2,4112.1c0.5,0,0.9-0.1,1.3-0.4
			s0.7-0.5,0.9-0.9v-1.7h-1.1c-1.8,0-2.7,0.5-2.7,1.6c0,0.5,0.2,0.8,0.5,1.1C652.3,4112,652.7,4112.1,653.2,4112.1z"/>
		<path class="st32" d="M662.4,4112.2c0.5,0,1-0.2,1.4-0.5c0.4-0.3,0.6-0.7,0.6-1.2h1.4c0,0.5-0.2,0.9-0.5,1.4
			c-0.3,0.4-0.7,0.8-1.2,1c-0.5,0.3-1.1,0.4-1.6,0.4c-1.2,0-2.1-0.4-2.7-1.2s-1-1.8-1-3.2v-0.2c0-0.8,0.2-1.6,0.5-2.2
			c0.3-0.6,0.7-1.1,1.3-1.5c0.6-0.4,1.2-0.5,2-0.5c0.9,0,1.7,0.3,2.4,0.9c0.6,0.6,1,1.3,1,2.2h-1.4c0-0.5-0.2-1-0.6-1.3
			c-0.4-0.4-0.8-0.5-1.4-0.5c-0.7,0-1.3,0.3-1.7,0.8c-0.4,0.5-0.6,1.3-0.6,2.3v0.3c0,1,0.2,1.7,0.6,2.2
			C661.1,4112,661.7,4112.2,662.4,4112.2z"/>
		<path class="st32" d="M667.4,4102.6c0-0.2,0.1-0.4,0.2-0.6c0.1-0.2,0.4-0.2,0.6-0.2s0.5,0.1,0.6,0.2c0.1,0.2,0.2,0.4,0.2,0.6
			s-0.1,0.4-0.2,0.6c-0.1,0.2-0.4,0.2-0.6,0.2s-0.5-0.1-0.6-0.2C667.5,4103,667.4,4102.8,667.4,4102.6z M669,4113.3h-1.4v-8.5h1.4
			V4113.3z"/>
		<path class="st32" d="M670.9,4108.9c0-0.8,0.2-1.6,0.5-2.2c0.3-0.7,0.8-1.2,1.4-1.5c0.6-0.4,1.2-0.5,2-0.5c1.2,0,2.1,0.4,2.8,1.2
			s1.1,1.9,1.1,3.2v0.1c0,0.8-0.2,1.6-0.5,2.2c-0.3,0.7-0.8,1.2-1.4,1.5s-1.3,0.5-2,0.5c-1.1,0-2.1-0.4-2.8-1.2s-1.1-1.9-1.1-3.2
			V4108.9z M672.4,4109.1c0,0.9,0.2,1.7,0.7,2.3c0.4,0.6,1,0.9,1.7,0.9c0.7,0,1.3-0.3,1.8-0.9c0.4-0.6,0.6-1.4,0.6-2.4
			c0-0.9-0.2-1.7-0.7-2.3c-0.4-0.6-1-0.9-1.8-0.9c-0.7,0-1.3,0.3-1.7,0.9S672.4,4108.1,672.4,4109.1z"/>
		<path class="st32" d="M681.8,4104.8l0,1.1c0.6-0.8,1.5-1.2,2.5-1.2c1.8,0,2.7,1,2.7,3v5.6h-1.4v-5.6c0-0.6-0.1-1.1-0.4-1.4
			s-0.7-0.4-1.3-0.4c-0.5,0-0.9,0.1-1.2,0.4c-0.4,0.2-0.6,0.6-0.8,1v6h-1.4v-8.5H681.8z"/>
		<path class="st32" d="M692.8,4113.4c-1.1,0-2.1-0.4-2.8-1.1s-1.1-1.8-1.1-3v-0.3c0-0.8,0.2-1.6,0.5-2.2s0.8-1.2,1.3-1.5
			c0.6-0.4,1.2-0.6,1.9-0.6c1.1,0,2,0.4,2.6,1.1s0.9,1.8,0.9,3.1v0.6h-5.7c0,0.8,0.3,1.5,0.7,2c0.5,0.5,1.1,0.8,1.8,0.8
			c0.5,0,0.9-0.1,1.3-0.3c0.4-0.2,0.7-0.5,0.9-0.8l0.9,0.7C695.3,4112.9,694.2,4113.4,692.8,4113.4z M692.6,4105.8
			c-0.6,0-1.1,0.2-1.5,0.6c-0.4,0.4-0.6,1-0.7,1.8h4.2v-0.1c0-0.7-0.2-1.3-0.6-1.7C693.7,4106,693.2,4105.8,692.6,4105.8z"/>
		<path class="st32" d="M702.7,4111c0-0.4-0.1-0.7-0.4-0.9c-0.3-0.2-0.8-0.4-1.5-0.6c-0.7-0.2-1.3-0.3-1.7-0.6s-0.7-0.5-1-0.8
			c-0.2-0.3-0.3-0.7-0.3-1.1c0-0.7,0.3-1.3,0.9-1.8s1.3-0.7,2.2-0.7c1,0,1.7,0.2,2.3,0.7c0.6,0.5,0.9,1.1,0.9,1.9h-1.5
			c0-0.4-0.2-0.7-0.5-1s-0.8-0.4-1.3-0.4c-0.5,0-0.9,0.1-1.2,0.3s-0.4,0.5-0.4,0.9c0,0.3,0.1,0.6,0.4,0.8c0.3,0.2,0.8,0.3,1.5,0.5
			c0.7,0.2,1.3,0.4,1.8,0.6c0.4,0.2,0.8,0.5,1,0.8c0.2,0.3,0.3,0.7,0.3,1.2c0,0.8-0.3,1.4-0.9,1.8c-0.6,0.5-1.4,0.7-2.4,0.7
			c-0.7,0-1.3-0.1-1.8-0.4c-0.5-0.2-0.9-0.6-1.2-1c-0.3-0.4-0.4-0.9-0.4-1.4h1.4c0,0.5,0.2,0.9,0.6,1.2c0.4,0.3,0.8,0.4,1.4,0.4
			c0.5,0,1-0.1,1.3-0.3C702.5,4111.7,702.7,4111.4,702.7,4111z"/>
		<path class="st32" d="M709.9,4108.6c0-1.2,0.2-2.3,0.5-3.4c0.3-1.1,0.8-2.1,1.4-3s1.3-1.5,1.9-1.9l0.3,1c-0.8,0.6-1.4,1.5-1.9,2.7
			c-0.5,1.2-0.8,2.5-0.8,4l0,0.7c0,2,0.4,3.8,1.1,5.2c0.4,0.9,1,1.6,1.6,2.1l-0.3,0.9c-0.7-0.4-1.4-1-2-1.9
			C710.5,4113.2,709.9,4111.1,709.9,4108.6z"/>
		<path class="st32" d="M715.1,4109c0-1.3,0.3-2.3,0.9-3.1c0.6-0.8,1.4-1.2,2.4-1.2c1,0,1.8,0.3,2.4,1v-4.4h1.4v12h-1.3l-0.1-0.9
			c-0.6,0.7-1.4,1.1-2.4,1.1c-1,0-1.8-0.4-2.4-1.2s-0.9-1.8-0.9-3.1V4109z M716.5,4109.1c0,1,0.2,1.7,0.6,2.2
			c0.4,0.5,0.9,0.8,1.6,0.8c0.9,0,1.6-0.4,2-1.2v-3.9c-0.4-0.8-1.1-1.2-2-1.2c-0.7,0-1.3,0.3-1.7,0.8
			C716.7,4107.2,716.5,4108,716.5,4109.1z"/>
		<path class="st32" d="M724.5,4102.6c0-0.2,0.1-0.4,0.2-0.6c0.1-0.2,0.4-0.2,0.6-0.2s0.5,0.1,0.6,0.2c0.1,0.2,0.2,0.4,0.2,0.6
			s-0.1,0.4-0.2,0.6c-0.1,0.2-0.4,0.2-0.6,0.2s-0.5-0.1-0.6-0.2C724.5,4103,724.5,4102.8,724.5,4102.6z M726,4113.3h-1.4v-8.5h1.4
			V4113.3z"/>
		<path class="st32" d="M735.5,4109.1c0,1.3-0.3,2.3-0.9,3.1s-1.4,1.2-2.4,1.2c-1.1,0-1.9-0.4-2.5-1.1l-0.1,1h-1.3v-12h1.4v4.5
			c0.6-0.7,1.4-1.1,2.4-1.1c1,0,1.8,0.4,2.4,1.2s0.9,1.8,0.9,3.2V4109.1z M734,4109c0-1-0.2-1.7-0.6-2.3c-0.4-0.5-0.9-0.8-1.6-0.8
			c-1,0-1.6,0.4-2.1,1.3v3.7c0.4,0.9,1.1,1.3,2.1,1.3c0.7,0,1.2-0.3,1.6-0.8C733.8,4110.8,734,4110,734,4109z"/>
		<path class="st32" d="M742.5,4112.4c-0.6,0.7-1.4,1-2.5,1c-0.9,0-1.6-0.3-2.1-0.8c-0.5-0.5-0.7-1.3-0.7-2.3v-5.5h1.4v5.5
			c0,1.3,0.5,1.9,1.6,1.9c1.1,0,1.8-0.4,2.2-1.2v-6.1h1.4v8.5h-1.4L742.5,4112.4z"/>
		<path class="st32" d="M747.6,4104.8v9.4c0,1.6-0.7,2.4-2.2,2.4c-0.3,0-0.6,0-0.9-0.1v-1.1c0.2,0,0.4,0.1,0.7,0.1
			c0.3,0,0.6-0.1,0.7-0.3c0.2-0.2,0.3-0.5,0.3-0.9v-9.5H747.6z M746,4102.6c0-0.2,0.1-0.4,0.2-0.6c0.1-0.2,0.4-0.2,0.6-0.2
			c0.3,0,0.5,0.1,0.6,0.2c0.1,0.2,0.2,0.4,0.2,0.6s-0.1,0.4-0.2,0.6c-0.1,0.2-0.4,0.2-0.6,0.2s-0.5-0.1-0.6-0.2
			S746,4102.8,746,4102.6z"/>
		<path class="st32" d="M749.6,4108.9c0-0.8,0.2-1.6,0.5-2.2c0.3-0.7,0.8-1.2,1.4-1.5c0.6-0.4,1.2-0.5,2-0.5c1.2,0,2.1,0.4,2.8,1.2
			s1.1,1.9,1.1,3.2v0.1c0,0.8-0.2,1.6-0.5,2.2c-0.3,0.7-0.8,1.2-1.4,1.5s-1.3,0.5-2,0.5c-1.1,0-2.1-0.4-2.8-1.2s-1.1-1.9-1.1-3.2
			V4108.9z M751,4109.1c0,0.9,0.2,1.7,0.7,2.3c0.4,0.6,1,0.9,1.7,0.9c0.7,0,1.3-0.3,1.8-0.9c0.4-0.6,0.6-1.4,0.6-2.4
			c0-0.9-0.2-1.7-0.7-2.3c-0.4-0.6-1-0.9-1.8-0.9c-0.7,0-1.3,0.3-1.7,0.9S751,4108.1,751,4109.1z"/>
		<path class="st32" d="M764,4111c0-0.4-0.1-0.7-0.4-0.9c-0.3-0.2-0.8-0.4-1.5-0.6c-0.7-0.2-1.3-0.3-1.7-0.6s-0.7-0.5-1-0.8
			c-0.2-0.3-0.3-0.7-0.3-1.1c0-0.7,0.3-1.3,0.9-1.8s1.3-0.7,2.2-0.7c1,0,1.7,0.2,2.3,0.7c0.6,0.5,0.9,1.1,0.9,1.9h-1.5
			c0-0.4-0.2-0.7-0.5-1s-0.8-0.4-1.3-0.4c-0.5,0-0.9,0.1-1.2,0.3s-0.4,0.5-0.4,0.9c0,0.3,0.1,0.6,0.4,0.8c0.3,0.2,0.8,0.3,1.5,0.5
			c0.7,0.2,1.3,0.4,1.8,0.6c0.4,0.2,0.8,0.5,1,0.8c0.2,0.3,0.3,0.7,0.3,1.2c0,0.8-0.3,1.4-0.9,1.8c-0.6,0.5-1.4,0.7-2.4,0.7
			c-0.7,0-1.3-0.1-1.8-0.4c-0.5-0.2-0.9-0.6-1.2-1c-0.3-0.4-0.4-0.9-0.4-1.4h1.4c0,0.5,0.2,0.9,0.6,1.2c0.4,0.3,0.8,0.4,1.4,0.4
			c0.5,0,1-0.1,1.3-0.3C763.8,4111.7,764,4111.4,764,4111z"/>
		<path class="st32" d="M770.7,4108.7c0,1.2-0.2,2.3-0.5,3.3s-0.8,2-1.4,2.9c-0.6,0.9-1.3,1.5-2,1.9l-0.3-0.9
			c0.8-0.6,1.4-1.6,1.9-2.9c0.5-1.3,0.7-2.7,0.7-4.3v-0.2c0-1.1-0.1-2.1-0.3-3.1c-0.2-0.9-0.5-1.8-1-2.5c-0.4-0.7-0.9-1.3-1.4-1.7
			l0.3-0.9c0.7,0.4,1.3,1,2,1.9c0.6,0.9,1.1,1.9,1.4,2.9C770.5,4106.3,770.7,4107.5,770.7,4108.7z"/>
		<path class="st32" d="M772.9,4112.5c0-0.2,0.1-0.5,0.2-0.6s0.4-0.2,0.7-0.2s0.5,0.1,0.7,0.2c0.2,0.2,0.2,0.4,0.2,0.6
			c0,0.2-0.1,0.4-0.2,0.6c-0.2,0.2-0.4,0.2-0.7,0.2s-0.5-0.1-0.7-0.2S772.9,4112.7,772.9,4112.5z"/>
	</g>
	<g class="st41">
		<path class="st32" d="M608.3,4132.7c0,1-0.3,1.8-1,2.4c-0.7,0.7-1.5,1-2.4,1c-1,0-1.8-0.3-2.4-1s-1-1.5-1-2.4c0-1,0.3-1.8,1-2.4
			c0.7-0.7,1.5-1,2.4-1c1,0,1.8,0.3,2.4,1S608.3,4131.8,608.3,4132.7z"/>
	</g>
	<g class="st41">
		<path class="st32" d="M621.4,4132h-4.9v4h5.7v1.2h-7.2v-11.4h7.1v1.2h-5.6v3.7h4.9V4132z"/>
		<path class="st32" d="M627.1,4136.2c0.5,0,1-0.2,1.4-0.5c0.4-0.3,0.6-0.7,0.6-1.2h1.4c0,0.5-0.2,0.9-0.5,1.4
			c-0.3,0.4-0.7,0.8-1.2,1c-0.5,0.3-1.1,0.4-1.6,0.4c-1.2,0-2.1-0.4-2.7-1.2s-1-1.8-1-3.2v-0.2c0-0.8,0.2-1.6,0.5-2.2
			c0.3-0.6,0.7-1.1,1.3-1.5c0.6-0.4,1.2-0.5,2-0.5c0.9,0,1.7,0.3,2.4,0.9c0.6,0.6,1,1.3,1,2.2H629c0-0.5-0.2-1-0.6-1.3
			c-0.4-0.4-0.8-0.5-1.4-0.5c-0.7,0-1.3,0.3-1.7,0.8c-0.4,0.5-0.6,1.3-0.6,2.3v0.3c0,1,0.2,1.7,0.6,2.2
			C625.7,4136,626.3,4136.2,627.1,4136.2z"/>
		<path class="st32" d="M637.3,4136.4c-0.6,0.7-1.4,1-2.5,1c-0.9,0-1.6-0.3-2.1-0.8c-0.5-0.5-0.7-1.3-0.7-2.3v-5.5h1.4v5.5
			c0,1.3,0.5,1.9,1.6,1.9c1.1,0,1.8-0.4,2.2-1.2v-6.1h1.4v8.5h-1.4L637.3,4136.4z"/>
		<path class="st32" d="M646.1,4137.3c-0.1-0.2-0.2-0.5-0.2-0.9c-0.7,0.7-1.5,1-2.4,1c-0.8,0-1.5-0.2-2.1-0.7
			c-0.5-0.5-0.8-1.1-0.8-1.8c0-0.9,0.3-1.6,1-2.1c0.7-0.5,1.6-0.7,2.8-0.7h1.4v-0.7c0-0.5-0.2-0.9-0.5-1.2c-0.3-0.3-0.7-0.4-1.3-0.4
			c-0.5,0-0.9,0.1-1.3,0.4c-0.3,0.3-0.5,0.6-0.5,0.9h-1.5c0-0.4,0.1-0.8,0.4-1.2c0.3-0.4,0.7-0.7,1.2-0.9c0.5-0.2,1.1-0.3,1.7-0.3
			c1,0,1.7,0.2,2.3,0.7c0.6,0.5,0.8,1.2,0.9,2v3.9c0,0.8,0.1,1.4,0.3,1.9v0.1H646.1z M643.7,4136.1c0.5,0,0.9-0.1,1.3-0.4
			s0.7-0.5,0.9-0.9v-1.7h-1.1c-1.8,0-2.7,0.5-2.7,1.6c0,0.5,0.2,0.8,0.5,1.1C642.8,4136,643.2,4136.1,643.7,4136.1z"/>
		<path class="st32" d="M653,4136.2c0.5,0,1-0.2,1.4-0.5c0.4-0.3,0.6-0.7,0.6-1.2h1.4c0,0.5-0.2,0.9-0.5,1.4c-0.3,0.4-0.7,0.8-1.2,1
			c-0.5,0.3-1.1,0.4-1.6,0.4c-1.2,0-2.1-0.4-2.7-1.2s-1-1.8-1-3.2v-0.2c0-0.8,0.2-1.6,0.5-2.2c0.3-0.6,0.7-1.1,1.3-1.5
			c0.6-0.4,1.2-0.5,2-0.5c0.9,0,1.7,0.3,2.4,0.9c0.6,0.6,1,1.3,1,2.2h-1.4c0-0.5-0.2-1-0.6-1.3c-0.4-0.4-0.8-0.5-1.4-0.5
			c-0.7,0-1.3,0.3-1.7,0.8c-0.4,0.5-0.6,1.3-0.6,2.3v0.3c0,1,0.2,1.7,0.6,2.2C651.6,4136,652.2,4136.2,653,4136.2z"/>
		<path class="st32" d="M657.9,4126.6c0-0.2,0.1-0.4,0.2-0.6c0.1-0.2,0.4-0.2,0.6-0.2s0.5,0.1,0.6,0.2c0.1,0.2,0.2,0.4,0.2,0.6
			s-0.1,0.4-0.2,0.6c-0.1,0.2-0.4,0.2-0.6,0.2s-0.5-0.1-0.6-0.2C658,4127,657.9,4126.8,657.9,4126.6z M659.5,4137.3h-1.4v-8.5h1.4
			V4137.3z"/>
		<path class="st32" d="M661.4,4132.9c0-0.8,0.2-1.6,0.5-2.2c0.3-0.7,0.8-1.2,1.4-1.5c0.6-0.4,1.2-0.5,2-0.5c1.2,0,2.1,0.4,2.8,1.2
			s1.1,1.9,1.1,3.2v0.1c0,0.8-0.2,1.6-0.5,2.2c-0.3,0.7-0.8,1.2-1.4,1.5s-1.3,0.5-2,0.5c-1.1,0-2.1-0.4-2.8-1.2s-1.1-1.9-1.1-3.2
			V4132.9z M662.9,4133.1c0,0.9,0.2,1.7,0.7,2.3c0.4,0.6,1,0.9,1.7,0.9c0.7,0,1.3-0.3,1.8-0.9c0.4-0.6,0.6-1.4,0.6-2.4
			c0-0.9-0.2-1.7-0.7-2.3c-0.4-0.6-1-0.9-1.8-0.9c-0.7,0-1.3,0.3-1.7,0.9S662.9,4132.1,662.9,4133.1z"/>
		<path class="st32" d="M672.3,4128.8l0,1.1c0.6-0.8,1.5-1.2,2.5-1.2c1.8,0,2.7,1,2.7,3v5.6h-1.4v-5.6c0-0.6-0.1-1.1-0.4-1.4
			s-0.7-0.4-1.3-0.4c-0.5,0-0.9,0.1-1.2,0.4c-0.4,0.2-0.6,0.6-0.8,1v6h-1.4v-8.5H672.3z"/>
		<path class="st32" d="M683.3,4137.4c-1.1,0-2.1-0.4-2.8-1.1s-1.1-1.8-1.1-3v-0.3c0-0.8,0.2-1.6,0.5-2.2s0.8-1.2,1.3-1.5
			c0.6-0.4,1.2-0.6,1.9-0.6c1.1,0,2,0.4,2.6,1.1s0.9,1.8,0.9,3.1v0.6h-5.7c0,0.8,0.3,1.5,0.7,2c0.5,0.5,1.1,0.8,1.8,0.8
			c0.5,0,0.9-0.1,1.3-0.3c0.4-0.2,0.7-0.5,0.9-0.8l0.9,0.7C685.8,4136.9,684.7,4137.4,683.3,4137.4z M683.1,4129.8
			c-0.6,0-1.1,0.2-1.5,0.6c-0.4,0.4-0.6,1-0.7,1.8h4.2v-0.1c0-0.7-0.2-1.3-0.6-1.7C684.2,4130,683.7,4129.8,683.1,4129.8z"/>
		<path class="st32" d="M693.2,4135c0-0.4-0.1-0.7-0.4-0.9c-0.3-0.2-0.8-0.4-1.5-0.6c-0.7-0.2-1.3-0.3-1.7-0.6s-0.7-0.5-1-0.8
			c-0.2-0.3-0.3-0.7-0.3-1.1c0-0.7,0.3-1.3,0.9-1.8s1.3-0.7,2.2-0.7c1,0,1.7,0.2,2.3,0.7c0.6,0.5,0.9,1.1,0.9,1.9h-1.5
			c0-0.4-0.2-0.7-0.5-1s-0.8-0.4-1.3-0.4c-0.5,0-0.9,0.1-1.2,0.3s-0.4,0.5-0.4,0.9c0,0.3,0.1,0.6,0.4,0.8c0.3,0.2,0.8,0.3,1.5,0.5
			c0.7,0.2,1.3,0.4,1.8,0.6c0.4,0.2,0.8,0.5,1,0.8c0.2,0.3,0.3,0.7,0.3,1.2c0,0.8-0.3,1.4-0.9,1.8c-0.6,0.5-1.4,0.7-2.4,0.7
			c-0.7,0-1.3-0.1-1.8-0.4c-0.5-0.2-0.9-0.6-1.2-1c-0.3-0.4-0.4-0.9-0.4-1.4h1.4c0,0.5,0.2,0.9,0.6,1.2c0.4,0.3,0.8,0.4,1.4,0.4
			c0.5,0,1-0.1,1.3-0.3C693,4135.7,693.2,4135.4,693.2,4135z"/>
		<path class="st32" d="M696.5,4136.5c0-0.2,0.1-0.5,0.2-0.6s0.4-0.2,0.7-0.2s0.5,0.1,0.7,0.2c0.2,0.2,0.2,0.4,0.2,0.6
			c0,0.2-0.1,0.4-0.2,0.6c-0.2,0.2-0.4,0.2-0.7,0.2s-0.5-0.1-0.7-0.2S696.5,4136.7,696.5,4136.5z"/>
	</g>
	<g class="st41">
		<path class="st32" d="M608.3,4156.7c0,1-0.3,1.8-1,2.4c-0.7,0.7-1.5,1-2.4,1c-1,0-1.8-0.3-2.4-1s-1-1.5-1-2.4c0-1,0.3-1.8,1-2.4
			c0.7-0.7,1.5-1,2.4-1c1,0,1.8,0.3,2.4,1S608.3,4155.8,608.3,4156.7z"/>
	</g>
	<g class="st41">
		<path class="st32" d="M618.7,4159.3l3.2-9.4h1.6l-4.2,11.4h-1.3l-4.2-11.4h1.6L618.7,4159.3z"/>
		<path class="st32" d="M624.9,4150.6c0-0.2,0.1-0.4,0.2-0.6c0.1-0.2,0.4-0.2,0.6-0.2s0.5,0.1,0.6,0.2c0.1,0.2,0.2,0.4,0.2,0.6
			s-0.1,0.4-0.2,0.6c-0.1,0.2-0.4,0.2-0.6,0.2s-0.5-0.1-0.6-0.2C625,4151,624.9,4150.8,624.9,4150.6z M626.5,4161.3H625v-8.5h1.4
			V4161.3z"/>
		<path class="st32" d="M628.4,4157c0-1.3,0.3-2.3,0.9-3.1c0.6-0.8,1.4-1.2,2.4-1.2c1,0,1.8,0.3,2.4,1v-4.4h1.4v12h-1.3l-0.1-0.9
			c-0.6,0.7-1.4,1.1-2.4,1.1c-1,0-1.8-0.4-2.4-1.2s-0.9-1.8-0.9-3.1V4157z M629.9,4157.1c0,1,0.2,1.7,0.6,2.2
			c0.4,0.5,0.9,0.8,1.6,0.8c0.9,0,1.6-0.4,2-1.2v-3.9c-0.4-0.8-1.1-1.2-2-1.2c-0.7,0-1.3,0.3-1.7,0.8
			C630.1,4155.2,629.9,4156,629.9,4157.1z"/>
		<path class="st32" d="M641.3,4161.4c-1.1,0-2.1-0.4-2.8-1.1s-1.1-1.8-1.1-3v-0.3c0-0.8,0.2-1.6,0.5-2.2s0.8-1.2,1.3-1.5
			c0.6-0.4,1.2-0.6,1.9-0.6c1.1,0,2,0.4,2.6,1.1s0.9,1.8,0.9,3.1v0.6h-5.7c0,0.8,0.3,1.5,0.7,2c0.5,0.5,1.1,0.8,1.8,0.8
			c0.5,0,0.9-0.1,1.3-0.3c0.4-0.2,0.7-0.5,0.9-0.8l0.9,0.7C643.8,4160.9,642.7,4161.4,641.3,4161.4z M641.1,4153.8
			c-0.6,0-1.1,0.2-1.5,0.6c-0.4,0.4-0.6,1-0.7,1.8h4.2v-0.1c0-0.7-0.2-1.3-0.6-1.7C642.2,4154,641.7,4153.8,641.1,4153.8z"/>
		<path class="st32" d="M645.9,4156.9c0-0.8,0.2-1.6,0.5-2.2c0.3-0.7,0.8-1.2,1.4-1.5c0.6-0.4,1.2-0.5,2-0.5c1.2,0,2.1,0.4,2.8,1.2
			s1.1,1.9,1.1,3.2v0.1c0,0.8-0.2,1.6-0.5,2.2c-0.3,0.7-0.8,1.2-1.4,1.5s-1.3,0.5-2,0.5c-1.1,0-2.1-0.4-2.8-1.2s-1.1-1.9-1.1-3.2
			V4156.9z M647.4,4157.1c0,0.9,0.2,1.7,0.7,2.3c0.4,0.6,1,0.9,1.7,0.9c0.7,0,1.3-0.3,1.8-0.9c0.4-0.6,0.6-1.4,0.6-2.4
			c0-0.9-0.2-1.7-0.7-2.3c-0.4-0.6-1-0.9-1.8-0.9c-0.7,0-1.3,0.3-1.7,0.9S647.4,4156.1,647.4,4157.1z"/>
		<path class="st32" d="M660.3,4159c0-0.4-0.1-0.7-0.4-0.9c-0.3-0.2-0.8-0.4-1.5-0.6c-0.7-0.2-1.3-0.3-1.7-0.6s-0.7-0.5-1-0.8
			c-0.2-0.3-0.3-0.7-0.3-1.1c0-0.7,0.3-1.3,0.9-1.8s1.3-0.7,2.2-0.7c1,0,1.7,0.2,2.3,0.7c0.6,0.5,0.9,1.1,0.9,1.9h-1.5
			c0-0.4-0.2-0.7-0.5-1s-0.8-0.4-1.3-0.4c-0.5,0-0.9,0.1-1.2,0.3s-0.4,0.5-0.4,0.9c0,0.3,0.1,0.6,0.4,0.8c0.3,0.2,0.8,0.3,1.5,0.5
			c0.7,0.2,1.3,0.4,1.8,0.6c0.4,0.2,0.8,0.5,1,0.8c0.2,0.3,0.3,0.7,0.3,1.2c0,0.8-0.3,1.4-0.9,1.8c-0.6,0.5-1.4,0.7-2.4,0.7
			c-0.7,0-1.3-0.1-1.8-0.4c-0.5-0.2-0.9-0.6-1.2-1c-0.3-0.4-0.4-0.9-0.4-1.4h1.4c0,0.5,0.2,0.9,0.6,1.2c0.4,0.3,0.8,0.4,1.4,0.4
			c0.5,0,1-0.1,1.3-0.3C660.2,4159.7,660.3,4159.4,660.3,4159z"/>
		<path class="st32" d="M663.7,4160.5c0-0.2,0.1-0.5,0.2-0.6s0.4-0.2,0.7-0.2s0.5,0.1,0.7,0.2c0.2,0.2,0.2,0.4,0.2,0.6
			c0,0.2-0.1,0.4-0.2,0.6c-0.2,0.2-0.4,0.2-0.7,0.2s-0.5-0.1-0.7-0.2S663.7,4160.7,663.7,4160.5z"/>
	</g>
	<g class="st41">
		<path class="st32" d="M608.3,4180.7c0,1-0.3,1.8-1,2.4c-0.7,0.7-1.5,1-2.4,1c-1,0-1.8-0.3-2.4-1s-1-1.5-1-2.4c0-1,0.3-1.8,1-2.4
			c0.7-0.7,1.5-1,2.4-1c1,0,1.8,0.3,2.4,1S608.3,4179.8,608.3,4180.7z"/>
	</g>
	<g class="st41">
		<path class="st32" d="M621.2,4182.3h-4.8l-1.1,3h-1.5l4.3-11.4h1.3l4.4,11.4h-1.5L621.2,4182.3z M616.9,4181h3.9l-1.9-5.3
			L616.9,4181z"/>
		<path class="st32" d="M630.3,4184.4c-0.6,0.7-1.4,1-2.5,1c-0.9,0-1.6-0.3-2.1-0.8c-0.5-0.5-0.7-1.3-0.7-2.3v-5.5h1.4v5.5
			c0,1.3,0.5,1.9,1.6,1.9c1.1,0,1.8-0.4,2.2-1.2v-6.1h1.4v8.5h-1.4L630.3,4184.4z"/>
		<path class="st32" d="M633.5,4181c0-1.3,0.3-2.3,0.9-3.1c0.6-0.8,1.4-1.2,2.4-1.2c1,0,1.8,0.3,2.4,1v-4.4h1.4v12h-1.3l-0.1-0.9
			c-0.6,0.7-1.4,1.1-2.4,1.1c-1,0-1.8-0.4-2.4-1.2s-0.9-1.8-0.9-3.1V4181z M635,4181.1c0,1,0.2,1.7,0.6,2.2c0.4,0.5,0.9,0.8,1.6,0.8
			c0.9,0,1.6-0.4,2-1.2v-3.9c-0.4-0.8-1.1-1.2-2-1.2c-0.7,0-1.3,0.3-1.7,0.8C635.2,4179.2,635,4180,635,4181.1z"/>
		<path class="st32" d="M642.9,4174.6c0-0.2,0.1-0.4,0.2-0.6c0.1-0.2,0.4-0.2,0.6-0.2s0.5,0.1,0.6,0.2c0.1,0.2,0.2,0.4,0.2,0.6
			s-0.1,0.4-0.2,0.6c-0.1,0.2-0.4,0.2-0.6,0.2s-0.5-0.1-0.6-0.2C643,4175,642.9,4174.8,642.9,4174.6z M644.5,4185.3H643v-8.5h1.4
			V4185.3z"/>
		<path class="st32" d="M646.4,4180.9c0-0.8,0.2-1.6,0.5-2.2c0.3-0.7,0.8-1.2,1.4-1.5c0.6-0.4,1.2-0.5,2-0.5c1.2,0,2.1,0.4,2.8,1.2
			s1.1,1.9,1.1,3.2v0.1c0,0.8-0.2,1.6-0.5,2.2c-0.3,0.7-0.8,1.2-1.4,1.5s-1.3,0.5-2,0.5c-1.1,0-2.1-0.4-2.8-1.2s-1.1-1.9-1.1-3.2
			V4180.9z M647.9,4181.1c0,0.9,0.2,1.7,0.7,2.3c0.4,0.6,1,0.9,1.7,0.9c0.7,0,1.3-0.3,1.8-0.9c0.4-0.6,0.6-1.4,0.6-2.4
			c0-0.9-0.2-1.7-0.7-2.3c-0.4-0.6-1-0.9-1.8-0.9c-0.7,0-1.3,0.3-1.7,0.9S647.9,4180.1,647.9,4181.1z"/>
		<path class="st32" d="M656,4184.5c0-0.2,0.1-0.5,0.2-0.6s0.4-0.2,0.7-0.2s0.5,0.1,0.7,0.2c0.2,0.2,0.2,0.4,0.2,0.6
			c0,0.2-0.1,0.4-0.2,0.6c-0.2,0.2-0.4,0.2-0.7,0.2s-0.5-0.1-0.7-0.2S656,4184.7,656,4184.5z"/>
	</g>
	<path id="Unin_14" class="st42" d="M438.7,3979.3H438c-14.4,0-26-11.6-26-26l0,0v-5c0-14.4,11.6-26,26-26l0,0h101
		c14.4,0,26,11.6,26,26l0,0v5c0,14.4-11.6,26-26,26l0,0h-81.6l-18.7,23.3L438.7,3979.3z"/>
	<g class="st41">
		<path class="st43" d="M434.3,3952c0,0.9-0.1,1.6-0.3,2.1s-0.6,1-1.1,1.5s-0.9,0.8-1.1,1.1s-0.3,0.5-0.4,0.7s-0.1,0.5-0.1,0.8
			c0,1,0.5,1.5,1.5,1.5c0.5,0,0.9-0.1,1.2-0.4s0.5-0.7,0.5-1.2h2.8c0,1.3-0.4,2.2-1.2,2.9s-1.9,1.1-3.2,1.1c-1.4,0-2.5-0.3-3.2-1
			s-1.2-1.6-1.2-2.8c0-1,0.5-2.1,1.5-3l0.9-0.9c0.3-0.3,0.6-0.6,0.7-0.9s0.2-0.8,0.2-1.3H434.3z M434.7,3949c0,0.4-0.1,0.8-0.4,1.1
			c-0.3,0.3-0.7,0.4-1.1,0.4s-0.8-0.1-1.1-0.4c-0.3-0.3-0.4-0.6-0.4-1.1s0.1-0.8,0.4-1.1c0.3-0.3,0.7-0.4,1.1-0.4s0.9,0.1,1.1,0.4
			C434.5,3948.2,434.7,3948.5,434.7,3949z"/>
		<path class="st43" d="M446.4,3954.5c0-0.6-0.2-1-0.6-1.3s-1.1-0.6-2.1-0.9s-1.8-0.7-2.4-1c-1.6-0.9-2.4-2-2.4-3.5
			c0-0.8,0.2-1.5,0.6-2.1s1.1-1.1,1.9-1.4s1.7-0.5,2.7-0.5c1,0,1.9,0.2,2.7,0.6s1.4,0.9,1.9,1.6s0.7,1.4,0.7,2.3h-2.9
			c0-0.7-0.2-1.2-0.6-1.5s-1-0.5-1.7-0.5c-0.7,0-1.3,0.2-1.7,0.5s-0.6,0.7-0.6,1.2c0,0.5,0.2,0.8,0.7,1.2s1.2,0.6,2.1,0.9
			c1.7,0.5,2.9,1.1,3.6,1.9s1.1,1.7,1.1,2.8c0,1.2-0.5,2.2-1.4,2.9s-2.2,1-3.8,1c-1.1,0-2.1-0.2-3-0.6s-1.6-0.9-2.1-1.6
			s-0.7-1.5-0.7-2.4h2.9c0,1.6,0.9,2.4,2.8,2.4c0.7,0,1.2-0.1,1.6-0.4S446.4,3955,446.4,3954.5z"/>
		<path class="st43" d="M457.3,3958.3c-0.1-0.3-0.2-0.6-0.3-0.9c-0.7,0.8-1.6,1.1-2.7,1.1c-1,0-1.9-0.3-2.6-0.9s-1-1.4-1-2.3
			c0-1.1,0.4-2,1.2-2.6s2-0.9,3.6-0.9h1.3v-0.6c0-0.5-0.1-0.9-0.4-1.2s-0.6-0.4-1.2-0.4c-0.5,0-0.8,0.1-1.1,0.3s-0.4,0.5-0.4,0.9
			H451c0-0.6,0.2-1.2,0.6-1.7s0.9-0.9,1.6-1.2s1.5-0.4,2.3-0.4c1.3,0,2.3,0.3,3.1,1s1.1,1.6,1.1,2.8v4.6c0,1,0.1,1.8,0.4,2.3v0.2
			H457.3z M454.9,3956.3c0.4,0,0.8-0.1,1.2-0.3s0.6-0.4,0.8-0.7v-1.8h-1.1c-1.4,0-2.2,0.5-2.3,1.5l0,0.2c0,0.4,0.1,0.6,0.4,0.9
			S454.5,3956.3,454.9,3956.3z"/>
		<path class="st43" d="M471.4,3953.1c0,1.7-0.4,3-1.1,4s-1.7,1.4-3,1.4c-1.1,0-2.1-0.4-2.7-1.3l-0.1,1.1h-2.5v-15h2.8v5.4
			c0.7-0.8,1.5-1.1,2.6-1.1c1.3,0,2.3,0.5,3,1.4s1.1,2.3,1.1,4V3953.1z M468.6,3952.9c0-1.1-0.2-1.8-0.5-2.3s-0.8-0.7-1.5-0.7
			c-0.9,0-1.5,0.4-1.9,1.1v4.2c0.3,0.7,1,1.1,1.9,1.1c0.9,0,1.5-0.4,1.8-1.3C468.5,3954.4,468.6,3953.7,468.6,3952.9z"/>
		<path class="st43" d="M476.2,3958.3h-2.8v-10.6h2.8V3958.3z M475.3,3943.4h3.1l-2.7,3h-2.3L475.3,3943.4z"/>
		<path class="st43" d="M484.7,3958.3c-0.1-0.3-0.2-0.6-0.3-0.9c-0.7,0.8-1.6,1.1-2.7,1.1c-1,0-1.9-0.3-2.6-0.9s-1-1.4-1-2.3
			c0-1.1,0.4-2,1.2-2.6s2-0.9,3.6-0.9h1.3v-0.6c0-0.5-0.1-0.9-0.4-1.2s-0.6-0.4-1.2-0.4c-0.5,0-0.8,0.1-1.1,0.3s-0.4,0.5-0.4,0.9
			h-2.8c0-0.6,0.2-1.2,0.6-1.7s0.9-0.9,1.6-1.2s1.5-0.4,2.3-0.4c1.3,0,2.3,0.3,3.1,1s1.1,1.6,1.1,2.8v4.6c0,1,0.1,1.8,0.4,2.3v0.2
			H484.7z M482.4,3956.3c0.4,0,0.8-0.1,1.2-0.3s0.6-0.4,0.8-0.7v-1.8h-1.1c-1.4,0-2.2,0.5-2.3,1.5l0,0.2c0,0.4,0.1,0.6,0.4,0.9
			S482,3956.3,482.4,3956.3z"/>
		<path class="st43" d="M495.1,3955.3c0-0.3-0.2-0.6-0.5-0.8s-0.9-0.4-1.6-0.5c-2.5-0.5-3.8-1.6-3.8-3.2c0-0.9,0.4-1.7,1.2-2.3
			s1.8-0.9,3.1-0.9c1.3,0,2.4,0.3,3.2,0.9s1.2,1.5,1.2,2.5h-2.8c0-0.4-0.1-0.7-0.4-1s-0.7-0.4-1.2-0.4c-0.5,0-0.8,0.1-1.1,0.3
			s-0.4,0.5-0.4,0.8c0,0.3,0.1,0.6,0.4,0.8s0.8,0.4,1.5,0.5s1.3,0.3,1.8,0.5c1.5,0.5,2.2,1.5,2.2,2.8c0,1-0.4,1.7-1.2,2.3
			s-1.9,0.9-3.2,0.9c-0.9,0-1.7-0.2-2.4-0.5s-1.2-0.7-1.6-1.3s-0.6-1.1-0.6-1.8h2.7c0,0.5,0.2,0.9,0.6,1.2s0.8,0.4,1.4,0.4
			c0.5,0,0.9-0.1,1.2-0.3S495.1,3955.7,495.1,3955.3z"/>
		<path class="st43" d="M504.2,3952.9c0-1.7,0.4-3,1.1-3.9s1.8-1.4,3-1.4c1.1,0,2,0.4,2.7,1.3l0.2-1.1h2.5v14.6h-2.8v-5
			c-0.7,0.7-1.5,1.1-2.6,1.1c-1.3,0-2.3-0.5-3-1.5S504.2,3954.6,504.2,3952.9z M507,3953.1c0,1,0.2,1.8,0.5,2.3s0.9,0.8,1.5,0.8
			c0.9,0,1.5-0.3,1.8-1v-4.4c-0.4-0.7-1-1-1.8-1c-0.7,0-1.2,0.3-1.5,0.8S507,3951.9,507,3953.1z"/>
		<path class="st43" d="M522.2,3957.2c-0.7,0.8-1.7,1.3-2.9,1.3c-1.1,0-2-0.3-2.6-1s-0.9-1.6-0.9-2.9v-6.9h2.8v6.8
			c0,1.1,0.5,1.7,1.5,1.7c1,0,1.6-0.3,2-1v-7.5h2.8v10.6h-2.7L522.2,3957.2z"/>
		<path class="st43" d="M531.9,3958.4c-1.5,0-2.8-0.5-3.8-1.4s-1.5-2.2-1.5-3.8v-0.3c0-1.1,0.2-2,0.6-2.8s1-1.5,1.7-1.9
			s1.6-0.7,2.6-0.7c1.4,0,2.6,0.5,3.4,1.4s1.2,2.2,1.2,3.9v1.2h-6.7c0.1,0.7,0.4,1.2,0.8,1.7s1,0.6,1.7,0.6c1.1,0,1.9-0.4,2.5-1.2
			l1.4,1.6c-0.4,0.6-1,1.1-1.7,1.4S532.8,3958.4,531.9,3958.4z M531.6,3949.8c-0.6,0-1,0.2-1.4,0.6c-0.3,0.4-0.6,0.9-0.7,1.6h3.9
			v-0.2c0-0.6-0.2-1.1-0.5-1.5C532.7,3949.9,532.2,3949.8,531.6,3949.8z M531.9,3943.3h3.1l-2.7,3H530L531.9,3943.3z"/>
		<path class="st43" d="M540.2,3953.9c0-0.9,0.1-1.6,0.3-2.2s0.6-1.1,1.2-1.6s1-1,1.2-1.3c0.2-0.3,0.3-0.7,0.3-1
			c0-1.1-0.5-1.7-1.5-1.7c-0.5,0-0.9,0.1-1.2,0.4s-0.4,0.7-0.5,1.2h-2.8c0-1.2,0.4-2.2,1.2-2.9s1.9-1.1,3.2-1.1c1.4,0,2.5,0.3,3.2,1
			s1.1,1.6,1.1,2.8c0,0.6-0.1,1.1-0.4,1.6c-0.2,0.5-0.7,1-1.3,1.6l-0.8,0.8c-0.5,0.5-0.8,1-0.8,1.7l0,0.6H540.2z M539.9,3956.9
			c0-0.4,0.1-0.8,0.4-1.1s0.7-0.4,1.1-0.4s0.8,0.1,1.1,0.4s0.4,0.6,0.4,1.1c0,0.4-0.1,0.8-0.4,1.1c-0.3,0.3-0.7,0.4-1.1,0.4
			s-0.9-0.1-1.1-0.4C540.1,3957.7,539.9,3957.3,539.9,3956.9z"/>
	</g>
</g>
</svg>
