<svg id="Grupo_973838" data-name="Grupo 973838" xmlns="http://www.w3.org/2000/svg" xmlns:xlink="http://www.w3.org/1999/xlink" width="495.858" height="336.156" viewBox="0 0 495.858 336.156">
  <defs>
    <clipPath id="clip-path">
      <rect id="Rectángulo_339738" data-name="Rectángulo 339738" width="495.858" height="336.156" fill="none"/>
    </clipPath>
    <clipPath id="clip-path-5">
      <rect id="Rectángulo_339718" data-name="Rectángulo 339718" width="136.331" height="140.465" fill="none"/>
    </clipPath>
    <clipPath id="clip-path-6">
      <rect id="Rectángulo_339731" data-name="Rectángulo 339731" width="129.809" height="151.845" fill="none"/>
    </clipPath>
    <clipPath id="clip-path-8">
      <rect id="Rectángulo_339735" data-name="Rectángulo 339735" width="180.426" height="147.245" fill="none"/>
    </clipPath>
  </defs>
  <g id="Enmascarar_grupo_973837" data-name="Enmascarar grupo 973837" clip-path="url(#clip-path)">
    <rect id="Rectángulo_339685" data-name="Rectángulo 339685" width="78.664" height="105.76" transform="translate(377.614 205.751)" fill="#ebebeb"/>
    <rect id="Rectángulo_339686" data-name="Rectángulo 339686" width="86.286" height="4.121" transform="translate(373.802 201.63)" fill="#dbdbdb"/>
    <rect id="Rectángulo_339687" data-name="Rectángulo 339687" width="27.137" height="4.121" transform="translate(460.089 201.63)" fill="#ebebeb"/>
    <rect id="Rectángulo_339688" data-name="Rectángulo 339688" width="26.651" height="105.76" transform="translate(456.278 205.751)" fill="#dbdbdb"/>
    <rect id="Rectángulo_339689" data-name="Rectángulo 339689" width="61.53" height="35.39" transform="translate(386.181 221.661)" fill="#a6a6a6"/>
    <rect id="Rectángulo_339690" data-name="Rectángulo 339690" width="46.84" height="34.638" transform="translate(394.878 212.598)" fill="#c7c7c7"/>
    <path id="Trazado_704684" data-name="Trazado 704684" d="M507.42,254.681H490.87v3.587h17.5Z" transform="translate(-95.992 -45.669)" fill="#c7c7c7"/>
    <path id="Trazado_704685" data-name="Trazado 704685" d="M536.678,294.318h-46.84l-3.613-31.764h46.84Z" transform="translate(-95.084 -47.081)" fill="#a6a6a6"/>
    <path id="Trazado_704686" data-name="Trazado 704686" d="M502.311,258.545h-16.55l.374,3.289h17.5Z" transform="translate(-94.993 -46.362)" fill="#a6a6a6"/>
    <rect id="Rectángulo_339691" data-name="Rectángulo 339691" width="61.53" height="35.39" transform="translate(356.538 221.661)" fill="#ebebeb"/>
    <rect id="Rectángulo_339692" data-name="Rectángulo 339692" width="61.53" height="35.39" transform="translate(356.538 221.661)" fill="none" stroke="#c7c7c7" stroke-miterlimit="10" stroke-width="0.25"/>
    <rect id="Rectángulo_339693" data-name="Rectángulo 339693" width="12.017" height="7.046" transform="translate(378.689 231.964)" fill="#c7c7c7"/>
    <rect id="Rectángulo_339694" data-name="Rectángulo 339694" width="12.017" height="5.984" transform="translate(382.241 232.495)" fill="none" stroke="#c7c7c7" stroke-miterlimit="10" stroke-width="0.25"/>
    <rect id="Rectángulo_339695" data-name="Rectángulo 339695" width="29.492" height="30.087" transform="translate(418.219 226.964)" fill="#dbdbdb"/>
    <rect id="Rectángulo_339696" data-name="Rectángulo 339696" width="61.53" height="35.39" transform="translate(386.181 266.372)" fill="none" stroke="#c7c7c7" stroke-miterlimit="10" stroke-width="0.25"/>
    <rect id="Rectángulo_339697" data-name="Rectángulo 339697" width="12.017" height="7.046" transform="translate(408.331 276.674)" fill="#c7c7c7"/>
    <rect id="Rectángulo_339698" data-name="Rectángulo 339698" width="12.017" height="5.984" transform="translate(411.883 277.206)" fill="none" stroke="#c7c7c7" stroke-miterlimit="10" stroke-width="0.25"/>
    <g id="Grupo_973819" data-name="Grupo 973819">
      <g id="Grupo_973818" data-name="Grupo 973818" clip-path="url(#clip-path)">
        <path id="Trazado_704687" data-name="Trazado 704687" d="M441.458,372.553c0,14.241-98.824,25.786-220.73,25.786S0,386.794,0,372.553s98.824-25.786,220.729-25.786,220.73,11.545,220.73,25.786" transform="translate(49.879 -62.182)" fill="#ebebeb"/>
      </g>
    </g>
    <g id="Grupo_973821" data-name="Grupo 973821">
      <g id="Grupo_973820" data-name="Grupo 973820" clip-path="url(#clip-path)">
        <path id="Trazado_704688" data-name="Trazado 704688" d="M578.573,294.641a48.021,48.021,0,0,0-1.487,8.584c.076.144.061.674-.023.529-.016.472-.72.386-.72-.079.007-.3.015-.607.029-.9-1.644-2.083-4.032-3.4-5.961-5.212a11.409,11.409,0,0,1-3.267-5.3c-1.6-5.627-.1-11.59-2.026-17.2-1.659-4.84-4.636-9.046-7.155-13.431-2.658-4.637-4.62-9.509-4.816-14.94-.157-4.158.329-9.7,3.434-12.816,3.291-3.306,7.37-.829,9.892,2.12,7.306,8.554,10.686,19.364,12.053,30.418a121.945,121.945,0,0,1,1.355,18.447,50.635,50.635,0,0,1-1.308,9.787" transform="translate(-108.165 -41.655)" fill="#ffc727"/>
        <path id="Trazado_704689" data-name="Trazado 704689" d="M578.992,308.75a107.557,107.557,0,0,0-.2-17.331c.01-.021.027-.035.028-.063.092-4.684.457-9.351.277-14.041a85.086,85.086,0,0,0-2.022-15.06.045.045,0,0,0-.089.015,100.093,100.093,0,0,1,1.6,14.728q.14,3.97-.062,7.94c-.044.861-.122,1.728-.179,2.595v-.007a93.844,93.844,0,0,0-13.663-36.885c-.1-.152-.36.011-.267.167a97.416,97.416,0,0,1,11.121,27.348c-3.513-6.64-8.82-12.1-12.757-18.482-.021-.035-.078,0-.06.037,3.536,7.1,9.38,12.706,13.1,19.7.646,2.853,1.175,5.732,1.569,8.629a98.458,98.458,0,0,1,.847,11.987c-2.139-4.08-4.361-7.984-6.112-12.3-.046-.115-.208-.037-.17.078a48.392,48.392,0,0,0,6.294,13.136c.015,2.837-.068,5.676-.231,8.51-.438,7.567-1.7,15.032-2.289,22.574a.17.17,0,0,0,.339.038,176.7,176.7,0,0,0,2.926-23.317" transform="translate(-110.041 -44.934)" fill="#263238"/>
        <path id="Trazado_704690" data-name="Trazado 704690" d="M573.139,250.353c-.022-.055-.1-.017-.082.038,1.355,3.821,2.12,7.693,3.1,11.611a.142.142,0,0,0,.279-.047,42.326,42.326,0,0,0-3.3-11.6" transform="translate(-112.063 -44.888)" fill="#263238"/>
        <path id="Trazado_704691" data-name="Trazado 704691" d="M609.42,268.936a58.212,58.212,0,0,1-3.116,6.53c-2.439,4.519-4.984,8.66-5.445,13.922a32.975,32.975,0,0,1-.981,6.974,21.1,21.1,0,0,1-2.725,5.459c-2.644,3.929-5.949,7.315-8.4,11.392a48.508,48.508,0,0,0-5.581,13.728c-.06.264-.469.194-.409-.071a.223.223,0,0,0,.016-.061.087.087,0,0,1-.025-.055c-.388-11.284.495-22.656,3.869-33.465a117.041,117.041,0,0,1,5.36-13.92,32.918,32.918,0,0,1,7.232-10.616c2.058-1.891,6.523-5.476,9.453-3.579,1.407.913,1.3,2.353.748,3.761" transform="translate(-113.944 -47.454)" fill="#ffc727"/>
        <path id="Trazado_704692" data-name="Trazado 704692" d="M597.626,296.621a92.419,92.419,0,0,1-6.428,9.426c-1.071,1.426-2.157,2.841-3.226,4.269-.505.675-1.071,1.347-1.535,2.071.293-1.186.578-2.374.874-3.559a141.841,141.841,0,0,1,4.925-16.934,115.113,115.113,0,0,1,7.679-15.358c.075-.13-.132-.225-.208-.1-2.337,3.921-4.709,7.837-6.674,11.971a63.727,63.727,0,0,0-2.832,7.1,111.32,111.32,0,0,1,3.771-15.176c.015-.044-.048-.076-.066-.031a52.733,52.733,0,0,0-3.914,15.786.055.055,0,0,0,.007.025q-.718,2.2-1.331,4.435c-1.742,6.313-3.272,12.692-4.691,19.092a69.71,69.71,0,0,1,1.067-12.547c.018-.1-.122-.117-.145-.025a40.561,40.561,0,0,0-1.068,13.227q-.8,3.651-1.568,7.309c-1.088,5.2-2.423,10.495-3.058,15.776a.1.1,0,0,0,.2.035c.759-2.847,1.216-5.8,1.837-8.68s1.263-5.778,1.923-8.66c.96-4.2,1.967-8.385,2.992-12.567a22.484,22.484,0,0,1,3-4.181c1.089-1.412,2.178-2.823,3.237-4.258a63.575,63.575,0,0,0,5.322-8.4c.033-.063-.064-.107-.1-.047" transform="translate(-113.266 -49.56)" fill="#263238"/>
        <path id="Trazado_704693" data-name="Trazado 704693" d="M601.161,295.16a58.992,58.992,0,0,0-6.289,10.2c-.023.046.047.094.076.049,2.117-3.384,4.2-6.794,6.311-10.182.036-.057-.057-.116-.1-.063" transform="translate(-116.329 -52.924)" fill="#263238"/>
        <path id="Trazado_704694" data-name="Trazado 704694" d="M543.384,280.137c1.433,2.519,3.069,5.543,2.453,8.567-.39,1.914-1.763,3.467-2.011,5.42-.555,4.31,3.655,7.158,6.7,9.195,7.594,5.083,18.01,9.615,19.391,20,.052.368.675.276.63-.085a.24.24,0,0,0-.014-.069c.014-.023.037-.03.037-.061a40.567,40.567,0,0,0-.142-15.856,51.038,51.038,0,0,0-6.123-14.859c-4.57-7.955-9.41-16.1-16.322-22.195-1.913-1.684-5.831-4.716-7.354-.911-1.478,3.7,1,7.786,2.754,10.856" transform="translate(-105.634 -47.959)" fill="#ffc727"/>
        <path id="Trazado_704695" data-name="Trazado 704695" d="M552.779,301.052c5.035,5.561,13.04,8.679,17.374,14.908A62.779,62.779,0,0,0,556.8,290.37c-.167-.191.094-.463.278-.283A50.484,50.484,0,0,1,567.99,306.21a72.923,72.923,0,0,0-4.7-12.259c-.072-.151.138-.281.223-.133a47.332,47.332,0,0,1,5.065,13.781c5.711,14.1,6.24,30.647,5.043,45.513-.017.212-.334.218-.328,0,.328-11.716.142-23.636-2.61-35.078-.057-.239-.121-.474-.181-.712-4.715-6.7-12.685-9.813-17.81-16.181-.05-.062.032-.149.087-.089" transform="translate(-108.079 -52.008)" fill="#263238"/>
        <path id="Trazado_704696" data-name="Trazado 704696" d="M551.308,297.634c2.643,2.474,5.245,5,7.893,7.476.027.025-.009.073-.039.052a38.939,38.939,0,0,1-8.011-7.367c-.089-.112.05-.262.158-.161" transform="translate(-107.774 -53.366)" fill="#263238"/>
        <path id="Trazado_704697" data-name="Trazado 704697" d="M550.8,284.571a84.684,84.684,0,0,0,7.908,11.1c.039.046-.023.111-.067.067a39.058,39.058,0,0,1-7.983-11.081.082.082,0,0,1,.142-.085" transform="translate(-107.681 -51.022)" fill="#263238"/>
        <path id="Trazado_704698" data-name="Trazado 704698" d="M565.628,372.727H588.78l-3.12-31.779H569.194Z" transform="translate(-110.611 -61.139)" fill="#455a64"/>
        <path id="Trazado_704699" data-name="Trazado 704699" d="M569.338,346.114H586.9l-.508-5.165h-16.47Z" transform="translate(-111.337 -61.139)" fill="#263238"/>
        <rect id="Rectángulo_339700" data-name="Rectángulo 339700" width="21.702" height="5.074" transform="translate(455.742 276.289)" fill="#455a64"/>
      </g>
    </g>
    <rect id="Rectángulo_339702" data-name="Rectángulo 339702" width="93.045" height="121.851" transform="translate(113.86 4.02)" fill="#ebebeb"/>
    <path id="Trazado_704700" data-name="Trazado 704700" d="M234.488,126.661l-46.454.167-46.59.092h-.253v-.259L141.049,4.81v-.4h.395l93.045.093h.3V4.81l-.1,61.01Zm0,0-.2-61.01-.1-60.841.3.309-93.045.093.394-.4L141.7,126.661l-.253-.259,46.454.093Z" transform="translate(-27.583 -0.79)" fill="#dbdbdb"/>
    <path id="Trazado_704701" data-name="Trazado 704701" d="M154.19,36.61l36.345.094,36.345-.094-36.345-.094Z" transform="translate(-30.153 -6.548)" fill="#c7c7c7"/>
    <path id="Trazado_704702" data-name="Trazado 704702" d="M154.19,40.3l36.345.094,36.345-.094L190.535,40.2Z" transform="translate(-30.153 -7.209)" fill="#c7c7c7"/>
    <path id="Trazado_704703" data-name="Trazado 704703" d="M154.19,43.98l36.345.094,36.345-.094-36.345-.093Z" transform="translate(-30.153 -7.87)" fill="#c7c7c7"/>
    <path id="Trazado_704704" data-name="Trazado 704704" d="M154.19,47.665l36.345.093,36.345-.093-36.345-.094Z" transform="translate(-30.153 -8.531)" fill="#c7c7c7"/>
    <path id="Trazado_704705" data-name="Trazado 704705" d="M154.19,51.35l36.345.094,36.345-.094-36.345-.094Z" transform="translate(-30.153 -9.191)" fill="#c7c7c7"/>
    <path id="Trazado_704706" data-name="Trazado 704706" d="M154.19,55.034l36.345.094,36.345-.094-36.345-.094Z" transform="translate(-30.153 -9.852)" fill="#c7c7c7"/>
    <path id="Trazado_704707" data-name="Trazado 704707" d="M154.19,58.719l36.345.094,36.345-.094-36.345-.094Z" transform="translate(-30.153 -10.513)" fill="#c7c7c7"/>
    <path id="Trazado_704708" data-name="Trazado 704708" d="M154.19,62.4l36.345.094,36.345-.094-36.345-.094Z" transform="translate(-30.153 -11.173)" fill="#c7c7c7"/>
    <path id="Trazado_704709" data-name="Trazado 704709" d="M154.19,66.088l36.345.094,36.345-.094-36.345-.094Z" transform="translate(-30.153 -11.834)" fill="#c7c7c7"/>
    <path id="Trazado_704710" data-name="Trazado 704710" d="M154.19,69.773l36.345.094,36.345-.094-36.345-.094Z" transform="translate(-30.153 -12.495)" fill="#c7c7c7"/>
    <path id="Trazado_704711" data-name="Trazado 704711" d="M154.19,73.457l36.345.094,36.345-.094-36.345-.094Z" transform="translate(-30.153 -13.156)" fill="#c7c7c7"/>
    <path id="Trazado_704712" data-name="Trazado 704712" d="M154.19,77.142l36.345.094,36.345-.094-36.345-.094Z" transform="translate(-30.153 -13.816)" fill="#c7c7c7"/>
    <path id="Trazado_704713" data-name="Trazado 704713" d="M154.19,80.827l36.345.094,36.345-.094-36.345-.093Z" transform="translate(-30.153 -14.477)" fill="#c7c7c7"/>
    <path id="Trazado_704714" data-name="Trazado 704714" d="M154.19,84.512l36.345.093,36.345-.093-36.345-.094Z" transform="translate(-30.153 -15.138)" fill="#c7c7c7"/>
    <path id="Trazado_704715" data-name="Trazado 704715" d="M154.19,88.2l36.345.094,36.345-.094L190.535,88.1Z" transform="translate(-30.153 -15.799)" fill="#c7c7c7"/>
    <rect id="Rectángulo_339703" data-name="Rectángulo 339703" width="5.512" height="12.691" transform="translate(131.724 63.232)" fill="#ffc727"/>
    <rect id="Rectángulo_339704" data-name="Rectángulo 339704" width="5.512" height="19.461" transform="translate(141.95 56.463)" fill="#ffc727"/>
    <rect id="Rectángulo_339705" data-name="Rectángulo 339705" width="5.512" height="27.037" transform="translate(152.175 48.885)" fill="#ffc727"/>
    <rect id="Rectángulo_339706" data-name="Rectángulo 339706" width="5.512" height="30.293" transform="translate(162.401 45.63)" fill="#ffc727"/>
    <rect id="Rectángulo_339707" data-name="Rectángulo 339707" width="5.512" height="36.094" transform="translate(172.627 39.829)" fill="#ffc727"/>
    <rect id="Rectángulo_339708" data-name="Rectángulo 339708" width="5.512" height="41.825" transform="translate(182.853 34.098)" fill="#ffc727"/>
    <g id="Grupo_973829" data-name="Grupo 973829">
      <g id="Grupo_973828" data-name="Grupo 973828" clip-path="url(#clip-path)">
        <path id="Trazado_704716" data-name="Trazado 704716" d="M156.559,34.045l.143,12,.1,12q.1,12,.1,23.992l-.341-.348,17.679-.015,17.679.041,17.679.115,17.679.207-17.679.207-17.679.115-17.679.041-17.679-.015h-.342v-.348q.018-12,.1-23.992l.1-12Z" transform="translate(-30.549 -6.105)" fill="#c7c7c7"/>
        <rect id="Rectángulo_339709" data-name="Rectángulo 339709" width="5.512" height="0.508" transform="translate(131.724 78.459)" fill="#c7c7c7"/>
        <rect id="Rectángulo_339710" data-name="Rectángulo 339710" width="5.512" height="0.508" transform="translate(141.95 78.459)" fill="#c7c7c7"/>
        <rect id="Rectángulo_339711" data-name="Rectángulo 339711" width="5.512" height="0.508" transform="translate(152.175 78.459)" fill="#c7c7c7"/>
        <rect id="Rectángulo_339712" data-name="Rectángulo 339712" width="5.512" height="0.508" transform="translate(162.401 78.459)" fill="#c7c7c7"/>
        <rect id="Rectángulo_339713" data-name="Rectángulo 339713" width="5.512" height="0.508" transform="translate(172.627 78.459)" fill="#c7c7c7"/>
        <rect id="Rectángulo_339714" data-name="Rectángulo 339714" width="5.512" height="0.508" transform="translate(182.853 78.459)" fill="#c7c7c7"/>
        <path id="Trazado_704717" data-name="Trazado 704717" d="M164.518,72.541a65.51,65.51,0,0,0,8.051-.624,76.791,76.791,0,0,0,7.933-1.458,67.719,67.719,0,0,0,15.144-5.442,53.911,53.911,0,0,0,13.234-9.192l.745-.689.706-.73,1.405-1.468c.868-1.041,1.8-2.033,2.59-3.142a56.4,56.4,0,0,0,4.514-6.817l.043.024a49.027,49.027,0,0,1-9.577,13.283,47.852,47.852,0,0,1-6.3,5.243,53.51,53.51,0,0,1-7.014,4.2,64.818,64.818,0,0,1-15.36,5.32,65.135,65.135,0,0,1-16.112,1.488" transform="translate(-32.172 -7.707)" fill="#263238"/>
        <path id="Trazado_704718" data-name="Trazado 704718" d="M232.617,46.726l-.763.195-.937-3.838-3.684,1.234-.245-.763,4.487-1.5Z" transform="translate(-44.388 -7.541)" fill="#263238"/>
        <rect id="Rectángulo_339715" data-name="Rectángulo 339715" width="75.796" height="3.129" transform="translate(122.484 94.789)" fill="#dbdbdb"/>
        <rect id="Rectángulo_339716" data-name="Rectángulo 339716" width="42.673" height="3.129" transform="translate(122.484 102.686)" fill="#dbdbdb"/>
        <rect id="Rectángulo_339717" data-name="Rectángulo 339717" width="42.673" height="3.129" transform="translate(139.046 17.485)" fill="#dbdbdb"/>
        <path id="Trazado_704719" data-name="Trazado 704719" d="M175.914,222.693,92.5,264.746,39.583,155.5l61.936-31.224,31.562,9.986Z" transform="translate(-7.741 -22.286)" fill="#ffc727"/>
        <g id="Grupo_973824" data-name="Grupo 973824" transform="translate(31.842 101.995)" opacity="0.8">
          <g id="Grupo_973823" data-name="Grupo 973823">
            <g id="Grupo_973822" data-name="Grupo 973822" clip-path="url(#clip-path-5)">
              <path id="Trazado_704720" data-name="Trazado 704720" d="M175.914,222.693,92.5,264.746,39.583,155.5l61.936-31.224,31.562,9.986Z" transform="translate(-39.583 -124.281)" fill="#fff"/>
            </g>
          </g>
        </g>
        <path id="Trazado_704721" data-name="Trazado 704721" d="M116.575,124.281l31.562,9.987L126.658,145.1Z" transform="translate(-22.797 -22.286)" fill="#ffc727"/>
        <path id="Trazado_704784" data-name="Trazado 704784" d="M.025.415,51.962,0l-.025,3.117L0,3.532Z" transform="translate(48.653 147.085) rotate(-26.297)" fill="#dbdbdb"/>
        <path id="Trazado_704785" data-name="Trazado 704785" d="M.025.415,51.962,0l-.025,3.117L0,3.532Z" transform="translate(52.082 154.165) rotate(-26.297)" fill="#dbdbdb"/>
        <path id="Trazado_704786" data-name="Trazado 704786" d="M.025.415,51.961,0l-.025,3.117L0,3.532Z" transform="translate(55.512 161.245) rotate(-26.297)" fill="#dbdbdb"/>
        <path id="Trazado_704787" data-name="Trazado 704787" d="M.025.608,76.121,0,76.1,3.117,0,3.724Z" transform="matrix(0.897, -0.443, 0.443, 0.897, 58.856, 168.153)" fill="#dbdbdb"/>
        <path id="Trazado_704788" data-name="Trazado 704788" d="M.025.608,76.121,0,76.1,3.117,0,3.725Z" transform="translate(62.286 175.233) rotate(-26.297)" fill="#dbdbdb"/>
        <path id="Trazado_704789" data-name="Trazado 704789" d="M.025.608,76.121,0,76.1,3.117,0,3.725Z" transform="translate(65.715 182.313) rotate(-26.297)" fill="#dbdbdb"/>
        <path id="Trazado_704790" data-name="Trazado 704790" d="M.025.608,76.121,0,76.1,3.117,0,3.725Z" transform="translate(69.145 189.393) rotate(-26.297)" fill="#dbdbdb"/>
        <path id="Trazado_704791" data-name="Trazado 704791" d="M.025.608,76.121,0,76.1,3.117,0,3.725Z" transform="translate(72.575 196.474) rotate(-26.297)" fill="#dbdbdb"/>
        <path id="Trazado_704792" data-name="Trazado 704792" d="M.025.608,76.121,0,76.1,3.117,0,3.725Z" transform="translate(76.004 203.554) rotate(-26.297)" fill="#dbdbdb"/>
        <path id="Trazado_704793" data-name="Trazado 704793" d="M.025.608,76.121,0,76.1,3.117,0,3.725Z" transform="translate(79.434 210.634) rotate(-26.297)" fill="#dbdbdb"/>
        <path id="Trazado_704794" data-name="Trazado 704794" d="M.025.608,76.121,0,76.1,3.117,0,3.725Z" transform="translate(82.863 217.715) rotate(-26.297)" fill="#dbdbdb"/>
        <path id="Trazado_704795" data-name="Trazado 704795" d="M.025.608,76.121,0,76.1,3.117,0,3.725Z" transform="translate(86.293 224.795) rotate(-26.297)" fill="#dbdbdb"/>
        <path id="Trazado_704722" data-name="Trazado 704722" d="M526.17,135.646q-51.149,3.79-102.088,7.581c-11.627-45.09.829-90.179-8.231-135.269Q467,4.168,517.942.378c11.615,45.089-.842,90.179,8.229,135.268" transform="translate(-81.322 -0.068)" fill="#ebebeb"/>
        <path id="Trazado_704723" data-name="Trazado 704723" d="M526.054,135.578q-51.124,3.917-102.023,7.836l-.245.019c-.022-.085-.045-.17-.067-.255-11.684-45.086.719-90.171-8.381-135.257-.028-.136-.055-.272-.084-.409l.4-.029Q466.8,3.752,517.75.021L518.031,0c.025.1.049.193.074.289,11.529,45.1-1.029,90.193,7.949,135.289m0,0C516.889,90.5,529.246,45.413,517.546.331L517.9.6Q466.97,4.45,415.816,8.3l.315-.437c9.019,45.093-3.491,90.186,8.08,135.278l-.311-.236q50.974-3.664,102.153-7.327" transform="translate(-81.205)" fill="#dbdbdb"/>
        <path id="Trazado_704724" data-name="Trazado 704724" d="M431.169,32.24q28.682-2.108,57.321-4.215.186,1.737.34,3.473-28.675,2.109-57.394,4.216-.119-1.737-.267-3.474" transform="translate(-84.317 -5.025)" fill="#dbdbdb"/>
        <path id="Trazado_704725" data-name="Trazado 704725" d="M431.878,42.923l57.494-4.215q.111,1.737.2,3.473L432.016,46.4q-.057-1.736-.138-3.473" transform="translate(-84.456 -6.941)" fill="#dbdbdb"/>
        <path id="Trazado_704726" data-name="Trazado 704726" d="M432.21,53.605l57.63-4.215q.051,1.737.082,3.474l-57.674,4.215q-.011-1.737-.039-3.474" transform="translate(-84.521 -8.857)" fill="#dbdbdb"/>
        <path id="Trazado_704727" data-name="Trazado 704727" d="M432.249,63.86q42.307-3.087,84.571-6.176.016,1.736.015,3.473-42.289,3.089-84.618,6.176.022-1.736.032-3.473" transform="translate(-84.522 -10.344)" fill="#dbdbdb"/>
        <path id="Trazado_704728" data-name="Trazado 704728" d="M432.094,74.543l84.673-6.176q-.018,1.736-.047,3.473l-84.7,6.176q.039-1.737.072-3.474" transform="translate(-84.484 -12.26)" fill="#dbdbdb"/>
        <path id="Trazado_704729" data-name="Trazado 704729" d="M431.847,85.226l84.722-6.176q-.037,1.736-.079,3.473L431.763,88.7q.041-1.736.084-3.473" transform="translate(-84.433 -14.175)" fill="#dbdbdb"/>
        <path id="Trazado_704730" data-name="Trazado 704730" d="M431.6,95.908l84.718-6.176q-.042,1.736-.081,3.473l-84.7,6.176q.029-1.737.065-3.474" transform="translate(-84.388 -16.091)" fill="#dbdbdb"/>
        <path id="Trazado_704731" data-name="Trazado 704731" d="M431.444,106.591l84.661-6.176q-.031,1.736-.055,3.473l-84.624,6.176q0-1.736.018-3.473" transform="translate(-84.367 -18.006)" fill="#dbdbdb"/>
        <path id="Trazado_704732" data-name="Trazado 704732" d="M431.46,117.274q42.251-3.089,84.553-6.176-.006,1.736,0,3.473-42.274,3.089-84.5,6.176-.039-1.737-.06-3.474" transform="translate(-84.374 -19.922)" fill="#dbdbdb"/>
        <path id="Trazado_704733" data-name="Trazado 704733" d="M431.743,127.957q42.162-3.089,84.391-6.176.035,1.736.088,3.473-42.192,3.089-84.313,6.176-.1-1.736-.167-3.473" transform="translate(-84.429 -21.838)" fill="#dbdbdb"/>
        <path id="Trazado_704734" data-name="Trazado 704734" d="M432.389,138.639q42.045-3.087,84.178-6.175.089,1.736.2,3.472-42.084,3.089-84.078,6.176-.167-1.736-.3-3.474" transform="translate(-84.556 -23.753)" fill="#dbdbdb"/>
        <path id="Trazado_704735" data-name="Trazado 704735" d="M433.491,149.323q41.9-3.089,83.911-6.176.159,1.736.349,3.473-41.95,3.089-83.792,6.176-.251-1.736-.468-3.473" transform="translate(-84.771 -25.669)" fill="#dbdbdb"/>
        <path id="Trazado_704736" data-name="Trazado 704736" d="M428.231,193.5q-52.8-9.135-104.407-18.272c4.454-44.524,26.534-89.049,25.4-133.574q52.8,9.135,104.407,18.272c-4.454,44.524-26.535,89.05-25.4,133.574" transform="translate(-63.325 -7.469)" fill="#ffc727"/>
        <g id="Grupo_973827" data-name="Grupo 973827" transform="translate(260.499 34.182)" opacity="0.8">
          <g id="Grupo_973826" data-name="Grupo 973826">
            <g id="Grupo_973825" data-name="Grupo 973825" clip-path="url(#clip-path-6)">
              <path id="Trazado_704737" data-name="Trazado 704737" d="M428.231,193.5q-52.8-9.135-104.407-18.272c4.454-44.524,26.534-89.049,25.4-133.574q52.8,9.135,104.407,18.272c-4.454,44.524-26.535,89.05-25.4,133.574" transform="translate(-323.824 -41.651)" fill="#fff"/>
            </g>
          </g>
        </g>
        <path id="Trazado_704738" data-name="Trazado 704738" d="M366.061,67.81q28.627,5.079,56.983,10.158-.291,1.716-.609,3.43Q394.146,76.32,365.623,71.24q.235-1.716.438-3.43" transform="translate(-71.499 -12.16)" fill="#dbdbdb"/>
        <path id="Trazado_704739" data-name="Trazado 704739" d="M364.5,78.359q28.4,5.079,56.576,10.158-.352,1.715-.726,3.43-28.123-5.079-56.436-10.158.307-1.716.586-3.43" transform="translate(-71.166 -14.051)" fill="#dbdbdb"/>
        <path id="Trazado_704740" data-name="Trazado 704740" d="M362.514,88.908q28.213,5.079,56.247,10.158-.4,1.716-.816,3.43-28-5.079-56.138-10.158.364-1.716.708-3.43" transform="translate(-70.753 -15.943)" fill="#dbdbdb"/>
        <path id="Trazado_704741" data-name="Trazado 704741" d="M360.174,99.457q41.12,7.442,81.971,14.884-.449,1.716-.9,3.43-40.849-7.443-81.87-14.884.409-1.716.8-3.43" transform="translate(-70.277 -17.835)" fill="#dbdbdb"/>
        <path id="Trazado_704742" data-name="Trazado 704742" d="M357.568,110.006q40.959,7.442,81.749,14.884-.462,1.716-.927,3.43-40.811-7.441-81.694-14.884.44-1.716.871-3.43" transform="translate(-69.754 -19.726)" fill="#dbdbdb"/>
        <path id="Trazado_704743" data-name="Trazado 704743" d="M354.779,120.555q40.857,7.442,81.643,14.884-.463,1.716-.924,3.43-40.828-7.443-81.632-14.884.459-1.716.913-3.43" transform="translate(-69.2 -21.618)" fill="#dbdbdb"/>
        <path id="Trazado_704744" data-name="Trazado 704744" d="M351.889,131.1q40.812,7.443,81.651,14.884-.451,1.716-.895,3.43-40.9-7.442-81.686-14.884l.929-3.43" transform="translate(-68.632 -23.51)" fill="#dbdbdb"/>
        <path id="Trazado_704745" data-name="Trazado 704745" d="M348.982,141.653q40.824,7.443,81.773,14.884-.425,1.716-.837,3.43-41.039-7.443-81.854-14.884.456-1.716.918-3.43" transform="translate(-68.065 -25.401)" fill="#dbdbdb"/>
        <path id="Trazado_704746" data-name="Trazado 704746" d="M346.14,152.2q40.893,7.443,82.011,14.884-.386,1.716-.755,3.43-41.229-7.441-82.137-14.884.436-1.716.881-3.43" transform="translate(-67.517 -27.293)" fill="#dbdbdb"/>
        <path id="Trazado_704747" data-name="Trazado 704747" d="M343.446,162.751q41.02,7.441,82.363,14.884-.334,1.715-.646,3.43-41.477-7.443-82.534-14.884.4-1.716.817-3.43" transform="translate(-67.003 -29.184)" fill="#dbdbdb"/>
        <path id="Trazado_704748" data-name="Trazado 704748" d="M340.983,173.3q41.2,7.442,82.83,14.884-.269,1.716-.51,3.43-41.783-7.442-83.047-14.884.353-1.716.727-3.43" transform="translate(-66.539 -31.076)" fill="#dbdbdb"/>
        <path id="Trazado_704749" data-name="Trazado 704749" d="M338.835,183.849q41.445,7.442,83.411,14.884-.192,1.716-.348,3.43-42.145-7.443-83.674-14.885.292-1.715.611-3.43" transform="translate(-66.141 -32.968)" fill="#dbdbdb"/>
      </g>
    </g>
    <rect id="Rectángulo_339733" data-name="Rectángulo 339733" width="180.426" height="133.426" transform="translate(141.887 167.775)" fill="#ffc727"/>
    <path id="Trazado_704750" data-name="Trazado 704750" d="M240.129,187.6h-63.75v13.818h67.413Z" transform="translate(-34.492 -33.64)" fill="#ffc727"/>
    <g id="Grupo_973834" data-name="Grupo 973834">
      <g id="Grupo_973833" data-name="Grupo 973833" clip-path="url(#clip-path)">
        <g id="Grupo_973832" data-name="Grupo 973832" transform="translate(141.887 153.956)" opacity="0.1">
          <g id="Grupo_973831" data-name="Grupo 973831">
            <g id="Grupo_973830" data-name="Grupo 973830" clip-path="url(#clip-path-8)">
              <rect id="Rectángulo_339734" data-name="Rectángulo 339734" width="180.426" height="133.426" transform="translate(0 13.819)"/>
              <path id="Trazado_704751" data-name="Trazado 704751" d="M240.129,187.6h-63.75v13.818h67.413Z" transform="translate(-176.379 -187.596)"/>
            </g>
          </g>
        </g>
        <path id="Trazado_704752" data-name="Trazado 704752" d="M373.965,272.9c-35.228-10.281-69.671-20.444-103.577-30.509,8.529-40.661,32.417-80.5,34.044-121.765,35.2,9.684,69.613,19.388,103.5,29.121-8.643,41.324-32.505,81.554-33.965,123.153" transform="translate(-52.876 -21.631)" fill="#ebebeb"/>
        <path id="Trazado_704753" data-name="Trazado 704753" d="M373.894,272.8c-35.231-10.2-69.692-20.29-103.625-30.28l-.245-.072c.016-.076.032-.153.047-.23,8.493-40.673,32.337-80.52,33.88-121.8,0-.125.009-.249.014-.374l.409.112c35.221,9.721,69.651,19.46,103.539,29.23l.28.081-.056.265c-8.752,41.3-32.688,81.5-34.244,123.072m0,0c1.363-41.627,25.151-81.883,33.685-123.233l.224.346c-33.879-9.7-68.284-19.365-103.457-29.013l.424-.262c-1.71,41.255-25.643,81.077-34.207,121.725l-.2-.3c33.878,10.14,68.3,20.379,103.528,30.738" transform="translate(-52.804 -21.525)" fill="#dbdbdb"/>
        <path id="Trazado_704754" data-name="Trazado 704754" d="M378.846,206.457a29.386,29.386,0,0,1-35.917,17.759c-14.886-4.455-22.574-19.538-17.46-33.732A28.806,28.806,0,0,1,360.848,172.6c15.057,4.395,23.3,19.577,18,33.858" transform="translate(-63.338 -30.736)" fill="#455a64"/>
        <path id="Trazado_704755" data-name="Trazado 704755" d="M352.18,198.456c-6.074,7.075-12.217,14.135-18.211,21.195a25.523,25.523,0,0,1-8.494-29.163A28.948,28.948,0,0,1,360.853,172.6c14.96,4.365,23.269,19.672,18,33.858q-13.332-4.009-26.671-8" transform="translate(-63.344 -30.74)" fill="#dbdbdb"/>
        <path id="Trazado_704756" data-name="Trazado 704756" d="M352.18,198.456c5.295,7.262,10.531,14.529,15.882,21.812a29.516,29.516,0,0,1-25.128,3.952c-14.787-4.425-22.539-19.632-17.46-33.732A28.948,28.948,0,0,1,360.853,172.6c14.959,4.365,23.269,19.672,18,33.858q-13.332-4.009-26.671-8" transform="translate(-63.344 -30.74)" fill="#dbdbdb"/>
        <path id="Trazado_704757" data-name="Trazado 704757" d="M352.179,198.456q-13.989,2.387-27.989,4.759a26.469,26.469,0,0,1,1.284-12.727A28.948,28.948,0,0,1,360.852,172.6c14.959,4.365,23.269,19.672,18,33.858q-13.332-4.009-26.671-8" transform="translate(-63.343 -30.74)" fill="#ffc727"/>
        <path id="Trazado_704758" data-name="Trazado 704758" d="M322.472,142.443q21.444,6.079,42.592,12.173-.369,1.581-.764,3.161-21.077-6.1-42.411-12.178.308-1.577.583-3.156" transform="translate(-62.947 -25.543)" fill="#dbdbdb"/>
        <path id="Trazado_704759" data-name="Trazado 704759" d="M318.353,241.508q28.26,8.5,56.83,17.073-.43,1.576-.834,3.153-28.693-8.594-57-17.1.494-1.561,1-3.122" transform="translate(-62.059 -43.307)" fill="#dbdbdb"/>
        <path id="Trazado_704760" data-name="Trazado 704760" d="M315.316,251.114q28.446,8.533,57.285,17.152-.364,1.579-.7,3.16-28.983-8.638-57.493-17.186.444-1.563.908-3.127" transform="translate(-61.484 -45.03)" fill="#dbdbdb"/>
        <path id="Trazado_704761" data-name="Trazado 704761" d="M312.6,260.736q28.681,8.574,57.84,17.24-.287,1.584-.541,3.17-29.322-8.687-58.089-17.277.383-1.568.79-3.133" transform="translate(-60.976 -46.755)" fill="#dbdbdb"/>
        <path id="Trazado_704762" data-name="Trazado 704762" d="M303.085,240.478l-6.856-2.055q.513-1.557,1.04-3.114l6.842,2.053q-.52,1.557-1.026,3.116" transform="translate(-57.929 -42.196)" fill="#ffc727"/>
        <path id="Trazado_704763" data-name="Trazado 704763" d="M300.042,250.072l-6.9-2.064q.469-1.56.958-3.118l6.882,2.061q-.479,1.56-.939,3.121" transform="translate(-57.325 -43.914)" fill="#455a64"/>
        <path id="Trazado_704764" data-name="Trazado 704764" d="M297.322,259.679l-6.958-2.074q.414-1.562.852-3.124l6.934,2.071q-.425,1.562-.827,3.127" transform="translate(-56.782 -45.634)" fill="#dbdbdb"/>
        <path id="Trazado_704765" data-name="Trazado 704765" d="M352.833,340.279H172.408L158.492,217.923H338.918Z" transform="translate(-30.994 -39.078)" fill="#ffc727"/>
        <path id="Trazado_704766" data-name="Trazado 704766" d="M220.45,202.482H156.7l1.442,12.671h67.413Z" transform="translate(-30.643 -36.309)" fill="#ffc727"/>
        <path id="Trazado_704767" data-name="Trazado 704767" d="M311.769,102.37a12.131,12.131,0,0,1-.4-3.278,11.979,11.979,0,0,1,.4-3.279,12.013,12.013,0,0,1,.4,3.279,12.134,12.134,0,0,1-.4,3.278" transform="translate(-60.889 -17.181)" fill="#263238"/>
        <path id="Trazado_704768" data-name="Trazado 704768" d="M302.953,104.914a13.363,13.363,0,0,1-3.213-5.677,11.752,11.752,0,0,1,1.955,2.634,12.017,12.017,0,0,1,1.258,3.044" transform="translate(-58.616 -17.795)" fill="#263238"/>
        <path id="Trazado_704769" data-name="Trazado 704769" d="M296.513,111.543a12.976,12.976,0,0,1-5.565-3.278,11.4,11.4,0,0,1,2.984,1.284,11.69,11.69,0,0,1,2.581,1.994" transform="translate(-56.896 -19.414)" fill="#263238"/>
        <path id="Trazado_704770" data-name="Trazado 704770" d="M294.274,120.39a11.452,11.452,0,0,1-3.213.41,11.33,11.33,0,0,1-3.213-.41,11.329,11.329,0,0,1,3.213-.41,11.451,11.451,0,0,1,3.213.41" transform="translate(-56.29 -21.515)" fill="#263238"/>
        <path id="Trazado_704771" data-name="Trazado 704771" d="M296.835,128.613a11.691,11.691,0,0,1-2.581,1.994,11.4,11.4,0,0,1-2.984,1.284,12.977,12.977,0,0,1,5.565-3.278" transform="translate(-56.959 -23.063)" fill="#263238"/>
        <path id="Trazado_704772" data-name="Trazado 704772" d="M303.511,134.481a12.015,12.015,0,0,1-1.258,3.044,11.733,11.733,0,0,1-1.955,2.634,13.363,13.363,0,0,1,3.213-5.677" transform="translate(-58.725 -24.115)" fill="#263238"/>
        <path id="Trazado_704773" data-name="Trazado 704773" d="M312.414,136.511a12.134,12.134,0,0,1,.4,3.278,12.011,12.011,0,0,1-.4,3.279,12.012,12.012,0,0,1-.4-3.279,12.137,12.137,0,0,1,.4-3.278" transform="translate(-61.015 -24.479)" fill="#263238"/>
        <path id="Trazado_704774" data-name="Trazado 704774" d="M320.646,134.159a13.363,13.363,0,0,1,3.213,5.677A11.734,11.734,0,0,1,321.9,137.2a12.029,12.029,0,0,1-1.258-3.044" transform="translate(-62.704 -24.057)" fill="#263238"/>
        <path id="Trazado_704775" data-name="Trazado 704775" d="M326.514,128.055a12.977,12.977,0,0,1,5.565,3.278,11.4,11.4,0,0,1-2.984-1.284,11.692,11.692,0,0,1-2.581-1.994" transform="translate(-63.851 -22.963)" fill="#263238"/>
        <path id="Trazado_704776" data-name="Trazado 704776" d="M328.544,119.745a12.787,12.787,0,0,1,6.427,0,11.309,11.309,0,0,1-3.214.41,11.452,11.452,0,0,1-3.213-.41" transform="translate(-64.248 -21.399)" fill="#263238"/>
        <path id="Trazado_704777" data-name="Trazado 704777" d="M326.192,110.985a11.691,11.691,0,0,1,2.581-1.994,11.4,11.4,0,0,1,2.984-1.284,12.977,12.977,0,0,1-5.565,3.278" transform="translate(-63.788 -19.314)" fill="#263238"/>
        <path id="Trazado_704778" data-name="Trazado 704778" d="M320.088,104.592a12.014,12.014,0,0,1,1.258-3.044,11.732,11.732,0,0,1,1.955-2.634,13.364,13.364,0,0,1-3.213,5.677" transform="translate(-62.595 -17.737)" fill="#263238"/>
      </g>
    </g>
    <g id="Grupo_973836" data-name="Grupo 973836">
      <g id="Grupo_973835" data-name="Grupo 973835" clip-path="url(#clip-path)">
        <path id="Trazado_704779" data-name="Trazado 704779" d="M315.951,276.589H357.29a22.869,22.869,0,0,0,2.048-8.393V234.417H318v34.217c0,3.421-2.049,7.956-2.049,7.956" transform="translate(-61.786 -42.036)" fill="#455a64"/>
        <path id="Trazado_704780" data-name="Trazado 704780" d="M324.789,246.447c4.861-.407,9.723-.5,14.584-.522,4.861.019,9.723.112,14.584.522-4.861.41-9.723.5-14.584.522-4.861-.021-9.723-.116-14.584-.522" transform="translate(-63.514 -44.099)" fill="#fff"/>
        <path id="Trazado_704781" data-name="Trazado 704781" d="M324.789,253.222c4.372-.407,8.745-.5,13.117-.522,4.372.019,8.745.112,13.117.522-4.372.41-8.745.5-13.117.522-4.372-.021-8.745-.115-13.117-.522" transform="translate(-63.514 -45.314)" fill="#fff"/>
        <path id="Trazado_704782" data-name="Trazado 704782" d="M324.789,260a113.934,113.934,0,0,1,11.474-.522,112.534,112.534,0,0,1,11.474.522,112.543,112.543,0,0,1-11.474.522A113.961,113.961,0,0,1,324.789,260" transform="translate(-63.514 -46.529)" fill="#fff"/>
        <path id="Trazado_704783" data-name="Trazado 704783" d="M324.789,266.772c4.861-.407,9.723-.5,14.584-.523,4.861.019,9.723.113,14.584.523-4.861.41-9.723.5-14.584.522-4.861-.021-9.723-.116-14.584-.522" transform="translate(-63.514 -47.744)" fill="#fff"/>
      </g>
    </g>
  </g>
</svg>
