<svg xmlns="http://www.w3.org/2000/svg" xmlns:xlink="http://www.w3.org/1999/xlink" width="1070" height="317.333" viewBox="0 0 1070 317.333">
  <defs>
    <clipPath id="clip-path">
      <rect id="Rectángulo_339096" data-name="Rectángulo 339096" width="4.515" height="57.865" fill="none"/>
    </clipPath>
    <clipPath id="clip-path-2">
      <rect id="Rectángulo_339097" data-name="Rectángulo 339097" width="9.031" height="57.719" fill="none"/>
    </clipPath>
    <clipPath id="clip-path-3">
      <rect id="Rectángulo_339099" data-name="Rectángulo 339099" width="4.076" height="90.331" fill="none"/>
    </clipPath>
    <clipPath id="clip-path-4">
      <rect id="Rectángulo_339101" data-name="Rectángulo 339101" width="62.292" height="44.047" fill="none"/>
    </clipPath>
  </defs>
  <g id="Grupo_973937" data-name="Grupo 973937" transform="translate(-265 -3860.203)">
    <path id="Trazado_704801" data-name="Trazado 704801" d="M25,0H1045a25,25,0,0,1,25,25V208.785a25,25,0,0,1-25,25H25a25,25,0,0,1-25-25V25A25,25,0,0,1,25,0Z" transform="translate(265 3943.751)" fill="#7125c8"/>
    <g id="COMPU" transform="translate(270.418 3875.052)">
      <path id="Trazado_662499" data-name="Trazado 662499" d="M100.04,70.116c1.129,2.822-1.38,8.028-4.662,9.407a2.423,2.423,0,0,1-3.2-.648,4.511,4.511,0,0,0,3.094-1.254,10.071,10.071,0,0,0,3.3-5.728,4.543,4.543,0,0,0-.46-3.3A2.239,2.239,0,0,1,100.04,70.1" transform="translate(3.241 76.414)" fill="#72a368"/>
      <path id="Trazado_662500" data-name="Trazado 662500" d="M90.964,72.37a11.926,11.926,0,0,1,1.61-2.425,10.027,10.027,0,0,1,1.881-1.756,6.128,6.128,0,0,1,2.2-1.066,3.2,3.2,0,0,1,2.2.272h0l3.324,1.923h0a3.416,3.416,0,0,0-2.927.084A11.571,11.571,0,0,0,93.2,78.976a3.757,3.757,0,0,0,1.568,3.449h0c-3.617-2.111-3.428-1.965-3.449-2.007a3.2,3.2,0,0,1-1.233-1.547h0a8.808,8.808,0,0,1,.9-6.5" transform="translate(0.673 74.725)" fill="#72a368"/>
      <path id="Trazado_662501" data-name="Trazado 662501" d="M93.622,72.331a.961.961,0,0,1-.084-.585,2.221,2.221,0,0,1,.669-1.338,1.236,1.236,0,0,1,.941-.418.658.658,0,0,1,.355.272.825.825,0,0,1,.084.439c-.042,1.3-1.463,2.488-1.965,1.631" transform="translate(4.704 77.941)" fill="#1a2738"/>
      <path id="Trazado_662502" data-name="Trazado 662502" d="M92.755,73.5a.667.667,0,0,1-.627-.021.654.654,0,0,1-.188-.23A8.351,8.351,0,0,1,92.4,71.5a1.24,1.24,0,0,1,1.129-.564c.23.063.418.272.418.711a2.242,2.242,0,0,1-.46,1.254,1.545,1.545,0,0,1-.711.606" transform="translate(2.979 78.945)" fill="#1a2738"/>
      <path id="Trazado_662503" data-name="Trazado 662503" d="M95.412,73.841c.5.857,1.923-.334,1.965-1.631a1.028,1.028,0,0,0-.084-.439.658.658,0,0,0-.355-.272,1.169,1.169,0,0,0-.941.418,2.475,2.475,0,0,0-.669,1.338.92.92,0,0,0,.084.585m-3.136,2.216a.751.751,0,0,0,.523-.021,1.546,1.546,0,0,0,.711-.606,2.242,2.242,0,0,0,.46-1.254c0-.544-.293-.648-.314-.669-.418-.209-.9.167-1.212.523a9.105,9.105,0,0,1,4.411-5.122,3.137,3.137,0,0,1,1.568-.293c1.505,2.2-.084,6.752-2.843,9.031A4.608,4.608,0,0,1,92.485,78.9a4.265,4.265,0,0,1-.5-2.989l.293.167" transform="translate(2.935 76.431)" fill="#557a4c"/>
      <path id="Trazado_662504" data-name="Trazado 662504" d="M101.767,69.853c-.648-1.61-2.2-2.383-4.286-1.484a11.571,11.571,0,0,0-6.042,9.575c0,2.948,1.881,4.578,4.62,3.428,4.014-1.693,7.087-8.069,5.707-11.519M96.185,80.18c-2.529,1.066-4.118-.773-3.721-3.637a7.85,7.85,0,0,1,.481-1.861c1.359-3.658,4.808-6.355,6.9-5.143a2.434,2.434,0,0,1,1,1.233c1.129,2.822-1.38,8.028-4.662,9.407" transform="translate(2.434 75.758)" fill="#85bf80"/>
      <path id="Trazado_662505" data-name="Trazado 662505" d="M104.831,74.353a3.919,3.919,0,0,1,0,2.3,6.878,6.878,0,0,1-1.693,2.927c-1.881,1.923-3.867,1.4-3.867-.878a6.306,6.306,0,0,1,1.881-4.181,3.372,3.372,0,0,1,2.425-1.171,1.492,1.492,0,0,1,1.275,1" transform="translate(10.972 81.605)" fill="#da926d"/>
      <path id="Trazado_662506" data-name="Trazado 662506" d="M106.732,78.292a3.919,3.919,0,0,0,0-2.3,1.492,1.492,0,0,0-1.275-1c-1.777-.167-4.306,2.676-4.306,5.373,0,2.279,1.986,2.78,3.867.878a6.878,6.878,0,0,0,1.693-2.927m-1.651-6.1c5.707,3.47-.355,13.965-6.271,10.6A2.8,2.8,0,0,1,97.576,80.8c-.523-4.035,3.178-8.717,6-8.926a2.44,2.44,0,0,1,1.484.334" transform="translate(9.071 79.987)" fill="#e2ae4a"/>
      <path id="Trazado_662507" data-name="Trazado 662507" d="M98.262,71.7A8.481,8.481,0,0,0,96.4,73.983a1.845,1.845,0,0,1-.773-.669,1.525,1.525,0,0,1-.188-.732A1.437,1.437,0,0,1,96.9,71.14a1.525,1.525,0,0,1,.732.188l.627.376h0Z" transform="translate(6.796 79.195)" fill="#c8d1dc"/>
      <path id="Trazado_662508" data-name="Trazado 662508" d="M101.074,83.945c-.648-.376-2.885-1.672-3.219-1.861a4.725,4.725,0,0,1-2.4-4.2c0-2.927,2.32-6.4,5.205-7a4.677,4.677,0,0,1,3.345.564l3.178,1.84c-2.927-1.568-7.944,4.014-7.338,8.676a2.873,2.873,0,0,0,1.212,2.007" transform="translate(6.806 78.808)" fill="#e2ae4a"/>
      <path id="Trazado_662509" data-name="Trazado 662509" d="M94.53,74.787a1.435,1.435,0,0,1-.46-2.007,1.469,1.469,0,0,1,1.923-.523h0l1.965,1.129a7.554,7.554,0,0,0-.732,2.927c-.021,0,.021,0-2.676-1.547" transform="translate(5.051 80.231)" fill="#c8d1dc"/>
      <path id="Trazado_662510" data-name="Trazado 662510" d="M88.833,130.162l93.886-54.893a22.191,22.191,0,0,1,22.469,0L269.2,112.791l5.509-1.922v7.173h0a3.5,3.5,0,0,1-1.724,3.025l-95.1,55.6a22.191,22.191,0,0,1-22.469,0l-67.8-39.748A3.472,3.472,0,0,1,85.91,134.2h0v-7.44l2.923,3.387Z" transform="translate(-0.959 90.077)" fill="#e4e8ee"/>
      <path id="Trazado_662511" data-name="Trazado 662511" d="M272.985,117.328l-2.249,1.313-57.531,33.641-6.278,3.672-29.046,16.992a22.235,22.235,0,0,1-22.469,0L87.613,133.2a3.541,3.541,0,0,1-1.256-4.795,3.391,3.391,0,0,1,1.256-1.275l78.5-45.914,4.666-2.74L182.7,71.509a22.191,22.191,0,0,1,22.469,0l3.71,2.188,4.891,2.873,11.843,6.945,4.085,2.4,26.929,15.793h0l13.53,7.935,2.811,1.655a3.519,3.519,0,0,1,1.256,4.776,3.638,3.638,0,0,1-1.274,1.294" transform="translate(-0.979 85.977)" fill="#fefefe"/>
      <path id="Trazado_662513" data-name="Trazado 662513" d="M112.474,128.191c.167.46.857.732,1.338.794l50.841,7.86a7.169,7.169,0,0,0,4.641-.774,2.93,2.93,0,0,0,1.108-1.15l7-15.114v.941l5.623-12.125v-.941l7-15.093a1.6,1.6,0,0,0,.167-.69v3.157a1.528,1.528,0,0,1-.167.69L170.38,138.058a2.794,2.794,0,0,1-1.108,1.15,7.169,7.169,0,0,1-4.641.773l-50.841-7.86a1.985,1.985,0,0,1-1.233-.606.808.808,0,0,1-.167-.439v-3.157h0a.736.736,0,0,0,.042.251" transform="translate(25.28 101.834)" fill="#596876"/>
      <path id="Trazado_662514" data-name="Trazado 662514" d="M133.827,87.333s.084-.063.146-.1a2.8,2.8,0,0,1,1.881-.314l50.841,7.86a5.764,5.764,0,0,1,2.509.962,2.134,2.134,0,0,1,.983,1.652,1.528,1.528,0,0,1-.167.69l-7,15.093-1.422-.23-5.623,12.125.878.146.544.084-7,15.114a2.794,2.794,0,0,1-1.108,1.15,7.169,7.169,0,0,1-4.641.774l-50.841-7.86c-.481-.084-1.171-.334-1.338-.794a1.049,1.049,0,0,1-.042-.251.406.406,0,0,1,.063-.272l21.093-45.468a.947.947,0,0,1,.272-.355m45.635,24.292a.832.832,0,0,0-.439-.962,3.5,3.5,0,0,0-1.38-.4s-11.79-1.84-11.916-1.84a2.72,2.72,0,0,0-1.965.376,1.673,1.673,0,0,0-.272.272c-.084.146-6.439,13.86-6.439,13.881a1.12,1.12,0,0,0-.1.23.832.832,0,0,0,.439.962,3.5,3.5,0,0,0,1.38.4l11.665,1.819a3.737,3.737,0,0,0,1.275.042,1.96,1.96,0,0,0,1.212-.627c.084-.146,6.439-13.86,6.439-13.881a1.12,1.12,0,0,0,.1-.23" transform="translate(25.312 96.346)" fill="#687682"/>
      <path id="Trazado_662515" data-name="Trazado 662515" d="M146.932,99.579v.941l-1.045.084-.376-1.233,1.422.23Z" transform="translate(61.397 109.98)" fill="#1a2738"/>
      <path id="Trazado_662516" data-name="Trazado 662516" d="M148.454,99.371l.376,1.233-5.122,11.017-.9-.146,5.623-12.125Z" transform="translate(58.452 109.958)" fill="#1a2738"/>
      <path id="Trazado_662517" data-name="Trazado 662517" d="M155.811,99.472a.821.821,0,0,1,.439.962,1.121,1.121,0,0,1-.1.23s-6.355,13.735-6.439,13.86a1.861,1.861,0,0,1-1.212.627,3.278,3.278,0,0,1-1.275-.042l-11.665-1.819a3.19,3.19,0,0,1-1.38-.4.821.821,0,0,1-.439-.962,1.116,1.116,0,0,1,.1-.23s6.355-13.735,6.439-13.86a1.67,1.67,0,0,1,.272-.272,2.8,2.8,0,0,1,1.965-.376l11.916,1.84a3.189,3.189,0,0,1,1.38.4" transform="translate(48.525 107.558)" fill="#596876"/>
      <path id="Trazado_662518" data-name="Trazado 662518" d="M149.4,99.92l-5.623,12.125V111.1l-.523-.084L148.372,100l1.045-.063Z" transform="translate(58.932 110.58)" fill="#283c48"/>
      <path id="Trazado_662519" data-name="Trazado 662519" d="M141.363,91.606l-1.338,2.864a.718.718,0,0,1-.794.418l-3.449-.544a.752.752,0,0,1-.627-.857.4.4,0,0,1,.063-.209l1.338-2.864A.717.717,0,0,1,137.35,90l3.449.523a.741.741,0,0,1,.627.857.8.8,0,0,1-.063.209" transform="translate(50.094 99.744)" fill="#1a2738"/>
      <path id="Trazado_662520" data-name="Trazado 662520" d="M140.283,93.937,138.946,96.8a.718.718,0,0,1-.794.418l-3.449-.544a.741.741,0,0,1-.627-.857.8.8,0,0,1,.063-.209l1.338-2.864a.717.717,0,0,1,.794-.418l3.449.544a.741.741,0,0,1,.627.857.8.8,0,0,1-.063.209" transform="translate(48.917 102.285)" fill="#1a2738"/>
      <path id="Trazado_662521" data-name="Trazado 662521" d="M139.2,96.266l-1.338,2.864a.717.717,0,0,1-.794.418l-3.449-.523a.752.752,0,0,1-.627-.857.4.4,0,0,1,.063-.209l1.338-2.864a.717.717,0,0,1,.794-.418l3.449.544a.741.741,0,0,1,.627.857.8.8,0,0,1-.063.209" transform="translate(47.739 104.848)" fill="#1a2738"/>
      <path id="Trazado_662522" data-name="Trazado 662522" d="M138.423,91.156l-1.338,2.864a.717.717,0,0,1-.794.418l-3.449-.544a.741.741,0,0,1-.627-.857.8.8,0,0,1,.063-.209l1.317-2.864a.718.718,0,0,1,.794-.418l3.449.544a.741.741,0,0,1,.627.857.8.8,0,0,1-.063.209" transform="translate(46.888 99.254)" fill="#1a2738"/>
      <path id="Trazado_662523" data-name="Trazado 662523" d="M138.1,98.607l-1.317,2.864a.717.717,0,0,1-.794.418l-3.449-.544a.752.752,0,0,1-.627-.857.8.8,0,0,1,.063-.209l1.338-2.864A.717.717,0,0,1,134.11,97l3.449.544a.741.741,0,0,1,.627.857.8.8,0,0,1-.063.209" transform="translate(46.561 107.378)" fill="#1a2738"/>
      <path id="Trazado_662524" data-name="Trazado 662524" d="M137.333,93.476,136,96.34a.717.717,0,0,1-.794.418l-3.449-.523a.752.752,0,0,1-.627-.857.4.4,0,0,1,.063-.209l1.338-2.864a.718.718,0,0,1,.794-.418l3.449.544a.741.741,0,0,1,.627.857.8.8,0,0,1-.063.209" transform="translate(45.7 101.805)" fill="#1a2738"/>
      <path id="Trazado_662525" data-name="Trazado 662525" d="M137.033,100.936,135.7,103.8a.717.717,0,0,1-.794.418l-3.449-.544a.752.752,0,0,1-.627-.857.467.467,0,0,1,.063-.209l1.338-2.864a.718.718,0,0,1,.794-.418l3.449.544a.741.741,0,0,1,.627.857.8.8,0,0,1-.063.209" transform="translate(45.373 109.919)" fill="#1a2738"/>
      <path id="Trazado_662526" data-name="Trazado 662526" d="M136.253,95.816l-1.338,2.864a.718.718,0,0,1-.794.418l-3.449-.544a.752.752,0,0,1-.627-.857.467.467,0,0,1,.063-.209l1.338-2.864a.717.717,0,0,1,.794-.418l3.449.544a.741.741,0,0,1,.627.857.8.8,0,0,1-.063.209" transform="translate(44.522 104.335)" fill="#1a2738"/>
      <path id="Trazado_662527" data-name="Trazado 662527" d="M135.953,103.277l-1.338,2.864a.718.718,0,0,1-.794.418l-3.449-.544a.752.752,0,0,1-.627-.857.4.4,0,0,1,.063-.209l1.338-2.864a.717.717,0,0,1,.794-.418l3.449.523a.741.741,0,0,1,.627.857.8.8,0,0,1-.063.209" transform="translate(44.195 112.471)" fill="#1a2738"/>
      <path id="Trazado_662528" data-name="Trazado 662528" d="M135.473,90.686l-1.338,2.864a.718.718,0,0,1-.794.418l-3.449-.523a.752.752,0,0,1-.627-.857.4.4,0,0,1,.063-.209l1.338-2.864a.718.718,0,0,1,.794-.418l3.449.544a.741.741,0,0,1,.627.857.8.8,0,0,1-.063.209" transform="translate(43.671 98.763)" fill="#1a2738"/>
      <path id="Trazado_662529" data-name="Trazado 662529" d="M135.173,98.156l-1.338,2.864a.718.718,0,0,1-.794.418l-3.449-.544a.752.752,0,0,1-.627-.857.467.467,0,0,1,.063-.209l1.338-2.864a.718.718,0,0,1,.794-.418l3.449.544a.741.741,0,0,1,.627.857.8.8,0,0,1-.063.209" transform="translate(43.344 106.887)" fill="#1a2738"/>
      <path id="Trazado_662530" data-name="Trazado 662530" d="M134.863,105.606l-1.338,2.864a.717.717,0,0,1-.794.418l-3.449-.544a.741.741,0,0,1-.627-.857.8.8,0,0,1,.063-.209l1.338-2.864a.717.717,0,0,1,.794-.418l3.449.544a.741.741,0,0,1,.627.857.8.8,0,0,1-.063.209" transform="translate(43.006 115.011)" fill="#1a2738"/>
      <path id="Trazado_662531" data-name="Trazado 662531" d="M134.383,93.026l-1.338,2.864a.717.717,0,0,1-.794.418l-3.449-.544a.752.752,0,0,1-.627-.857.467.467,0,0,1,.063-.209l1.338-2.864a.718.718,0,0,1,.794-.418l3.449.544a.741.741,0,0,1,.627.857.8.8,0,0,1-.063.209" transform="translate(42.483 101.293)" fill="#1a2738"/>
      <path id="Trazado_662532" data-name="Trazado 662532" d="M134.083,100.486l-1.338,2.864a.718.718,0,0,1-.794.418l-3.449-.544a.752.752,0,0,1-.627-.857.4.4,0,0,1,.063-.209l1.338-2.864a.718.718,0,0,1,.794-.418l3.449.523a.741.741,0,0,1,.627.857.8.8,0,0,1-.063.209" transform="translate(42.156 109.428)" fill="#1a2738"/>
      <path id="Trazado_662533" data-name="Trazado 662533" d="M133.783,107.926l-1.338,2.864a.717.717,0,0,1-.794.418l-3.449-.523a.752.752,0,0,1-.627-.857.4.4,0,0,1,.063-.209l1.338-2.864a.717.717,0,0,1,.794-.418l3.449.544a.741.741,0,0,1,.627.857.8.8,0,0,1-.063.209" transform="translate(41.829 117.563)" fill="#1a2738"/>
      <path id="Trazado_662534" data-name="Trazado 662534" d="M133.3,95.366l-1.338,2.864a.717.717,0,0,1-.794.418l-3.449-.544a.741.741,0,0,1-.627-.857.4.4,0,0,1,.063-.209l1.317-2.864a.718.718,0,0,1,.794-.418l3.449.544a.741.741,0,0,1,.627.857.8.8,0,0,1-.063.209" transform="translate(41.305 103.845)" fill="#1a2738"/>
      <path id="Trazado_662535" data-name="Trazado 662535" d="M133,102.817l-1.338,2.864a.717.717,0,0,1-.794.418l-3.449-.544a.741.741,0,0,1-.627-.857.8.8,0,0,1,.063-.209l1.338-2.864a.717.717,0,0,1,.794-.418l3.449.544a.741.741,0,0,1,.627.857.8.8,0,0,1-.063.209" transform="translate(40.978 111.969)" fill="#1a2738"/>
      <path id="Trazado_662536" data-name="Trazado 662536" d="M132.7,110.276l-1.338,2.864a.717.717,0,0,1-.794.418l-3.449-.544a.752.752,0,0,1-.627-.857.4.4,0,0,1,.063-.209l1.338-2.864a.717.717,0,0,1,.794-.418l3.449.544a.741.741,0,0,1,.627.857.8.8,0,0,1-.063.209" transform="translate(40.651 120.104)" fill="#1a2738"/>
      <path id="Trazado_662537" data-name="Trazado 662537" d="M132.523,90.236,131.186,93.1a.717.717,0,0,1-.794.418l-3.449-.544a.752.752,0,0,1-.627-.857.4.4,0,0,1,.063-.209l1.338-2.864a.717.717,0,0,1,.794-.418l3.449.544a.741.741,0,0,1,.627.857.8.8,0,0,1-.063.209" transform="translate(40.454 98.25)" fill="#1a2738"/>
      <path id="Trazado_662538" data-name="Trazado 662538" d="M132.223,97.7l-1.338,2.864a.717.717,0,0,1-.794.418l-3.449-.544a.752.752,0,0,1-.627-.857.4.4,0,0,1,.063-.209l1.338-2.864a.717.717,0,0,1,.794-.418l3.449.523a.741.741,0,0,1,.627.857.8.8,0,0,1-.063.209" transform="translate(40.127 106.386)" fill="#1a2738"/>
      <path id="Trazado_662539" data-name="Trazado 662539" d="M131.923,105.136,130.586,108a.718.718,0,0,1-.794.418l-3.449-.523a.752.752,0,0,1-.627-.857.4.4,0,0,1,.063-.209l1.338-2.864a.717.717,0,0,1,.794-.418l3.449.544a.741.741,0,0,1,.627.857.4.4,0,0,1-.063.209" transform="translate(39.8 114.521)" fill="#1a2738"/>
      <path id="Trazado_662540" data-name="Trazado 662540" d="M131.443,92.577l-1.338,2.864a.717.717,0,0,1-.794.418l-3.449-.544a.752.752,0,0,1-.627-.857.4.4,0,0,1,.063-.209l1.338-2.864a.717.717,0,0,1,.794-.418l3.449.544a.741.741,0,0,1,.627.857.8.8,0,0,1-.063.209" transform="translate(39.277 100.802)" fill="#1a2738"/>
      <path id="Trazado_662541" data-name="Trazado 662541" d="M131.143,100.026l-1.338,2.864a.717.717,0,0,1-.794.418l-3.449-.544a.741.741,0,0,1-.627-.857A.8.8,0,0,1,125,101.7l1.338-2.864a.717.717,0,0,1,.794-.418l3.449.544a.741.741,0,0,1,.627.857.8.8,0,0,1-.063.209" transform="translate(38.95 108.926)" fill="#1a2738"/>
      <path id="Trazado_662542" data-name="Trazado 662542" d="M130.823,107.486l-1.317,2.864a.717.717,0,0,1-.794.418l-3.449-.544a.752.752,0,0,1-.627-.857.4.4,0,0,1,.063-.209l1.338-2.864a.717.717,0,0,1,.794-.418l3.449.544a.741.741,0,0,1,.627.857.8.8,0,0,1-.063.209" transform="translate(38.622 117.062)" fill="#1a2738"/>
      <path id="Trazado_662543" data-name="Trazado 662543" d="M130.363,94.907l-1.338,2.864a.717.717,0,0,1-.794.418l-3.449-.544a.752.752,0,0,1-.627-.857.4.4,0,0,1,.063-.209l1.338-2.864a.717.717,0,0,1,.794-.418l3.449.523a.741.741,0,0,1,.627.857.8.8,0,0,1-.063.209" transform="translate(38.099 103.343)" fill="#1a2738"/>
      <path id="Trazado_662544" data-name="Trazado 662544" d="M130.053,102.356l-1.338,2.864a.717.717,0,0,1-.794.418l-3.449-.523a.752.752,0,0,1-.627-.857.4.4,0,0,1,.063-.209l1.338-2.864a.717.717,0,0,1,.794-.418l3.449.544a.741.741,0,0,1,.627.857.8.8,0,0,1-.063.209" transform="translate(37.761 111.489)" fill="#1a2738"/>
      <path id="Trazado_662545" data-name="Trazado 662545" d="M129.753,109.816l-1.338,2.864a.718.718,0,0,1-.794.418l-3.449-.544a.752.752,0,0,1-.627-.857.467.467,0,0,1,.063-.209l1.317-2.864a.717.717,0,0,1,.794-.418l3.449.544a.741.741,0,0,1,.627.857.4.4,0,0,1-.063.209" transform="translate(37.434 119.602)" fill="#1a2738"/>
      <path id="Trazado_662546" data-name="Trazado 662546" d="M129.573,89.787l-1.338,2.864a.717.717,0,0,1-.794.418l-3.449-.544a.752.752,0,0,1-.627-.857.4.4,0,0,1,.063-.209l1.338-2.864a.717.717,0,0,1,.794-.418l3.449.544a.752.752,0,0,1,.627.857.4.4,0,0,1-.063.209" transform="translate(37.238 97.76)" fill="#1a2738"/>
      <path id="Trazado_662547" data-name="Trazado 662547" d="M129.273,97.237l-1.338,2.864a.717.717,0,0,1-.794.418l-3.449-.544a.741.741,0,0,1-.627-.857.8.8,0,0,1,.063-.209l1.338-2.864a.717.717,0,0,1,.794-.418l3.449.544a.741.741,0,0,1,.627.857.8.8,0,0,1-.063.209" transform="translate(36.91 105.884)" fill="#1a2738"/>
      <path id="Trazado_662548" data-name="Trazado 662548" d="M128.973,104.7l-1.338,2.864a.717.717,0,0,1-.794.418l-3.449-.544a.752.752,0,0,1-.627-.857.467.467,0,0,1,.063-.209l1.338-2.864a.717.717,0,0,1,.794-.418l3.449.544a.741.741,0,0,1,.627.857.8.8,0,0,1-.063.209" transform="translate(36.583 114.019)" fill="#1a2738"/>
      <path id="Trazado_662549" data-name="Trazado 662549" d="M128.493,92.116l-1.338,2.864a.717.717,0,0,1-.794.418l-3.449-.544a.752.752,0,0,1-.627-.857.4.4,0,0,1,.063-.209l1.338-2.864a.717.717,0,0,1,.794-.418l3.449.523a.741.741,0,0,1,.627.857.8.8,0,0,1-.063.209" transform="translate(36.06 100.3)" fill="#1a2738"/>
      <path id="Trazado_662550" data-name="Trazado 662550" d="M128.193,99.566l-1.338,2.864a.717.717,0,0,1-.794.418l-3.449-.523a.741.741,0,0,1-.627-.857.8.8,0,0,1,.063-.209l1.338-2.864a.717.717,0,0,1,.794-.418l3.449.544a.741.741,0,0,1,.627.857.8.8,0,0,1-.063.209" transform="translate(35.733 108.447)" fill="#1a2738"/>
      <path id="Trazado_662551" data-name="Trazado 662551" d="M127.893,107.026l-1.338,2.864a.717.717,0,0,1-.794.418l-3.449-.544a.752.752,0,0,1-.627-.857.468.468,0,0,1,.063-.209l1.338-2.864a.717.717,0,0,1,.794-.418l3.449.544a.741.741,0,0,1,.627.857.8.8,0,0,1-.063.209" transform="translate(35.406 116.56)" fill="#1a2738"/>
      <path id="Trazado_662552" data-name="Trazado 662552" d="M127.413,94.447l-1.338,2.864a.718.718,0,0,1-.794.418l-3.449-.544a.752.752,0,0,1-.627-.857.4.4,0,0,1,.063-.209l1.338-2.864a.717.717,0,0,1,.794-.418l3.449.523a.741.741,0,0,1,.627.857.4.4,0,0,1-.063.209" transform="translate(34.882 102.841)" fill="#1a2738"/>
      <path id="Trazado_662553" data-name="Trazado 662553" d="M127.113,101.907l-1.338,2.864a.717.717,0,0,1-.794.418l-3.449-.544a.752.752,0,0,1-.627-.857.467.467,0,0,1,.063-.209l1.338-2.864a.717.717,0,0,1,.794-.418l3.449.544a.741.741,0,0,1,.627.857.8.8,0,0,1-.063.209" transform="translate(34.555 110.977)" fill="#1a2738"/>
      <path id="Trazado_662554" data-name="Trazado 662554" d="M126.8,109.356l-1.338,2.864a.717.717,0,0,1-.794.418l-3.449-.544a.752.752,0,0,1-.627-.857.4.4,0,0,1,.063-.209L122,108.165a.717.717,0,0,1,.794-.418l3.449.523a.741.741,0,0,1,.627.857.8.8,0,0,1-.063.209" transform="translate(34.217 119.101)" fill="#1a2738"/>
      <path id="Trazado_662555" data-name="Trazado 662555" d="M126.323,96.776l-1.338,2.864a.717.717,0,0,1-.794.418l-3.449-.523a.752.752,0,0,1-.627-.857.4.4,0,0,1,.063-.209l1.338-2.864a.717.717,0,0,1,.794-.418l3.449.544a.741.741,0,0,1,.627.857.8.8,0,0,1-.063.209" transform="translate(33.693 105.404)" fill="#1a2738"/>
      <path id="Trazado_662556" data-name="Trazado 662556" d="M126.023,104.237l-1.338,2.864a.717.717,0,0,1-.794.418l-3.449-.544a.752.752,0,0,1-.627-.857.467.467,0,0,1,.063-.209l1.338-2.864a.717.717,0,0,1,.794-.418l3.449.544a.741.741,0,0,1,.627.857.8.8,0,0,1-.063.209" transform="translate(33.366 113.517)" fill="#1a2738"/>
      <path id="Trazado_662557" data-name="Trazado 662557" d="M125.243,99.116l-1.338,2.864a.717.717,0,0,1-.794.418l-3.449-.544a.752.752,0,0,1-.627-.857.467.467,0,0,1,.063-.209l1.338-2.864a.717.717,0,0,1,.794-.418l3.449.544a.741.741,0,0,1,.627.857.8.8,0,0,1-.063.209" transform="translate(32.516 107.934)" fill="#1a2738"/>
      <path id="Trazado_662558" data-name="Trazado 662558" d="M111,123h0m-.46-2.634h0m.021.125v0m0,0c.021.125.042.272.084.46a.356.356,0,0,0,.021.146l-.167-.941c-.878-5.08-.857-5.059-1.066-6.209-.4-2.279-.334-2.028-.439-2.509a5.766,5.766,0,0,1-.125-.836,3.778,3.778,0,0,1,.146-1.442c.063-.209,19.421-41.873,19.525-42.1a3.636,3.636,0,0,1,.293-.564.337.337,0,0,1,.146-.084c.209,0,.314.439.334.648l7.3,42.563-20.4,43.963c-3.115-18.167-4.6-26.863-5.247-30.71v-.042h0c-.063-.355-.209-1.254-.334-1.9-.021-.167-.063-.334-.084-.46" transform="translate(21.422 74.037)" fill="#93d2f0"/>
      <path id="Trazado_662559" data-name="Trazado 662559" d="M124.943,106.567l-1.338,2.864a.717.717,0,0,1-.794.418l-3.449-.544a.752.752,0,0,1-.627-.857.4.4,0,0,1,.063-.209l1.338-2.864a.717.717,0,0,1,.794-.418l3.449.523a.741.741,0,0,1,.627.857.8.8,0,0,1-.063.209" transform="translate(32.189 116.058)" fill="#1a2738"/>
      <path id="Trazado_662560" data-name="Trazado 662560" d="M124.163,101.446l-1.338,2.864a.717.717,0,0,1-.794.418l-3.449-.544a.752.752,0,0,1-.627-.857.4.4,0,0,1,.063-.209l1.338-2.864a.717.717,0,0,1,.794-.418l3.449.544a.741.741,0,0,1,.627.857.8.8,0,0,1-.063.209" transform="translate(31.338 110.475)" fill="#1a2738"/>
      <path id="Trazado_662561" data-name="Trazado 662561" d="M123.863,108.907l-1.338,2.864a.717.717,0,0,1-.794.418l-3.449-.544a.741.741,0,0,1-.627-.857.8.8,0,0,1,.063-.209l1.338-2.864a.717.717,0,0,1,.794-.418l3.449.544a.741.741,0,0,1,.627.857.8.8,0,0,1-.063.209" transform="translate(31.011 118.61)" fill="#1a2738"/>
      <path id="Trazado_662562" data-name="Trazado 662562" d="M123.083,103.786l-1.338,2.864a.717.717,0,0,1-.794.418l-3.449-.544a.741.741,0,0,1-.627-.857.8.8,0,0,1,.063-.209l1.338-2.864a.717.717,0,0,1,.794-.418l3.449.523a.741.741,0,0,1,.627.857.4.4,0,0,1-.063.209" transform="translate(30.16 113.027)" fill="#1a2738"/>
      <path id="Trazado_662563" data-name="Trazado 662563" d="M121.993,106.116l-1.338,2.864a.717.717,0,0,1-.794.418l-3.449-.544a.741.741,0,0,1-.627-.857.8.8,0,0,1,.063-.209l1.338-2.864a.717.717,0,0,1,.794-.418l3.449.544a.741.741,0,0,1,.627.857.8.8,0,0,1-.063.209" transform="translate(28.972 115.568)" fill="#1a2738"/>
      <path id="Trazado_662564" data-name="Trazado 662564" d="M120.913,108.436l-1.338,2.864a.717.717,0,0,1-.794.418l-3.449-.523a.752.752,0,0,1-.627-.857.4.4,0,0,1,.063-.209l1.338-2.864a.717.717,0,0,1,.794-.418l3.449.544a.741.741,0,0,1,.627.857.8.8,0,0,1-.063.209" transform="translate(27.794 118.119)" fill="#1a2738"/>
      <path id="Trazado_662565" data-name="Trazado 662565" d="M127.834,64.84l3.658.1c-.272,0-.544.293-.773.794l-19.651,42.333a6.973,6.973,0,0,0-.481,1.589,15.035,15.035,0,0,0-.084,4.934l7.484,43.671a1.882,1.882,0,0,0,.167.585c.063.146.167.251.272.251-1.233-.042-2.467-.063-3.7-.1h0c-.251,0-.376-.544-.439-.836L106.8,114.489a13.307,13.307,0,0,1-.167-2.739,10.46,10.46,0,0,1,.711-3.763L127,65.655c.146-.334.439-.815.794-.794" transform="translate(18.992 72.325)" fill="#596876"/>
      <path id="Trazado_662566" data-name="Trazado 662566" d="M116.816,157.145a1.317,1.317,0,0,0-.063.272h0v1.422q-.125.22-.251.188a.429.429,0,0,1-.272-.251,1.883,1.883,0,0,1-.167-.585l-7.484-43.671a14.486,14.486,0,0,1,.084-4.934,6.312,6.312,0,0,1,.481-1.589l19.651-42.333c.23-.5.5-.794.773-.794h.021c.314,0,.627.376.878,1.192.084.293.146.585.209.878l7.484,43.671a3.622,3.622,0,0,1,.063.669.775.775,0,0,0-.272.355L116.837,157.1Zm20.3-45.8-7.3-42.563c-.042-.209-.146-.648-.334-.648a.212.212,0,0,0-.146.084,2.4,2.4,0,0,0-.293.564c-.1.23-19.462,41.894-19.525,42.1a4.19,4.19,0,0,0-.146,1.442,3.853,3.853,0,0,0,.125.836c.084.46.021.23.439,2.509.209,1.15.188,1.129,1.066,6.209.063.355.125.669.167.941a.31.31,0,0,0,.021.146c.021.042,0,.063,0,.1a.355.355,0,0,0,.021.146h0s0,.1.021.125c0,.063.021.125.021.167v.167a.471.471,0,0,0,.021.146c.021.167.042.293.063.4v.084c0,.063,0,.1.021.125s0,.084.021.146h0c.648,3.847,2.153,12.564,5.247,30.709l20.4-43.963Z" transform="translate(20.937 72.358)" fill="#283c48"/>
      <path id="Trazado_662584" data-name="Trazado 662584" d="M105.4,113.86a11.577,11.577,0,0,1,6.042,9.6c0,2.927-1.84,4.6-4.62,3.428-3.993-1.672-7.087-8.028-5.707-11.519.648-1.631,2.2-2.383,4.286-1.484" transform="translate(12.619 125.385)" fill="#da926d"/>
      <path id="Trazado_662585" data-name="Trazado 662585" d="M101.53,114.884l3.449-1.986a3.06,3.06,0,0,1,1.819-.334c3.491.4,7.86,6.1,7.191,10.912a3.533,3.533,0,0,1-1.484,2.467c-1.422.815-2.216,1.275-3.345,1.923a3.928,3.928,0,0,0,1.463-3.387,11.532,11.532,0,0,0-6.042-9.6,3.283,3.283,0,0,0-3.052,0h0Z" transform="translate(13.437 124.34)" fill="#e2ae4a"/>
      <path id="Trazado_696835" data-name="Trazado 696835" d="M145.277,162.515a1.777,1.777,0,0,0-2.467-.606l-4.725,2.739a23.936,23.936,0,0,1-23.853,0L75.308,142.153a10.674,10.674,0,0,1-5.414-9.282,10.807,10.807,0,0,1,5.435-9.449l5.874-3.408,58.45-33.741a6.741,6.741,0,0,0,2.425-2.425,6.6,6.6,0,0,0-2.425-9.031,1.789,1.789,0,1,0-1.8,3.094,3.126,3.126,0,0,1,1.108,1.108,3.038,3.038,0,0,1-1.108,4.139L81.433,115.75h-.042l-2.362,1.359-12.585,7.777c-.5,1.484-.167,6.355-.167,7.986a14.2,14.2,0,0,0,7.212,12.376l38.946,22.494a27.279,27.279,0,0,0,13.714,3.658h0a27.436,27.436,0,0,0,13.714-3.658L144.587,165a.3.3,0,0,0,.063-.042,1.777,1.777,0,0,0,.606-2.467Z" transform="translate(-25.126 82.938)" fill="#616c7b"/>
      <g id="Grupo_972552" data-name="Grupo 972552" transform="translate(64.039 -14.849)">
        <path id="Trazado_662483" data-name="Trazado 662483" d="M103.969,63.134V61.19c-8.613,4.871-20.32,6.272-30.229,5.143v3.449c9.909.773,21.846-1.024,30.229-6.648" transform="translate(-57.316 66.723)" fill="#d45340"/>
        <path id="Trazado_662484" data-name="Trazado 662484" d="M103.969,56V54.1c-8.717,4.85-20.382,6.251-30.229,5.1V62.65c10.013.773,21.867-1.024,30.229-6.648" transform="translate(-57.316 58.991)" fill="#d45340"/>
        <path id="Trazado_662485" data-name="Trazado 662485" d="M102.939,69.79c-6.564,4.432-17.226,7.568-30.229,6.648v3.387c13.3,1.547,25.274-1.672,32.382-6.418Z" transform="translate(-56.382 76.101)" fill="#dc8d57"/>
        <path id="Trazado_662486" data-name="Trazado 662486" d="M72.71,45.915V51.5l2.153,3.6V44.64a20.109,20.109,0,0,1-2.153,1.275" transform="translate(-27.126 48.675)" fill="#b85371"/>
        <path id="Trazado_662487" data-name="Trazado 662487" d="M72.71,63.8l2.153,3.617V60.58a20.109,20.109,0,0,1-2.153,1.275Z" transform="translate(-27.126 66.058)" fill="#b85371"/>
        <path id="Trazado_662488" data-name="Trazado 662488" d="M72.71,54.787v1.9l2.153,3.617V53.47c-.69.481-1.422.9-2.153,1.317" transform="translate(-27.126 58.304)" fill="#b85371"/>
        <path id="Trazado_662489" data-name="Trazado 662489" d="M72.71,68.965V72.08L74.863,75.7V67.69a20.112,20.112,0,0,1-2.153,1.275" transform="translate(-27.126 73.811)" fill="#b85371"/>
        <g id="Grupo_971571" data-name="Grupo 971571" transform="translate(38.634 96.033)" opacity="0.64">
          <g id="Grupo_971570" data-name="Grupo 971570">
            <g id="Grupo_972546" data-name="Grupo 972546" clip-path="url(#clip-path)">
              <g id="Grupo_971569" data-name="Grupo 971569" transform="translate(0 0)">
                <path id="Trazado_662490" data-name="Trazado 662490" d="M75.07,47.612v56.193a45.3,45.3,0,0,0,4.515-1.693V45.94a41.611,41.611,0,0,1-4.515,1.672" transform="translate(-75.07 -45.94)" fill="#e8deed"/>
              </g>
            </g>
          </g>
        </g>
        <g id="Grupo_971574" data-name="Grupo 971574" transform="translate(27.787 98.374)" opacity="0.37">
          <g id="Grupo_971573" data-name="Grupo 971573" transform="translate(0)">
            <g id="Grupo_972547" data-name="Grupo 972547" clip-path="url(#clip-path-2)">
              <g id="Grupo_971572" data-name="Grupo 971572" transform="translate(0 0)">
                <path id="Trazado_662491" data-name="Trazado 662491" d="M78.37,48.586v56.193a52.588,52.588,0,0,0,9.031-1.526V47.06a52.932,52.932,0,0,1-9.031,1.526" transform="translate(-78.37 -47.06)" fill="#e8deed"/>
              </g>
            </g>
          </g>
        </g>
        <path id="Trazado_662492" data-name="Trazado 662492" d="M105.768,45.327c-6.627,4.6-19.023,7.986-32.382,6.418v56.193c13.316,1.547,25.316-1.672,32.382-6.418Zm0-1.317a1.312,1.312,0,0,1,1.317,1.317V101.52a1.287,1.287,0,0,1-.585,1.087c-7.379,4.954-19.63,8.216-33.26,6.627a1.292,1.292,0,0,1-1.15-1.3V51.745a1.312,1.312,0,0,1,1.317-1.317,64.906,64.906,0,0,0,6.69.4c9.554,0,19.107-2.509,24.94-6.564a1.385,1.385,0,0,1,.753-.23" transform="translate(-57.064 47.988)" fill="#e4a077"/>
        <g id="Grupo_971580" data-name="Grupo 971580" transform="translate(0 77.887)" opacity="0.64">
          <g id="Grupo_971579" data-name="Grupo 971579">
            <g id="Grupo_972549" data-name="Grupo 972549" clip-path="url(#clip-path-3)">
              <g id="Grupo_971578" data-name="Grupo 971578" transform="translate(-0.021)">
                <path id="Trazado_662494" data-name="Trazado 662494" d="M94.97,125.479a34.068,34.068,0,0,0,4.076,2.09V39.351a32.3,32.3,0,0,1-4.056-2.09v88.219Z" transform="translate(-94.97 -37.26)" fill="#e8bea6"/>
              </g>
            </g>
          </g>
        </g>
        <path id="Trazado_662589" data-name="Trazado 662589" d="M65.657,35.6,123.382.227a1.162,1.162,0,0,1,1.1-.146l.118.063L130.02,3.4l-4.609,6.334-.236-.063V134.584a8.005,8.005,0,0,1-3.072,6.23L69.28,173.2l3.388,2.571-3.762,3.93-5.672-3.387a1.7,1.7,0,0,1-.65-1.568V41.828a8.005,8.005,0,0,1,3.072-6.23" transform="translate(-62.376 -0.002)" fill="#92a1d2"/>
        <path id="Trazado_662590" data-name="Trazado 662590" d="M64,177.8l57.451-35.371a8.019,8.019,0,0,0,3.058-6.23V3.261c0-1.4-.8-2.049-1.784-1.442L65.278,37.19a8.019,8.019,0,0,0-3.058,6.23V176.355c0,1.4.8,2.049,1.784,1.442" transform="translate(-56.137 1.73)" fill="#d9e0f3"/>
        <path id="Trazado_662591" data-name="Trazado 662591" d="M64,107.251,121.454,71.88a8.019,8.019,0,0,0,3.058-6.23v.69a8.019,8.019,0,0,1-3.058,6.23L64,107.941c-.98.606-1.784-.042-1.784-1.442v-.69c0,1.4.8,2.049,1.784,1.442" transform="translate(-56.137 71.587)" fill="#afbee2"/>
        <path id="Trazado_662592" data-name="Trazado 662592" d="M81.09,15.094c0,.815.585,1.15,1.3.753a2.948,2.948,0,0,0,1.3-2.237c0-.815-.585-1.15-1.3-.753a2.948,2.948,0,0,0-1.3,2.237" transform="translate(-52.417 13.834)" fill="#3d4697"/>
        <path id="Trazado_662593" data-name="Trazado 662593" d="M73.673,17,86.446,9.62a1.165,1.165,0,0,0,.523-.9c0-.334-.23-.46-.523-.293L73.673,15.808a1.165,1.165,0,0,0-.523.9c0,.334.23.46.523.293" transform="translate(-39.829 9.106)" fill="#3d4697"/>
        <path id="Trazado_662594" data-name="Trazado 662594" d="M63.945,170.87l58.274-35.894a6,6,0,0,0,2.293-4.683V5.386c0-1.359-.764-1.965-1.725-1.38L64.513,39.9a6,6,0,0,0-2.293,4.683V169.49c0,1.359.764,1.965,1.725,1.38" transform="translate(-56.137 4.121)" fill="#3d4697"/>
        <g id="Grupo_971594" data-name="Grupo 971594" transform="translate(6.083 3.319)" opacity="0.53">
          <g id="Grupo_971593" data-name="Grupo 971593">
            <g id="Grupo_972551" data-name="Grupo 972551" clip-path="url(#clip-path-4)">
              <g id="Grupo_971592" data-name="Grupo 971592" transform="translate(0 0.003)">
                <path id="Trazado_662595" data-name="Trazado 662595" d="M65.278,37.19,122.728,1.819c.98-.606,1.784.042,1.784,1.442V5.477c0-1.4-.8-2.049-1.784-1.442L65.278,39.406a8.019,8.019,0,0,0-3.058,6.23V43.42a8.019,8.019,0,0,1,3.058-6.23" transform="translate(-62.22 -1.591)" fill="#fff"/>
              </g>
            </g>
          </g>
        </g>
        <path id="Trazado_662596" data-name="Trazado 662596" d="M95.92,48.995l.167.1c.627.376,1.15-.021,1.15-.878V31.644a2.7,2.7,0,0,0-1.15-2.2l-.167-.1c-.627-.376-1.15.021-1.15.878V46.779a2.7,2.7,0,0,0,1.15,2.2" transform="translate(-92.763 31.84)" fill="#3b4395"/>
        <path id="Trazado_662597" data-name="Trazado 662597" d="M95.92,51.126l.167.1c.627.376,1.15-.021,1.15-.878V42.534a2.7,2.7,0,0,0-1.15-2.2l-.167-.1c-.627-.376-1.15.021-1.15.878v7.818a2.7,2.7,0,0,0,1.15,2.2" transform="translate(-92.763 43.716)" fill="#3b4395"/>
        <path id="Trazado_662598" data-name="Trazado 662598" d="M96.18,48.995l.167.1c.627.376,1.15-.021,1.15-.878V31.644a2.7,2.7,0,0,0-1.15-2.2l-.167-.1c-.627-.376-1.15.021-1.15.878V46.779a2.7,2.7,0,0,0,1.15,2.2" transform="translate(-93.567 31.84)" fill="#6467ad"/>
        <path id="Trazado_662599" data-name="Trazado 662599" d="M96.18,51.126l.167.1c.627.376,1.15-.021,1.15-.878V42.534a2.7,2.7,0,0,0-1.15-2.2l-.167-.1c-.627-.376-1.15.021-1.15.878v7.818a2.7,2.7,0,0,0,1.15,2.2" transform="translate(-93.567 43.716)" fill="#6467ad"/>
        <path id="Trazado_662600" data-name="Trazado 662600" d="M89.193,15.014a1.013,1.013,0,0,0-.627,1.275,1.035,1.035,0,0,0,.627.627,3.631,3.631,0,0,0,3.282,0,1.013,1.013,0,0,0,.627-1.275,1.035,1.035,0,0,0-.627-.627,3.631,3.631,0,0,0-3.282,0" transform="translate(-76.393 15.941)" fill="#3d4697"/>
        <path id="Trazado_662601" data-name="Trazado 662601" d="M89.328,15.129a.669.669,0,0,0-.418.857.642.642,0,0,0,.418.418,2.48,2.48,0,0,0,2.237,0,.669.669,0,0,0,.418-.857.642.642,0,0,0-.418-.418,2.48,2.48,0,0,0-2.237,0" transform="translate(-76.033 16.203)" fill="#283374"/>
        <path id="Trazado_662602" data-name="Trazado 662602" d="M92.478,15.485a3.631,3.631,0,0,0-3.282,0,1.35,1.35,0,0,0-.648.711c-.125-.418.084-.857.648-1.192a3.631,3.631,0,0,1,3.282,0,1.046,1.046,0,0,1,.648,1.192,1.349,1.349,0,0,0-.648-.711" transform="translate(-76.396 15.93)" fill="#283374"/>
        <path id="Trazado_662603" data-name="Trazado 662603" d="M62.9,143.646l58.968-36.437V14.62L62.9,51.057Z" transform="translate(-54.914 15.938)" fill="#7a97ce"/>
        <path id="Trazado_662604" data-name="Trazado 662604" d="M62.9,96.416l58.968-36.437V57.93L62.9,94.367v2.049Z" transform="translate(-54.914 63.168)" fill="#4c62ab"/>
        <path id="Trazado_662605" data-name="Trazado 662605" d="M64.24,136.1l53.387-33.218v-86L64.24,50.1v86Z" transform="translate(-53.474 18.403)" fill="#f0f7fd"/>
        <path id="Trazado_662606" data-name="Trazado 662606" d="M80.563,18.01c2.718-1.568,4.913-.293,4.913,2.843a10.843,10.843,0,0,1-4.913,8.508c-2.718,1.568-4.913.293-4.913-2.843a10.843,10.843,0,0,1,4.913-8.508m0,6.606a5.042,5.042,0,0,0,2.279-3.93c0-1.442-1.024-2.049-2.279-1.317a5.042,5.042,0,0,0-2.279,3.93c0,1.442,1.024,2.028,2.279,1.317" transform="translate(-43.32 18.904)" fill="#273c8b"/>
        <path id="Trazado_662609" data-name="Trazado 662609" d="M66.22,59.662l49.273-28.452v-1.4L66.22,58.262v1.4Z" transform="translate(-55.48 32.503)" fill="#7a97ce"/>
        <path id="Trazado_662610" data-name="Trazado 662610" d="M72.11,57.665l36.981-21.344v-1.4L72.11,56.264Z" transform="translate(-58.98 38.075)" fill="#7a97ce"/>
        <path id="Trazado_662611" data-name="Trazado 662611" d="M66.21,63.063l49.315-28.473v-1.4L66.21,61.663Z" transform="translate(-55.49 36.189)" fill="#7a97ce"/>
        <path id="Trazado_662612" data-name="Trazado 662612" d="M66.21,64.743l49.315-28.473v-1.4L66.21,63.343Z" transform="translate(-55.49 38.021)" fill="#7a97ce"/>
        <path id="Trazado_662613" data-name="Trazado 662613" d="M66.21,66.423l49.315-28.473v-1.4L66.21,65.023Z" transform="translate(-55.49 39.853)" fill="#7a97ce"/>
        <path id="Trazado_662614" data-name="Trazado 662614" d="M66.21,68.1l49.315-28.473v-1.4L66.21,66.7Z" transform="translate(-55.49 41.685)" fill="#7a97ce"/>
        <path id="Trazado_662615" data-name="Trazado 662615" d="M72.11,66.065l36.981-21.344v-1.4L72.11,64.664Z" transform="translate(-58.98 47.236)" fill="#7a97ce"/>
        <path id="Trazado_662616" data-name="Trazado 662616" d="M66.21,71.463l49.315-28.473v-1.4L66.21,70.063Z" transform="translate(-55.49 45.349)" fill="#7a97ce"/>
        <path id="Trazado_662617" data-name="Trazado 662617" d="M66.21,73.143l49.315-28.473v-1.4L66.21,71.743Z" transform="translate(-55.49 47.181)" fill="#7a97ce"/>
        <path id="Trazado_662618" data-name="Trazado 662618" d="M85.21,74.21l9.6-5.54v-1.4l-9.6,5.54Z" transform="translate(-71.325 73.353)" fill="#7a97ce"/>
        <path id="Trazado_662619" data-name="Trazado 662619" d="M85.21,72.93l9.6-5.54v-1.4l-9.6,5.54Z" transform="translate(-71.325 71.957)" fill="#7a97ce"/>
        <path id="Trazado_662620" data-name="Trazado 662620" d="M85.21,71.64l9.6-5.54V64.7l-9.6,5.54Z" transform="translate(-71.325 70.551)" fill="#7a97ce"/>
        <path id="Trazado_662621" data-name="Trazado 662621" d="M66.22,60.68l9.6-5.54v-1.4l-9.6,5.54Z" transform="translate(-15.802 58.599)" fill="#7a97ce"/>
        <path id="Trazado_662622" data-name="Trazado 662622" d="M66.31,84.9l49.106-28.347V46.27L66.31,74.617Z" transform="translate(-55.59 50.453)" fill="#bfd1ed"/>
      </g>
    </g>
    <text id="Para_publicar_y_compartir_presentaciones_se_requiere_un_servicio_de_almacenamiento_en_la_nube_siendo_los_más_populares_Drive_15_Gb_de_Google_One_Drive_5_Gb_de_Microsoft_Dropbox_2_Gb_y_Mega_20_Gb_todos_con_servicio_gratuito_hasta_el_límite_de_al" data-name="Para publicar y compartir presentaciones se requiere un servicio de almacenamiento en la nube, siendo los más populares Drive (15 Gb) de Google, One Drive (5 Gb) de Microsoft, Dropbox (2 Gb) y Mega (20 Gb), todos con servicio gratuito hasta el límite de al" transform="translate(600 3978.251)" fill="#fff" font-size="16" font-family="Roboto-Regular, Roboto"><tspan x="0" y="15">Para publicar y compartir presentaciones se requiere un servicio de almacenamiento en la nube, </tspan><tspan x="0" y="39">siendo los más populares </tspan><tspan y="39" font-family="Roboto-Italic, Roboto" font-style="italic">Drive</tspan><tspan y="39" xml:space="preserve"> (15 Gb) de </tspan><tspan y="39" font-family="Roboto-Italic, Roboto" font-style="italic">Google, One Drive</tspan><tspan y="39" xml:space="preserve"> (5 Gb) de </tspan><tspan y="39" font-family="Roboto-Italic, Roboto" font-style="italic">Microsoft, Dropbox</tspan><tspan y="39" xml:space="preserve"> (2 Gb) y </tspan><tspan x="0" y="63" font-family="Roboto-Italic, Roboto" font-style="italic">Mega</tspan><tspan y="63" xml:space="preserve"> (20 Gb), todos con servicio gratuito hasta el límite de almacenamiento indicado en paréntesis </tspan><tspan x="0" y="87">y de ahí en adelante pagando. Para obtener el servicio es necesario crear un usuario y una </tspan><tspan x="0" y="111">contraseña en la plataforma seleccionada, siendo en </tspan><tspan y="111" font-family="Roboto-Italic, Roboto" font-style="italic">Google </tspan><tspan y="111">y</tspan><tspan y="111" xml:space="preserve" font-family="Roboto-Italic, Roboto" font-style="italic"> Microsoft</tspan><tspan y="111" xml:space="preserve"> los mismos de la cuenta de </tspan><tspan x="0" y="135">correo respectiva, es decir</tspan><tspan y="135" xml:space="preserve" font-family="Roboto-Italic, Roboto" font-style="italic"> Gmail</tspan><tspan y="135" xml:space="preserve"> y</tspan><tspan y="135" xml:space="preserve" font-family="Roboto-Italic, Roboto" font-style="italic"> Hotmail</tspan><tspan y="135" xml:space="preserve"> (</tspan><tspan y="135" font-family="Roboto-Italic, Roboto" font-style="italic">Outlook</tspan><tspan y="135">).</tspan></text>
    <path id="Trazado_704799" data-name="Trazado 704799" d="M26,0H127a26,26,0,0,1,26,26v5a26,26,0,0,1-26,26H26A26,26,0,0,1,0,31V26A26,26,0,0,1,26,0Z" transform="translate(412 3922.251)" fill="#ffc321"/>
    <text id="_Sabías_qué_" data-name="¿Sabías qué?" transform="translate(427.815 3939.251)" fill="#12263f" font-size="20" font-family="Roboto-Black, Roboto" font-weight="800"><tspan x="0" y="19">¿Sabías qué?</tspan></text>
    <path id="Trazado_704800" data-name="Trazado 704800" d="M-2823.333-11242.667v27.334l22-27.334Z" transform="translate(3262 15217.858)" fill="#ffc321"/>
  </g>
</svg>
