<svg xmlns="http://www.w3.org/2000/svg" xmlns:xlink="http://www.w3.org/1999/xlink" width="1070" height="256.61" viewBox="0 0 1070 256.61">
  <defs>
    <clipPath id="clip-path">
      <rect id="Rectángulo_339096" data-name="Rectángulo 339096" width="4.071" height="52.166" fill="none"/>
    </clipPath>
    <clipPath id="clip-path-2">
      <rect id="Rectángulo_339097" data-name="Rectángulo 339097" width="8.141" height="52.034" fill="none"/>
    </clipPath>
    <clipPath id="clip-path-3">
      <rect id="Rectángulo_339099" data-name="Rectángulo 339099" width="3.675" height="81.434" fill="none"/>
    </clipPath>
    <clipPath id="clip-path-4">
      <rect id="Rectángulo_339101" data-name="Rectángulo 339101" width="56.157" height="39.709" fill="none"/>
    </clipPath>
  </defs>
  <g id="Grupo_974465" data-name="Grupo 974465" transform="translate(-265 -350.142)">
    <rect id="Rectángulo_339105" data-name="Rectángulo 339105" width="1070" height="113" rx="25" transform="translate(265 425.893)" fill="#7125c8"/>
    <g id="COMPU" transform="translate(281.878 364.99)">
      <path id="Trazado_662499" data-name="Trazado 662499" d="M99.266,69.966c1.018,2.544-1.244,7.237-4.2,8.481a2.184,2.184,0,0,1-2.883-.584,4.066,4.066,0,0,0,2.789-1.131,9.079,9.079,0,0,0,2.978-5.164,4.1,4.1,0,0,0-.415-2.978,2.018,2.018,0,0,1,1.734,1.357" transform="translate(-2.115 60.671)" fill="#72a368"/>
      <path id="Trazado_662500" data-name="Trazado 662500" d="M90.851,71.845A10.752,10.752,0,0,1,92.3,69.659,9.04,9.04,0,0,1,94,68.076a5.524,5.524,0,0,1,1.979-.961,2.882,2.882,0,0,1,1.979.245h0l3,1.734h0a3.08,3.08,0,0,0-2.638.075A10.432,10.432,0,0,0,92.868,77.8a3.387,3.387,0,0,0,1.413,3.11h0c-3.26-1.9-3.091-1.772-3.11-1.809a2.885,2.885,0,0,1-1.112-1.395h0a7.941,7.941,0,0,1,.81-5.861" transform="translate(-4.198 59.3)" fill="#72a368"/>
      <path id="Trazado_662501" data-name="Trazado 662501" d="M93.612,72.1a.867.867,0,0,1-.075-.528,2,2,0,0,1,.6-1.206,1.115,1.115,0,0,1,.848-.377.593.593,0,0,1,.32.245.744.744,0,0,1,.075.4c-.038,1.168-1.319,2.243-1.772,1.47" transform="translate(-0.928 61.909)" fill="#1a2738"/>
      <path id="Trazado_662502" data-name="Trazado 662502" d="M92.675,73.247a.6.6,0,0,1-.565-.019.589.589,0,0,1-.17-.207,7.528,7.528,0,0,1,.415-1.583,1.118,1.118,0,0,1,1.018-.509c.207.057.377.245.377.641a2.021,2.021,0,0,1-.415,1.131,1.393,1.393,0,0,1-.641.547" transform="translate(-2.327 62.723)" fill="#1a2738"/>
      <path id="Trazado_662503" data-name="Trazado 662503" d="M95.066,73.325c.452.773,1.734-.3,1.772-1.47a.927.927,0,0,0-.075-.4.593.593,0,0,0-.32-.245,1.054,1.054,0,0,0-.848.377,2.232,2.232,0,0,0-.6,1.206.829.829,0,0,0,.075.528m-2.827,2a.677.677,0,0,0,.471-.019,1.393,1.393,0,0,0,.641-.547,2.021,2.021,0,0,0,.415-1.131c0-.49-.264-.584-.283-.6-.377-.188-.81.151-1.093.471a8.208,8.208,0,0,1,3.977-4.617,2.828,2.828,0,0,1,1.413-.264c1.357,1.979-.075,6.087-2.563,8.142a4.154,4.154,0,0,1-2.789,1.131,3.845,3.845,0,0,1-.452-2.7l.264.151" transform="translate(-2.363 60.684)" fill="#557a4c"/>
      <path id="Trazado_662504" data-name="Trazado 662504" d="M100.75,69.669c-.584-1.451-1.979-2.148-3.863-1.338a10.432,10.432,0,0,0-5.447,8.632c0,2.657,1.7,4.127,4.165,3.091,3.618-1.527,6.389-7.275,5.145-10.384m-5.032,9.31c-2.28.961-3.713-.7-3.355-3.279a7.078,7.078,0,0,1,.433-1.677c1.225-3.3,4.335-5.729,6.219-4.636a2.195,2.195,0,0,1,.9,1.112c1.018,2.544-1.244,7.237-4.2,8.481" transform="translate(-2.77 60.138)" fill="#85bf80"/>
      <path id="Trazado_662505" data-name="Trazado 662505" d="M104.283,74.255a3.533,3.533,0,0,1,0,2.073,6.2,6.2,0,0,1-1.527,2.638c-1.7,1.734-3.487,1.263-3.487-.792a5.685,5.685,0,0,1,1.7-3.769,3.04,3.04,0,0,1,2.186-1.055,1.345,1.345,0,0,1,1.15.9" transform="translate(4.157 64.881)" fill="#da926d"/>
      <path id="Trazado_662506" data-name="Trazado 662506" d="M105.826,77.66a3.533,3.533,0,0,0,0-2.073,1.345,1.345,0,0,0-1.15-.9c-1.6-.151-3.882,2.412-3.882,4.843,0,2.054,1.79,2.507,3.487.792a6.2,6.2,0,0,0,1.527-2.638m-1.489-5.5c5.145,3.128-.32,12.589-5.654,9.555a2.528,2.528,0,0,1-1.093-1.809c-.471-3.637,2.865-7.859,5.409-8.047a2.2,2.2,0,0,1,1.338.3" transform="translate(2.614 63.568)" fill="#e2ae4a"/>
      <path id="Trazado_662507" data-name="Trazado 662507" d="M97.984,71.649A7.646,7.646,0,0,0,96.307,73.7a1.663,1.663,0,0,1-.7-.6,1.375,1.375,0,0,1-.17-.66,1.3,1.3,0,0,1,1.319-1.3,1.375,1.375,0,0,1,.66.17l.565.339h0Z" transform="translate(0.769 62.926)" fill="#c8d1dc"/>
      <path id="Trazado_662508" data-name="Trazado 662508" d="M100.52,82.649c-.584-.339-2.6-1.508-2.9-1.677a4.26,4.26,0,0,1-2.167-3.788c0-2.638,2.092-5.767,4.693-6.313a4.217,4.217,0,0,1,3.015.509l2.865,1.658c-2.638-1.413-7.161,3.618-6.615,7.821a2.59,2.59,0,0,0,1.093,1.809" transform="translate(0.777 62.612)" fill="#e2ae4a"/>
      <path id="Trazado_662509" data-name="Trazado 662509" d="M94.462,74.521a1.293,1.293,0,0,1-.415-1.809,1.324,1.324,0,0,1,1.734-.471h0l1.772,1.018a6.81,6.81,0,0,0-.66,2.638c-.019,0,.019,0-2.412-1.395" transform="translate(-0.647 63.767)" fill="#c8d1dc"/>
      <path id="Trazado_662510" data-name="Trazado 662510" d="M88.545,124.455l84.639-49.487a20.006,20.006,0,0,1,20.256,0l57.71,33.826,4.967-1.732v6.467h0a3.15,3.15,0,0,1-1.554,2.727l-85.737,50.122a20.006,20.006,0,0,1-20.256,0L87.447,130.545a3.13,3.13,0,0,1-1.537-2.453h0v-6.707l2.635,3.053Z" transform="translate(-5.283 72.631)" fill="#e4e8ee"/>
      <path id="Trazado_662511" data-name="Trazado 662511" d="M254.558,112.514l-2.027,1.184-51.864,30.328-5.659,3.311-26.186,15.318a20.045,20.045,0,0,1-20.256,0L87.443,126.821a3.192,3.192,0,0,1-1.132-4.323,3.057,3.057,0,0,1,1.132-1.149l70.769-41.392,4.207-2.47,10.745-6.278a20.005,20.005,0,0,1,20.256,0l3.345,1.973,4.409,2.59,10.677,6.261,3.683,2.161L239.81,98.431h0l12.2,7.153,2.534,1.492a3.172,3.172,0,0,1,1.132,4.306,3.279,3.279,0,0,1-1.149,1.166" transform="translate(-5.3 69.305)" fill="#fefefe"/>
      <path id="Trazado_662513" data-name="Trazado 662513" d="M112.465,124.617c.151.415.773.66,1.206.716l45.834,7.086a6.463,6.463,0,0,0,4.184-.7,2.642,2.642,0,0,0,1-1.037L171,117.06v.848l5.07-10.931v-.848l6.313-13.607a1.44,1.44,0,0,0,.151-.622v2.846a1.377,1.377,0,0,1-.151.622l-17.715,38.145a2.519,2.519,0,0,1-1,1.037,6.463,6.463,0,0,1-4.184.7l-45.834-7.086a1.79,1.79,0,0,1-1.112-.547.729.729,0,0,1-.151-.4v-2.846h0a.663.663,0,0,0,.038.226" transform="translate(15.763 81.291)" fill="#596876"/>
      <path id="Trazado_662514" data-name="Trazado 662514" d="M131.718,87.287s.075-.057.132-.094a2.523,2.523,0,0,1,1.7-.283L179.38,94a5.2,5.2,0,0,1,2.262.867,1.924,1.924,0,0,1,.886,1.489,1.377,1.377,0,0,1-.151.622l-6.313,13.607-1.282-.207-5.07,10.931.792.132.49.075-6.313,13.626a2.519,2.519,0,0,1-1,1.037,6.463,6.463,0,0,1-4.184.7l-45.834-7.086c-.433-.075-1.055-.3-1.206-.716a.946.946,0,0,1-.038-.226.366.366,0,0,1,.057-.245l19.016-40.99a.854.854,0,0,1,.245-.32m41.141,21.9a.75.75,0,0,0-.4-.867,3.16,3.16,0,0,0-1.244-.358S160.609,106.3,160.5,106.3a2.452,2.452,0,0,0-1.772.339,1.508,1.508,0,0,0-.245.245c-.075.132-5.8,12.495-5.8,12.514a1.009,1.009,0,0,0-.094.207.75.75,0,0,0,.4.867,3.16,3.16,0,0,0,1.244.358l10.516,1.64a3.369,3.369,0,0,0,1.15.038,1.767,1.767,0,0,0,1.093-.565c.075-.132,5.8-12.495,5.8-12.514a1.01,1.01,0,0,0,.094-.207" transform="translate(15.789 76.839)" fill="#687682"/>
      <path id="Trazado_662515" data-name="Trazado 662515" d="M146.792,99.558v.848l-.942.075-.339-1.112,1.282.207Z" transform="translate(45.061 87.899)" fill="#1a2738"/>
      <path id="Trazado_662516" data-name="Trazado 662516" d="M147.9,99.369l.339,1.112-4.617,9.932-.81-.132,5.07-10.931Z" transform="translate(42.672 87.881)" fill="#1a2738"/>
      <path id="Trazado_662517" data-name="Trazado 662517" d="M153.634,99.243a.74.74,0,0,1,.4.867,1.011,1.011,0,0,1-.094.207s-5.729,12.382-5.8,12.495a1.678,1.678,0,0,1-1.093.565,2.955,2.955,0,0,1-1.15-.038l-10.516-1.64a2.875,2.875,0,0,1-1.244-.358.74.74,0,0,1-.4-.867,1.007,1.007,0,0,1,.094-.207s5.729-12.382,5.8-12.495a1.506,1.506,0,0,1,.245-.245,2.529,2.529,0,0,1,1.772-.339l10.742,1.658a2.875,2.875,0,0,1,1.244.358" transform="translate(34.619 85.934)" fill="#596876"/>
      <path id="Trazado_662518" data-name="Trazado 662518" d="M148.791,99.92l-5.07,10.931V110l-.471-.075L147.867,100l.942-.057Z" transform="translate(43.062 88.385)" fill="#283c48"/>
      <path id="Trazado_662519" data-name="Trazado 662519" d="M140.751,91.447l-1.206,2.582a.647.647,0,0,1-.716.377l-3.11-.49a.678.678,0,0,1-.565-.773.363.363,0,0,1,.057-.188l1.206-2.582a.647.647,0,0,1,.716-.377l3.11.471a.668.668,0,0,1,.565.773.718.718,0,0,1-.057.188" transform="translate(35.892 79.596)" fill="#1a2738"/>
      <path id="Trazado_662520" data-name="Trazado 662520" d="M139.671,93.777l-1.206,2.582a.647.647,0,0,1-.716.377l-3.11-.49a.668.668,0,0,1-.565-.773.718.718,0,0,1,.057-.188l1.206-2.582a.647.647,0,0,1,.716-.377l3.11.49a.668.668,0,0,1,.565.773.719.719,0,0,1-.057.188" transform="translate(34.937 81.657)" fill="#1a2738"/>
      <path id="Trazado_662521" data-name="Trazado 662521" d="M138.591,96.108l-1.206,2.582a.647.647,0,0,1-.716.377l-3.11-.471a.678.678,0,0,1-.565-.773.363.363,0,0,1,.057-.188l1.206-2.582a.647.647,0,0,1,.716-.377l3.11.49a.668.668,0,0,1,.565.773.719.719,0,0,1-.057.188" transform="translate(33.982 83.736)" fill="#1a2738"/>
      <path id="Trazado_662522" data-name="Trazado 662522" d="M137.811,91,136.6,93.579a.647.647,0,0,1-.716.377l-3.11-.49a.668.668,0,0,1-.565-.773.719.719,0,0,1,.057-.188l1.187-2.582a.647.647,0,0,1,.716-.377l3.11.49a.668.668,0,0,1,.565.773.719.719,0,0,1-.057.188" transform="translate(33.292 79.198)" fill="#1a2738"/>
      <path id="Trazado_662523" data-name="Trazado 662523" d="M137.492,98.447l-1.187,2.582a.647.647,0,0,1-.716.377l-3.11-.49a.678.678,0,0,1-.565-.773.718.718,0,0,1,.057-.188l1.206-2.582a.647.647,0,0,1,.716-.377l3.11.49a.668.668,0,0,1,.565.773.719.719,0,0,1-.057.188" transform="translate(33.026 85.788)" fill="#1a2738"/>
      <path id="Trazado_662524" data-name="Trazado 662524" d="M136.721,93.318,135.515,95.9a.647.647,0,0,1-.716.377l-3.11-.471a.678.678,0,0,1-.565-.773.363.363,0,0,1,.057-.188l1.206-2.582a.647.647,0,0,1,.716-.377l3.11.49a.668.668,0,0,1,.565.773.718.718,0,0,1-.057.188" transform="translate(32.328 81.268)" fill="#1a2738"/>
      <path id="Trazado_662525" data-name="Trazado 662525" d="M136.421,100.777l-1.206,2.582a.647.647,0,0,1-.716.377l-3.11-.49a.678.678,0,0,1-.565-.773.421.421,0,0,1,.057-.188l1.206-2.582a.647.647,0,0,1,.716-.377l3.11.49a.668.668,0,0,1,.565.773.719.719,0,0,1-.057.188" transform="translate(32.062 87.849)" fill="#1a2738"/>
      <path id="Trazado_662526" data-name="Trazado 662526" d="M135.641,95.657l-1.206,2.582a.647.647,0,0,1-.716.377l-3.11-.49a.678.678,0,0,1-.565-.773.421.421,0,0,1,.057-.188l1.206-2.582a.647.647,0,0,1,.716-.377l3.11.49a.668.668,0,0,1,.565.773.719.719,0,0,1-.057.188" transform="translate(31.372 83.32)" fill="#1a2738"/>
      <path id="Trazado_662527" data-name="Trazado 662527" d="M135.341,103.117l-1.206,2.582a.647.647,0,0,1-.716.377l-3.11-.49a.678.678,0,0,1-.565-.773.364.364,0,0,1,.057-.188l1.206-2.582a.647.647,0,0,1,.716-.377l3.11.471a.668.668,0,0,1,.565.773.718.718,0,0,1-.057.188" transform="translate(31.107 89.919)" fill="#1a2738"/>
      <path id="Trazado_662528" data-name="Trazado 662528" d="M134.861,90.528l-1.206,2.582a.647.647,0,0,1-.716.377l-3.11-.471a.678.678,0,0,1-.565-.773.363.363,0,0,1,.057-.188l1.206-2.582a.647.647,0,0,1,.716-.377l3.11.49a.668.668,0,0,1,.565.773.718.718,0,0,1-.057.188" transform="translate(30.682 78.8)" fill="#1a2738"/>
      <path id="Trazado_662529" data-name="Trazado 662529" d="M134.561,98l-1.206,2.582a.647.647,0,0,1-.716.377l-3.11-.49a.678.678,0,0,1-.565-.773.421.421,0,0,1,.057-.188l1.206-2.582a.647.647,0,0,1,.716-.377l3.11.49a.668.668,0,0,1,.565.773.718.718,0,0,1-.057.188" transform="translate(30.417 85.39)" fill="#1a2738"/>
      <path id="Trazado_662530" data-name="Trazado 662530" d="M134.251,105.447l-1.206,2.582a.647.647,0,0,1-.716.377l-3.11-.49a.668.668,0,0,1-.565-.773.718.718,0,0,1,.057-.188l1.206-2.582a.647.647,0,0,1,.716-.377l3.11.49a.668.668,0,0,1,.565.773.718.718,0,0,1-.057.188" transform="translate(30.143 91.98)" fill="#1a2738"/>
      <path id="Trazado_662531" data-name="Trazado 662531" d="M133.771,92.867l-1.206,2.582a.647.647,0,0,1-.716.377l-3.11-.49a.678.678,0,0,1-.565-.773.421.421,0,0,1,.057-.188l1.206-2.582a.647.647,0,0,1,.716-.377l3.11.49a.668.668,0,0,1,.565.773.718.718,0,0,1-.057.188" transform="translate(29.718 80.852)" fill="#1a2738"/>
      <path id="Trazado_662532" data-name="Trazado 662532" d="M133.471,100.327l-1.206,2.582a.647.647,0,0,1-.716.377l-3.11-.49a.678.678,0,0,1-.565-.773.364.364,0,0,1,.057-.188l1.206-2.582a.647.647,0,0,1,.716-.377l3.11.471a.668.668,0,0,1,.565.773.718.718,0,0,1-.057.188" transform="translate(29.453 87.451)" fill="#1a2738"/>
      <path id="Trazado_662533" data-name="Trazado 662533" d="M133.171,107.768l-1.206,2.582a.647.647,0,0,1-.716.377l-3.11-.471a.678.678,0,0,1-.565-.773.364.364,0,0,1,.057-.188l1.206-2.582a.647.647,0,0,1,.716-.377l3.11.49a.668.668,0,0,1,.565.773.719.719,0,0,1-.057.188" transform="translate(29.187 94.05)" fill="#1a2738"/>
      <path id="Trazado_662534" data-name="Trazado 662534" d="M132.691,95.207l-1.206,2.582a.647.647,0,0,1-.716.377l-3.11-.49a.668.668,0,0,1-.565-.773.364.364,0,0,1,.057-.188l1.187-2.582a.647.647,0,0,1,.716-.377l3.11.49a.668.668,0,0,1,.565.773.717.717,0,0,1-.057.188" transform="translate(28.763 82.922)" fill="#1a2738"/>
      <path id="Trazado_662535" data-name="Trazado 662535" d="M132.391,102.657l-1.206,2.582a.647.647,0,0,1-.716.377l-3.11-.49a.668.668,0,0,1-.565-.773.718.718,0,0,1,.057-.188l1.206-2.582a.647.647,0,0,1,.716-.377l3.11.49a.668.668,0,0,1,.565.773.719.719,0,0,1-.057.188" transform="translate(28.497 89.512)" fill="#1a2738"/>
      <path id="Trazado_662536" data-name="Trazado 662536" d="M132.091,110.117l-1.206,2.582a.647.647,0,0,1-.716.377l-3.11-.49a.678.678,0,0,1-.565-.773.364.364,0,0,1,.057-.188l1.206-2.582a.647.647,0,0,1,.716-.377l3.11.49a.668.668,0,0,1,.565.773.72.72,0,0,1-.057.188" transform="translate(28.232 96.111)" fill="#1a2738"/>
      <path id="Trazado_662537" data-name="Trazado 662537" d="M131.911,90.077,130.7,92.659a.647.647,0,0,1-.716.377l-3.11-.49a.678.678,0,0,1-.565-.773.364.364,0,0,1,.057-.188L127.576,89a.647.647,0,0,1,.716-.377l3.11.49a.668.668,0,0,1,.565.773.72.72,0,0,1-.057.188" transform="translate(28.073 78.384)" fill="#1a2738"/>
      <path id="Trazado_662538" data-name="Trazado 662538" d="M131.611,97.537l-1.206,2.582a.647.647,0,0,1-.716.377l-3.11-.49a.678.678,0,0,1-.565-.773.364.364,0,0,1,.057-.188l1.206-2.582a.647.647,0,0,1,.716-.377l3.11.471a.668.668,0,0,1,.565.773.72.72,0,0,1-.057.188" transform="translate(27.807 84.983)" fill="#1a2738"/>
      <path id="Trazado_662539" data-name="Trazado 662539" d="M131.311,104.978,130.1,107.56a.647.647,0,0,1-.716.377l-3.11-.471a.678.678,0,0,1-.565-.773.364.364,0,0,1,.057-.188l1.206-2.582a.647.647,0,0,1,.716-.377l3.11.49a.668.668,0,0,1,.565.773.364.364,0,0,1-.057.188" transform="translate(27.542 91.582)" fill="#1a2738"/>
      <path id="Trazado_662540" data-name="Trazado 662540" d="M130.831,92.417,129.625,95a.647.647,0,0,1-.716.377l-3.11-.49a.678.678,0,0,1-.565-.773.364.364,0,0,1,.057-.188l1.206-2.582a.647.647,0,0,1,.716-.377l3.11.49a.668.668,0,0,1,.565.773.719.719,0,0,1-.057.188" transform="translate(27.117 80.454)" fill="#1a2738"/>
      <path id="Trazado_662541" data-name="Trazado 662541" d="M130.531,99.867l-1.206,2.582a.647.647,0,0,1-.716.377l-3.11-.49a.668.668,0,0,1-.565-.773.718.718,0,0,1,.057-.188l1.206-2.582a.647.647,0,0,1,.716-.377l3.11.49a.668.668,0,0,1,.565.773.717.717,0,0,1-.057.188" transform="translate(26.852 87.044)" fill="#1a2738"/>
      <path id="Trazado_662542" data-name="Trazado 662542" d="M130.212,107.327l-1.187,2.582a.647.647,0,0,1-.716.377l-3.11-.49a.678.678,0,0,1-.565-.773.364.364,0,0,1,.057-.188l1.206-2.582a.647.647,0,0,1,.716-.377l3.11.49a.668.668,0,0,1,.565.773.718.718,0,0,1-.057.188" transform="translate(26.586 93.643)" fill="#1a2738"/>
      <path id="Trazado_662543" data-name="Trazado 662543" d="M129.751,94.747l-1.206,2.582a.647.647,0,0,1-.716.377l-3.11-.49a.678.678,0,0,1-.565-.773.364.364,0,0,1,.057-.188l1.206-2.582a.647.647,0,0,1,.716-.377l3.11.471a.668.668,0,0,1,.565.773.718.718,0,0,1-.057.188" transform="translate(26.162 82.515)" fill="#1a2738"/>
      <path id="Trazado_662544" data-name="Trazado 662544" d="M129.441,102.2l-1.206,2.582a.647.647,0,0,1-.716.377l-3.11-.471a.678.678,0,0,1-.565-.773.364.364,0,0,1,.057-.188l1.206-2.582a.647.647,0,0,1,.716-.377l3.11.49a.668.668,0,0,1,.565.773.717.717,0,0,1-.057.188" transform="translate(25.888 89.123)" fill="#1a2738"/>
      <path id="Trazado_662545" data-name="Trazado 662545" d="M129.141,109.657l-1.206,2.582a.647.647,0,0,1-.716.377l-3.11-.49a.678.678,0,0,1-.565-.773.421.421,0,0,1,.057-.188l1.187-2.582a.647.647,0,0,1,.716-.377l3.11.49a.668.668,0,0,1,.565.773.364.364,0,0,1-.057.188" transform="translate(25.622 95.704)" fill="#1a2738"/>
      <path id="Trazado_662546" data-name="Trazado 662546" d="M128.961,89.627l-1.206,2.582a.647.647,0,0,1-.716.377l-3.11-.49a.678.678,0,0,1-.565-.773.364.364,0,0,1,.057-.188l1.206-2.582a.647.647,0,0,1,.716-.377l3.11.49a.678.678,0,0,1,.565.773.364.364,0,0,1-.057.188" transform="translate(25.463 77.986)" fill="#1a2738"/>
      <path id="Trazado_662547" data-name="Trazado 662547" d="M128.661,97.077l-1.206,2.582a.647.647,0,0,1-.716.377l-3.11-.49a.668.668,0,0,1-.565-.773.718.718,0,0,1,.057-.188L124.326,96a.647.647,0,0,1,.716-.377l3.11.49a.668.668,0,0,1,.565.773.717.717,0,0,1-.057.188" transform="translate(25.198 84.576)" fill="#1a2738"/>
      <path id="Trazado_662548" data-name="Trazado 662548" d="M128.361,104.537l-1.206,2.582a.647.647,0,0,1-.716.377l-3.11-.49a.678.678,0,0,1-.565-.773.421.421,0,0,1,.057-.188l1.206-2.582a.647.647,0,0,1,.716-.377l3.11.49a.668.668,0,0,1,.565.773.717.717,0,0,1-.057.188" transform="translate(24.932 91.175)" fill="#1a2738"/>
      <path id="Trazado_662549" data-name="Trazado 662549" d="M127.881,91.957l-1.206,2.582a.647.647,0,0,1-.716.377l-3.11-.49a.678.678,0,0,1-.565-.773.364.364,0,0,1,.057-.188l1.206-2.582a.647.647,0,0,1,.716-.377l3.11.471a.668.668,0,0,1,.565.773.717.717,0,0,1-.057.188" transform="translate(24.508 80.047)" fill="#1a2738"/>
      <path id="Trazado_662550" data-name="Trazado 662550" d="M127.581,99.408l-1.206,2.582a.647.647,0,0,1-.716.377l-3.11-.471a.668.668,0,0,1-.565-.773.718.718,0,0,1,.057-.188l1.206-2.582a.647.647,0,0,1,.716-.377l3.11.49a.668.668,0,0,1,.565.773.718.718,0,0,1-.057.188" transform="translate(24.242 86.655)" fill="#1a2738"/>
      <path id="Trazado_662551" data-name="Trazado 662551" d="M127.281,106.867l-1.206,2.582a.647.647,0,0,1-.716.377l-3.11-.49a.678.678,0,0,1-.565-.773.421.421,0,0,1,.057-.188l1.206-2.582a.647.647,0,0,1,.716-.377l3.11.49a.668.668,0,0,1,.565.773.718.718,0,0,1-.057.188" transform="translate(23.977 93.236)" fill="#1a2738"/>
      <path id="Trazado_662552" data-name="Trazado 662552" d="M126.8,94.287l-1.206,2.582a.647.647,0,0,1-.716.377l-3.11-.49a.678.678,0,0,1-.565-.773.364.364,0,0,1,.057-.188l1.206-2.582a.647.647,0,0,1,.716-.377l3.11.471a.668.668,0,0,1,.565.773.364.364,0,0,1-.057.188" transform="translate(23.552 82.108)" fill="#1a2738"/>
      <path id="Trazado_662553" data-name="Trazado 662553" d="M126.5,101.747l-1.206,2.582a.647.647,0,0,1-.716.377l-3.11-.49a.678.678,0,0,1-.565-.773.421.421,0,0,1,.057-.188l1.206-2.582a.647.647,0,0,1,.716-.377l3.11.49a.668.668,0,0,1,.565.773.717.717,0,0,1-.057.188" transform="translate(23.287 88.707)" fill="#1a2738"/>
      <path id="Trazado_662554" data-name="Trazado 662554" d="M126.191,109.2l-1.206,2.582a.647.647,0,0,1-.716.377l-3.11-.49a.678.678,0,0,1-.565-.773.364.364,0,0,1,.057-.188l1.206-2.582a.647.647,0,0,1,.716-.377l3.11.471a.668.668,0,0,1,.565.773.717.717,0,0,1-.057.188" transform="translate(23.013 95.298)" fill="#1a2738"/>
      <path id="Trazado_662555" data-name="Trazado 662555" d="M125.711,96.618,124.5,99.2a.647.647,0,0,1-.716.377l-3.11-.471a.678.678,0,0,1-.565-.773.364.364,0,0,1,.057-.188l1.206-2.582a.647.647,0,0,1,.716-.377l3.11.49a.668.668,0,0,1,.565.773.718.718,0,0,1-.057.188" transform="translate(22.588 84.187)" fill="#1a2738"/>
      <path id="Trazado_662556" data-name="Trazado 662556" d="M125.411,104.077l-1.206,2.582a.647.647,0,0,1-.716.377l-3.11-.49a.678.678,0,0,1-.565-.773.421.421,0,0,1,.057-.188L121.076,103a.647.647,0,0,1,.716-.377l3.11.49a.668.668,0,0,1,.565.773.717.717,0,0,1-.057.188" transform="translate(22.323 90.768)" fill="#1a2738"/>
      <path id="Trazado_662557" data-name="Trazado 662557" d="M124.631,98.957l-1.206,2.582a.647.647,0,0,1-.716.377l-3.11-.49a.678.678,0,0,1-.565-.773.421.421,0,0,1,.057-.188l1.206-2.582a.647.647,0,0,1,.716-.377l3.11.49a.668.668,0,0,1,.565.773.717.717,0,0,1-.057.188" transform="translate(21.633 86.239)" fill="#1a2738"/>
      <path id="Trazado_662558" data-name="Trazado 662558" d="M110.789,117.426h0m-.415-2.375h0m.019.113v0m0,0c.019.113.038.245.075.415a.321.321,0,0,0,.019.132l-.151-.848c-.792-4.58-.773-4.561-.961-5.6-.358-2.054-.3-1.828-.4-2.262a5.2,5.2,0,0,1-.113-.754,3.406,3.406,0,0,1,.132-1.3c.057-.188,17.508-37.749,17.6-37.956a3.278,3.278,0,0,1,.264-.509A.3.3,0,0,1,127,66.41c.188,0,.283.4.3.584l6.577,38.371L115.481,145c-2.808-16.377-4.146-24.217-4.73-27.685v-.038h0c-.057-.32-.188-1.131-.3-1.715-.019-.151-.057-.3-.075-.415" transform="translate(12.634 58.742)" fill="#93d2f0"/>
      <path id="Trazado_662559" data-name="Trazado 662559" d="M124.331,106.407l-1.206,2.582a.647.647,0,0,1-.716.377l-3.11-.49a.678.678,0,0,1-.565-.773.364.364,0,0,1,.057-.188L120,105.332a.647.647,0,0,1,.716-.377l3.11.471a.668.668,0,0,1,.565.773.718.718,0,0,1-.057.188" transform="translate(21.367 92.829)" fill="#1a2738"/>
      <path id="Trazado_662560" data-name="Trazado 662560" d="M123.551,101.287l-1.206,2.582a.647.647,0,0,1-.716.377l-3.11-.49a.678.678,0,0,1-.565-.773.364.364,0,0,1,.057-.188l1.206-2.582a.647.647,0,0,1,.716-.377l3.11.49a.668.668,0,0,1,.565.773.717.717,0,0,1-.057.188" transform="translate(20.677 88.3)" fill="#1a2738"/>
      <path id="Trazado_662561" data-name="Trazado 662561" d="M123.251,108.747l-1.206,2.582a.647.647,0,0,1-.716.377l-3.11-.49a.668.668,0,0,1-.565-.773.718.718,0,0,1,.057-.188l1.206-2.582a.647.647,0,0,1,.716-.377l3.11.49a.668.668,0,0,1,.565.773.718.718,0,0,1-.057.188" transform="translate(20.412 94.899)" fill="#1a2738"/>
      <path id="Trazado_662562" data-name="Trazado 662562" d="M122.471,103.627l-1.206,2.582a.647.647,0,0,1-.716.377l-3.11-.49a.668.668,0,0,1-.565-.773.718.718,0,0,1,.057-.188l1.206-2.582a.647.647,0,0,1,.716-.377l3.11.471a.668.668,0,0,1,.565.773.364.364,0,0,1-.057.188" transform="translate(19.722 90.37)" fill="#1a2738"/>
      <path id="Trazado_662563" data-name="Trazado 662563" d="M121.381,105.957l-1.206,2.582a.647.647,0,0,1-.716.377l-3.11-.49a.668.668,0,0,1-.565-.773.717.717,0,0,1,.057-.188l1.206-2.582a.647.647,0,0,1,.716-.377l3.11.49a.668.668,0,0,1,.565.773.717.717,0,0,1-.057.188" transform="translate(18.758 92.431)" fill="#1a2738"/>
      <path id="Trazado_662564" data-name="Trazado 662564" d="M120.3,108.278l-1.206,2.582a.647.647,0,0,1-.716.377l-3.11-.471a.678.678,0,0,1-.565-.773.364.364,0,0,1,.057-.188l1.206-2.582a.647.647,0,0,1,.716-.377l3.11.49a.668.668,0,0,1,.565.773.719.719,0,0,1-.057.188" transform="translate(17.802 94.501)" fill="#1a2738"/>
      <path id="Trazado_662565" data-name="Trazado 662565" d="M125.745,64.84l3.3.094c-.245,0-.49.264-.7.716l-17.715,38.163a6.286,6.286,0,0,0-.433,1.432,13.554,13.554,0,0,0-.075,4.448l6.747,39.37a1.7,1.7,0,0,0,.151.528c.057.132.151.226.245.226-1.112-.038-2.224-.057-3.336-.094h0c-.226,0-.339-.49-.4-.754l-6.747-39.37a12,12,0,0,1-.151-2.469,9.43,9.43,0,0,1,.641-3.392l17.715-38.163c.132-.3.4-.735.716-.716" transform="translate(10.662 57.353)" fill="#596876"/>
      <path id="Trazado_662566" data-name="Trazado 662566" d="M115.988,148.057a1.187,1.187,0,0,0-.057.245h0v1.282q-.113.2-.226.17a.386.386,0,0,1-.245-.226,1.7,1.7,0,0,1-.151-.528l-6.747-39.37a13.06,13.06,0,0,1,.075-4.448,5.691,5.691,0,0,1,.433-1.432l17.715-38.163c.207-.452.452-.716.7-.716h.019c.283,0,.565.339.792,1.074.075.264.132.528.188.792l6.747,39.37a3.265,3.265,0,0,1,.057.6.7.7,0,0,0-.245.32l-19.034,40.99Zm18.3-41.292L127.71,68.394c-.038-.188-.132-.584-.3-.584a.191.191,0,0,0-.132.075,2.165,2.165,0,0,0-.264.509c-.094.207-17.546,37.768-17.6,37.956a3.778,3.778,0,0,0-.132,1.3,3.474,3.474,0,0,0,.113.754c.075.415.019.207.4,2.262.188,1.037.17,1.018.961,5.6.057.32.113.6.151.848a.279.279,0,0,0,.019.132c.019.038,0,.057,0,.094a.32.32,0,0,0,.019.132h0s0,.094.019.113c0,.057.019.113.019.151v.151a.424.424,0,0,0,.019.132c.019.151.038.264.057.358v.075c0,.057,0,.094.019.113s0,.075.019.132h0c.584,3.468,1.941,11.327,4.73,27.685l18.394-39.633Z" transform="translate(12.24 57.38)" fill="#283c48"/>
      <path id="Trazado_662584" data-name="Trazado 662584" d="M104.945,113.824a10.436,10.436,0,0,1,5.447,8.65c0,2.638-1.658,4.146-4.165,3.091-3.6-1.508-6.389-7.237-5.145-10.384.584-1.47,1.979-2.148,3.863-1.338" transform="translate(5.493 100.395)" fill="#da926d"/>
      <path id="Trazado_662585" data-name="Trazado 662585" d="M101.53,114.653l3.11-1.79a2.759,2.759,0,0,1,1.64-.3c3.147.358,7.086,5.5,6.483,9.838a3.185,3.185,0,0,1-1.338,2.224c-1.282.735-2,1.15-3.015,1.734a3.541,3.541,0,0,0,1.319-3.053,10.4,10.4,0,0,0-5.447-8.65,2.959,2.959,0,0,0-2.752,0h0Z" transform="translate(6.156 99.547)" fill="#e2ae4a"/>
      <path id="Trazado_696835" data-name="Trazado 696835" d="M137.485,153.853a1.6,1.6,0,0,0-2.224-.547L131,155.776a21.578,21.578,0,0,1-21.5,0L74.408,135.5a9.623,9.623,0,0,1-4.881-8.368,9.743,9.743,0,0,1,4.9-8.518l5.3-3.072,52.694-30.418a6.077,6.077,0,0,0,2.186-2.186,5.954,5.954,0,0,0-2.186-8.142,1.613,1.613,0,1,0-1.621,2.789,2.818,2.818,0,0,1,1,1,2.739,2.739,0,0,1-1,3.732L79.93,111.695h-.038l-2.13,1.225L66.417,119.93c-.452,1.338-.151,5.729-.151,7.2a12.8,12.8,0,0,0,6.5,11.157l35.11,20.278a24.593,24.593,0,0,0,12.363,3.3h0a24.734,24.734,0,0,0,12.363-3.3l4.259-2.469a.272.272,0,0,0,.057-.038,1.6,1.6,0,0,0,.547-2.224Z" transform="translate(-25.126 65.963)" fill="#616c7b"/>
      <g id="Grupo_972552" data-name="Grupo 972552" transform="translate(61.774 -14.849)">
        <path id="Trazado_662483" data-name="Trazado 662483" d="M100.991,62.943V61.19c-7.765,4.391-18.318,5.654-27.251,4.636v3.11c8.933.7,19.694-.923,27.251-5.993" transform="translate(-58.934 54.125)" fill="#d45340"/>
        <path id="Trazado_662484" data-name="Trazado 662484" d="M100.991,55.815V54.1c-7.859,4.372-18.375,5.635-27.251,4.6v3.11c9.027.7,19.713-.923,27.251-5.993" transform="translate(-58.934 47.853)" fill="#d45340"/>
        <path id="Trazado_662485" data-name="Trazado 662485" d="M99.961,69.79c-5.918,4-15.529,6.822-27.251,5.993v3.053C84.7,80.231,95.495,77.328,101.9,73.05Z" transform="translate(-57.99 61.733)" fill="#dc8d57"/>
        <path id="Trazado_662486" data-name="Trazado 662486" d="M72.71,45.79v5.032l1.941,3.242V44.64a18.129,18.129,0,0,1-1.941,1.15" transform="translate(-31.615 39.485)" fill="#b85371"/>
        <path id="Trazado_662487" data-name="Trazado 662487" d="M72.71,63.482l1.941,3.26V60.58a18.129,18.129,0,0,1-1.941,1.15Z" transform="translate(-31.615 53.585)" fill="#b85371"/>
        <path id="Trazado_662488" data-name="Trazado 662488" d="M72.71,54.657v1.715l1.941,3.26V53.47c-.622.433-1.282.81-1.941,1.187" transform="translate(-31.615 47.296)" fill="#b85371"/>
        <path id="Trazado_662489" data-name="Trazado 662489" d="M72.71,68.84v2.808l1.941,3.26V67.69a18.132,18.132,0,0,1-1.941,1.15" transform="translate(-31.615 59.875)" fill="#b85371"/>
        <g id="Grupo_971571" data-name="Grupo 971571" transform="translate(34.829 86.575)" opacity="0.64">
          <g id="Grupo_971570" data-name="Grupo 971570">
            <g id="Grupo_972546" data-name="Grupo 972546" clip-path="url(#clip-path)">
              <g id="Grupo_971569" data-name="Grupo 971569" transform="translate(0 0)">
                <path id="Trazado_662490" data-name="Trazado 662490" d="M75.07,47.448V98.106a40.835,40.835,0,0,0,4.071-1.527V45.94a37.513,37.513,0,0,1-4.071,1.508" transform="translate(-75.07 -45.94)" fill="#e8deed"/>
              </g>
            </g>
          </g>
        </g>
        <g id="Grupo_971574" data-name="Grupo 971574" transform="translate(25.05 88.685)" opacity="0.37">
          <g id="Grupo_971573" data-name="Grupo 971573" transform="translate(0)">
            <g id="Grupo_972547" data-name="Grupo 972547" clip-path="url(#clip-path-2)">
              <g id="Grupo_971572" data-name="Grupo 971572" transform="translate(0 0)">
                <path id="Trazado_662491" data-name="Trazado 662491" d="M78.37,48.436V99.094a47.408,47.408,0,0,0,8.141-1.376V47.06a47.719,47.719,0,0,1-8.141,1.376" transform="translate(-78.37 -47.06)" fill="#e8deed"/>
              </g>
            </g>
          </g>
        </g>
        <path id="Trazado_662492" data-name="Trazado 662492" d="M102.451,45.2c-5.974,4.146-17.15,7.2-29.193,5.786v50.658c12,1.395,22.823-1.508,29.193-5.786Zm0-1.187a1.182,1.182,0,0,1,1.187,1.187V95.856a1.16,1.16,0,0,1-.528.98c-6.653,4.467-17.7,7.407-29.984,5.974a1.165,1.165,0,0,1-1.037-1.168V50.983A1.182,1.182,0,0,1,73.277,49.8a58.512,58.512,0,0,0,6.031.358c8.613,0,17.225-2.262,22.483-5.918a1.249,1.249,0,0,1,.678-.207" transform="translate(-58.544 38.927)" fill="#e4a077"/>
        <g id="Grupo_971580" data-name="Grupo 971580" transform="translate(0 70.216)" opacity="0.64">
          <g id="Grupo_971579" data-name="Grupo 971579">
            <g id="Grupo_972549" data-name="Grupo 972549" clip-path="url(#clip-path-3)">
              <g id="Grupo_971578" data-name="Grupo 971578" transform="translate(-0.019)">
                <path id="Trazado_662494" data-name="Trazado 662494" d="M94.97,116.791a30.715,30.715,0,0,0,3.675,1.885V39.145a29.118,29.118,0,0,1-3.656-1.885v79.531Z" transform="translate(-94.97 -37.26)" fill="#e8bea6"/>
              </g>
            </g>
          </g>
        </g>
        <path id="Trazado_662589" data-name="Trazado 662589" d="M65.353,32.093,117.393.205a1.047,1.047,0,0,1,.994-.132l.107.057,4.883,2.94-4.155,5.71-.213-.057V121.329a7.217,7.217,0,0,1-2.77,5.616L68.619,156.138l3.054,2.318L68.282,162l-5.114-3.053a1.532,1.532,0,0,1-.586-1.413V37.709a7.217,7.217,0,0,1,2.77-5.616" transform="translate(-62.395 -0.002)" fill="#92a1d2"/>
        <path id="Trazado_662590" data-name="Trazado 662590" d="M63.828,160.443l51.792-31.888a7.229,7.229,0,0,0,2.757-5.616V3.1c0-1.263-.724-1.847-1.608-1.3L64.977,33.684A7.229,7.229,0,0,0,62.22,39.3V159.142c0,1.263.725,1.847,1.608,1.3" transform="translate(-56.736 1.403)" fill="#d9e0f3"/>
        <path id="Trazado_662591" data-name="Trazado 662591" d="M63.828,103.154,115.62,71.266a7.229,7.229,0,0,0,2.757-5.616v.622a7.229,7.229,0,0,1-2.757,5.616L63.828,103.776c-.884.547-1.608-.038-1.608-1.3v-.622c0,1.263.724,1.847,1.608,1.3" transform="translate(-56.736 58.07)" fill="#afbee2"/>
        <path id="Trazado_662592" data-name="Trazado 662592" d="M81.09,14.857c0,.735.528,1.037,1.168.678a2.658,2.658,0,0,0,1.168-2.017c0-.735-.528-1.037-1.168-.678a2.658,2.658,0,0,0-1.168,2.017" transform="translate(-55.241 11.221)" fill="#3d4697"/>
        <path id="Trazado_662593" data-name="Trazado 662593" d="M73.621,16.148,85.136,9.5a1.05,1.05,0,0,0,.471-.81c0-.3-.207-.415-.471-.264L73.621,15.074a1.05,1.05,0,0,0-.471.81c0,.3.207.415.471.264" transform="translate(-43.111 7.386)" fill="#3d4697"/>
        <path id="Trazado_662594" data-name="Trazado 662594" d="M63.775,154.414l52.535-32.359a5.406,5.406,0,0,0,2.067-4.222V5.228c0-1.225-.689-1.772-1.555-1.244L64.287,36.343a5.406,5.406,0,0,0-2.067,4.222V153.17c0,1.225.689,1.772,1.555,1.244" transform="translate(-56.736 3.343)" fill="#3d4697"/>
        <g id="Grupo_971594" data-name="Grupo 971594" transform="translate(5.484 2.992)" opacity="0.53">
          <g id="Grupo_971593" data-name="Grupo 971593">
            <g id="Grupo_972551" data-name="Grupo 972551" clip-path="url(#clip-path-4)">
              <g id="Grupo_971592" data-name="Grupo 971592" transform="translate(0 0.002)">
                <path id="Trazado_662595" data-name="Trazado 662595" d="M64.977,33.684,116.769,1.8c.884-.547,1.608.038,1.608,1.3v2c0-1.263-.724-1.847-1.608-1.3L64.977,35.682A7.229,7.229,0,0,0,62.22,41.3v-2a7.229,7.229,0,0,1,2.757-5.616" transform="translate(-62.22 -1.591)" fill="#fff"/>
              </g>
            </g>
          </g>
        </g>
        <path id="Trazado_662596" data-name="Trazado 662596" d="M95.807,47.045l.151.094c.565.339,1.037-.019,1.037-.792V31.4a2.43,2.43,0,0,0-1.037-1.979l-.151-.094c-.565-.339-1.037.019-1.037.792V45.048a2.43,2.43,0,0,0,1.037,1.979" transform="translate(-92.961 25.828)" fill="#3b4395"/>
        <path id="Trazado_662597" data-name="Trazado 662597" d="M95.807,50.039l.151.094c.565.339,1.037-.019,1.037-.792V42.293a2.43,2.43,0,0,0-1.037-1.979l-.151-.094c-.565-.339-1.037.019-1.037.792V48.06a2.43,2.43,0,0,0,1.037,1.979" transform="translate(-92.961 35.461)" fill="#3b4395"/>
        <path id="Trazado_662598" data-name="Trazado 662598" d="M96.067,47.045l.151.094c.565.339,1.037-.019,1.037-.792V31.4a2.43,2.43,0,0,0-1.037-1.979l-.151-.094c-.565-.339-1.037.019-1.037.792V45.048a2.43,2.43,0,0,0,1.037,1.979" transform="translate(-93.711 25.828)" fill="#6467ad"/>
        <path id="Trazado_662599" data-name="Trazado 662599" d="M96.067,50.039l.151.094c.565.339,1.037-.019,1.037-.792V42.293a2.43,2.43,0,0,0-1.037-1.979l-.151-.094c-.565-.339-1.037.019-1.037.792V48.06a2.43,2.43,0,0,0,1.037,1.979" transform="translate(-93.711 35.461)" fill="#6467ad"/>
        <path id="Trazado_662600" data-name="Trazado 662600" d="M89.126,14.976a.913.913,0,0,0-.565,1.15.933.933,0,0,0,.565.565,3.274,3.274,0,0,0,2.959,0,.913.913,0,0,0,.565-1.15.933.933,0,0,0-.565-.565,3.274,3.274,0,0,0-2.959,0" transform="translate(-77.587 12.931)" fill="#3d4697"/>
        <path id="Trazado_662601" data-name="Trazado 662601" d="M89.283,15.1a.6.6,0,0,0-.377.773.579.579,0,0,0,.377.377,2.235,2.235,0,0,0,2.017,0,.6.6,0,0,0,.377-.773A.579.579,0,0,0,91.3,15.1a2.235,2.235,0,0,0-2.017,0" transform="translate(-77.298 13.143)" fill="#283374"/>
        <path id="Trazado_662602" data-name="Trazado 662602" d="M92.088,15.4a3.274,3.274,0,0,0-2.959,0,1.217,1.217,0,0,0-.584.641c-.113-.377.075-.773.584-1.074a3.274,3.274,0,0,1,2.959,0,.943.943,0,0,1,.584,1.074,1.217,1.217,0,0,0-.584-.641" transform="translate(-77.589 12.922)" fill="#283374"/>
        <path id="Trazado_662603" data-name="Trazado 662603" d="M62.9,130.938l53.16-32.849V14.62L62.9,47.469Z" transform="translate(-55.701 12.929)" fill="#7a97ce"/>
        <path id="Trazado_662604" data-name="Trazado 662604" d="M62.9,92.626l53.16-32.849V57.93L62.9,90.779v1.847Z" transform="translate(-55.701 51.241)" fill="#4c62ab"/>
        <path id="Trazado_662605" data-name="Trazado 662605" d="M64.24,124.359l48.129-29.946V16.88L64.24,46.826v77.533Z" transform="translate(-54.534 14.928)" fill="#f0f7fd"/>
        <path id="Trazado_662606" data-name="Trazado 662606" d="M80.079,17.944c2.45-1.413,4.429-.264,4.429,2.563a9.775,9.775,0,0,1-4.429,7.67c-2.45,1.413-4.429.264-4.429-2.563a9.775,9.775,0,0,1,4.429-7.67m0,5.955a4.546,4.546,0,0,0,2.054-3.543c0-1.3-.923-1.847-2.054-1.187a4.546,4.546,0,0,0-2.054,3.543c0,1.3.923,1.828,2.054,1.187" transform="translate(-46.504 15.334)" fill="#273c8b"/>
        <path id="Trazado_662609" data-name="Trazado 662609" d="M66.22,56.722l44.42-25.65V29.81L66.22,55.46v1.263Z" transform="translate(-56.537 26.366)" fill="#7a97ce"/>
        <path id="Trazado_662610" data-name="Trazado 662610" d="M72.11,55.425l33.339-19.242V34.92L72.11,54.162Z" transform="translate(-60.273 30.886)" fill="#7a97ce"/>
        <path id="Trazado_662611" data-name="Trazado 662611" d="M66.21,60.121l44.458-25.668V33.19L66.21,58.858Z" transform="translate(-56.546 29.356)" fill="#7a97ce"/>
        <path id="Trazado_662612" data-name="Trazado 662612" d="M66.21,61.8l44.458-25.668V34.87L66.21,60.538Z" transform="translate(-56.546 30.842)" fill="#7a97ce"/>
        <path id="Trazado_662613" data-name="Trazado 662613" d="M66.21,63.481l44.458-25.668V36.55L66.21,62.218Z" transform="translate(-56.546 32.328)" fill="#7a97ce"/>
        <path id="Trazado_662614" data-name="Trazado 662614" d="M66.21,65.161l44.458-25.668V38.23L66.21,63.9Z" transform="translate(-56.546 33.814)" fill="#7a97ce"/>
        <path id="Trazado_662615" data-name="Trazado 662615" d="M72.11,63.825l33.339-19.242V43.32L72.11,62.562Z" transform="translate(-60.273 38.317)" fill="#7a97ce"/>
        <path id="Trazado_662616" data-name="Trazado 662616" d="M66.21,68.521l44.458-25.668V41.59L66.21,67.258Z" transform="translate(-56.546 36.787)" fill="#7a97ce"/>
        <path id="Trazado_662617" data-name="Trazado 662617" d="M66.21,70.2l44.458-25.668V43.27L66.21,68.938Z" transform="translate(-56.546 38.273)" fill="#7a97ce"/>
        <path id="Trazado_662618" data-name="Trazado 662618" d="M85.21,73.527l8.65-4.994V67.27l-8.65,4.994Z" transform="translate(-72.693 59.503)" fill="#7a97ce"/>
        <path id="Trazado_662619" data-name="Trazado 662619" d="M85.21,72.247l8.65-4.994V65.99l-8.65,4.994Z" transform="translate(-72.693 58.371)" fill="#7a97ce"/>
        <path id="Trazado_662620" data-name="Trazado 662620" d="M85.21,70.957l8.65-4.994V64.7l-8.65,4.994Z" transform="translate(-72.693 57.23)" fill="#7a97ce"/>
        <path id="Trazado_662621" data-name="Trazado 662621" d="M66.22,60,74.87,55V53.74l-8.65,4.994Z" transform="translate(-20.768 47.535)" fill="#7a97ce"/>
        <path id="Trazado_662622" data-name="Trazado 662622" d="M66.31,81.1l44.269-25.555V46.27L66.31,71.825Z" transform="translate(-56.646 40.927)" fill="#bfd1ed"/>
      </g>
    </g>
    <text id="Así_como_se_ve_los_procesadores_de_texto_de_Word_también_en_el_PowerPoint_se_encuentran_una_serie_de_herramientas_que_permiten_crear_presentaciones._Veamos_de_qué_se_trata_" data-name="Así como se ve los procesadores de texto de Word, también en el PowerPoint, se encuentran una serie de herramientas que permiten crear presentaciones. ¡Veamos de qué se trata!" transform="translate(600 461.393)" fill="#fff" font-size="16" font-family="Roboto-Regular, Roboto"><tspan x="0" y="15">Así como se ve los procesadores de texto de Word, también en el PowerPoint, se encuentran una </tspan><tspan x="0" y="39">serie de herramientas que permiten crear presentaciones. ¡Veamos de qué se trata!</tspan></text>
    <path id="Trazado_704797" data-name="Trazado 704797" d="M26,0H127a26,26,0,0,1,26,26v5a26,26,0,0,1-26,26H26A26,26,0,0,1,0,31V26A26,26,0,0,1,26,0Z" transform="translate(412 404.393)" fill="#ffc321"/>
    <text id="_Sabías_qué_" data-name="¿Sabías qué?" transform="translate(427.815 421.393)" fill="#12263f" font-size="20" font-family="Roboto-Black, Roboto" font-weight="800"><tspan x="0" y="19">¿Sabías qué?</tspan></text>
    <path id="Trazado_704798" data-name="Trazado 704798" d="M-2823.333-11242.667v27.334l22-27.334Z" transform="translate(3262 11700)" fill="#ffc321"/>
  </g>
</svg>
